<svg version="1.1" viewBox="0.0 0.0 600.0 217.0" fill="none" stroke="none" stroke-linecap="square" stroke-miterlimit="10" width="600" height="217" xmlns:xlink="http://www.w3.org/1999/xlink" xmlns="http://www.w3.org/2000/svg"><path fill="#ffffff" d="M0 0L600.0 0L600.0 217.0L0 217.0L0 0Z" fill-rule="nonzero"/><path stroke="#cccccc" stroke-width="1.0" stroke-linecap="butt" d="M116.5 49.5L116.5 186.5" fill-rule="nonzero"/><path stroke="#cccccc" stroke-width="1.0" stroke-linecap="butt" d="M204.5 49.5L204.5 186.5" fill-rule="nonzero"/><path stroke="#cccccc" stroke-width="1.0" stroke-linecap="butt" d="M291.5 49.5L291.5 186.5" fill-rule="nonzero"/><path stroke="#cccccc" stroke-width="1.0" stroke-linecap="butt" d="M379.5 49.5L379.5 186.5" fill-rule="nonzero"/><path stroke="#cccccc" stroke-width="1.0" stroke-linecap="butt" d="M466.5 49.5L466.5 186.5" fill-rule="nonzero"/><path stroke="#cccccc" stroke-width="1.0" stroke-linecap="butt" d="M554.5 49.5L554.5 186.5" fill-rule="nonzero"/><path stroke="#333333" stroke-width="1.0" stroke-linecap="butt" d="M37.5 186.5L589.5 186.5" fill-rule="nonzero"/><path stroke="#cccccc" stroke-width="1.0" stroke-linecap="butt" d="M37.5 151.5L589.5 151.5" fill-rule="nonzero"/><path stroke="#cccccc" stroke-width="1.0" stroke-linecap="butt" d="M37.5 117.5L589.5 117.5" fill-rule="nonzero"/><path stroke="#cccccc" stroke-width="1.0" stroke-linecap="butt" d="M37.5 83.5L589.5 83.5" fill-rule="nonzero"/><path stroke="#cccccc" stroke-width="1.0" stroke-linecap="butt" d="M37.5 49.5L589.5 49.5" fill-rule="nonzero"/><clipPath id="id_0"><path d="M37.85 49.083332L589.15 49.083332L589.15 186.15L37.85 186.15L37.85 49.083332Z" clip-rule="nonzero"/></clipPath><path stroke="#ea4335" stroke-width="2.0" stroke-linecap="butt" clip-path="url(#id_0)" d="M37.85 108.462875C37.85 108.462875 43.68386 109.10727 46.600792 109.091385C49.517723 109.0755 58.26852 108.16322 64.10238 107.64376C69.93624 107.124306 87.43783 104.81743 99.10555 104.30548C110.77328 103.79354 145.77646 104.862724 169.11191 104.838684C192.44736 104.814644 262.4537 103.398735 309.1246 103.483795C355.7955 103.56885 589.15 107.21424 589.15 107.21424" fill-rule="nonzero"/><path fill="#000000" fill-opacity="0.0" clip-path="url(#id_0)" d="M40.85 108.462875C40.85 110.119736 39.506855 111.462875 37.85 111.462875C36.193146 111.462875 34.85 110.119736 34.85 108.462875C34.85 106.80602 36.193146 105.462875 37.85 105.462875C39.506855 105.462875 40.85 106.80602 40.85 108.462875Z" fill-rule="nonzero"/><path fill="#000000" fill-opacity="0.0" clip-path="url(#id_0)" d="M49.600792 109.091385C49.600792 110.74824 48.25765 112.091385 46.600792 112.091385C44.94394 112.091385 43.600792 110.74824 43.600792 109.091385C43.600792 107.434525 44.94394 106.091385 46.600792 106.091385C48.25765 106.091385 49.600792 107.434525 49.600792 109.091385Z" fill-rule="nonzero"/><path fill="#000000" fill-opacity="0.0" clip-path="url(#id_0)" d="M67.10238 107.64376C67.10238 109.30062 65.75923 110.64376 64.10238 110.64376C62.445526 110.64376 61.102383 109.30062 61.102383 107.64376C61.102383 105.98691 62.445526 104.64376 64.10238 104.64376C65.75923 104.64376 67.10238 105.98691 67.10238 107.64376Z" fill-rule="nonzero"/><path fill="#000000" fill-opacity="0.0" clip-path="url(#id_0)" d="M102.10555 104.30548C102.10555 105.96234 100.76241 107.30548 99.10555 107.30548C97.4487 107.30548 96.10555 105.96234 96.10555 104.30548C96.10555 102.64863 97.4487 101.30548 99.10555 101.30548C100.76241 101.30548 102.10555 102.64863 102.10555 104.30548Z" fill-rule="nonzero"/><path fill="#000000" fill-opacity="0.0" clip-path="url(#id_0)" d="M172.11191 104.838684C172.11191 106.49554 170.76875 107.838684 169.11191 107.838684C167.45505 107.838684 166.11191 106.49554 166.11191 104.838684C166.11191 103.18182 167.45505 101.838684 169.11191 101.838684C170.76875 101.838684 172.11191 103.18182 172.11191 104.838684Z" fill-rule="nonzero"/><path fill="#000000" fill-opacity="0.0" clip-path="url(#id_0)" d="M312.1246 103.483795C312.1246 105.14065 310.78146 106.483795 309.1246 106.483795C307.46774 106.483795 306.1246 105.14065 306.1246 103.483795C306.1246 101.82694 307.46774 100.483795 309.1246 100.483795C310.78146 100.483795 312.1246 101.82694 312.1246 103.483795Z" fill-rule="nonzero"/><path fill="#000000" fill-opacity="0.0" clip-path="url(#id_0)" d="M592.15 107.21424C592.15 108.8711 590.8069 110.21424 589.15 110.21424C587.49316 110.21424 586.15 108.8711 586.15 107.21424C586.15 105.55739 587.49316 104.21424 589.15 104.21424C590.8069 104.21424 592.15 105.55739 592.15 107.21424Z" fill-rule="nonzero"/><path fill="#000000" d="M25.35 185.91562Q25.35 184.38437 25.6625 183.4625Q25.975 182.525 26.584375 182.025Q27.209375 181.525 28.146875 181.525Q28.834375 181.525 29.35 181.80624Q29.88125 182.0875 30.225 182.61874Q30.56875 183.13437 30.75625 183.88437Q30.94375 184.63437 30.94375 185.91562Q30.94375 187.43124 30.63125 188.35312Q30.334375 189.275 29.709375 189.79062Q29.1 190.29062 28.146875 190.29062Q26.9125 190.29062 26.19375 189.4Q25.35 188.3375 25.35 185.91562ZM26.428125 185.91562Q26.428125 188.025 26.928125 188.72812Q27.428125 189.43124 28.146875 189.43124Q28.88125 189.43124 29.365625 188.72812Q29.865625 188.025 29.865625 185.91562Q29.865625 183.79062 29.365625 183.10312Q28.88125 182.4 28.13125 182.4Q27.4125 182.4 26.975 183.00937Q26.428125 183.79062 26.428125 185.91562Z" fill-rule="nonzero"/><path fill="#000000" d="M23.896875 154.8677L23.896875 155.88333L18.209375 155.88333Q18.209375 155.50833 18.334375 155.14896Q18.553125 154.57083 19.021875 154.00833Q19.50625 153.44583 20.4125 152.71146Q21.81875 151.5552 22.303125 150.88333Q22.803125 150.21146 22.803125 149.6177Q22.803125 148.9927 22.35 148.57083Q21.896875 148.13333 21.178125 148.13333Q20.4125 148.13333 19.959375 148.58646Q19.50625 149.03958 19.490625 149.85208L18.4125 149.7427Q18.521875 148.52396 19.240625 147.89896Q19.975 147.25833 21.209375 147.25833Q22.44375 147.25833 23.1625 147.94583Q23.88125 148.63333 23.88125 149.64896Q23.88125 150.16458 23.6625 150.66458Q23.459375 151.14896 22.959375 151.71146Q22.475 152.25833 21.35 153.21146Q20.396875 154.00833 20.115625 154.3052Q19.85 154.58646 19.678125 154.8677L23.896875 154.8677ZM25.35 151.64896Q25.35 150.1177 25.6625 149.19583Q25.975 148.25833 26.584375 147.75833Q27.209375 147.25833 28.146875 147.25833Q28.834375 147.25833 29.35 147.53958Q29.88125 147.82083 30.225 148.35208Q30.56875 148.8677 30.75625 149.6177Q30.94375 150.3677 30.94375 151.64896Q30.94375 153.16458 30.63125 154.08646Q30.334375 155.00833 29.709375 155.52396Q29.1 156.02396 28.146875 156.02396Q26.9125 156.02396 26.19375 155.13333Q25.35 154.07083 25.35 151.64896ZM26.428125 151.64896Q26.428125 153.75833 26.928125 154.46146Q27.428125 155.16458 28.146875 155.16458Q28.88125 155.16458 29.365625 154.46146Q29.865625 153.75833 29.865625 151.64896Q29.865625 149.52396 29.365625 148.83646Q28.88125 148.13333 28.13125 148.13333Q27.4125 148.13333 26.975 148.7427Q26.428125 149.52396 26.428125 151.64896Z" fill-rule="nonzero"/><path fill="#000000" d="M21.725 121.61667L21.725 119.55417L18.00625 119.55417L18.00625 118.58542L21.928125 113.02292L22.7875 113.02292L22.7875 118.58542L23.94375 118.58542L23.94375 119.55417L22.7875 119.55417L22.7875 121.61667L21.725 121.61667ZM21.725 118.58542L21.725 114.72604L19.0375 118.58542L21.725 118.58542ZM25.35 117.38229Q25.35 115.85104 25.6625 114.92917Q25.975 113.99167 26.584375 113.49167Q27.209375 112.99167 28.146875 112.99167Q28.834375 112.99167 29.35 113.27292Q29.88125 113.55417 30.225 114.08542Q30.56875 114.60104 30.75625 115.35104Q30.94375 116.10104 30.94375 117.38229Q30.94375 118.89792 30.63125 119.81979Q30.334375 120.74167 29.709375 121.25729Q29.1 121.75729 28.146875 121.75729Q26.9125 121.75729 26.19375 120.86667Q25.35 119.80417 25.35 117.38229ZM26.428125 117.38229Q26.428125 119.49167 26.928125 120.19479Q27.428125 120.89792 28.146875 120.89792Q28.88125 120.89792 29.365625 120.19479Q29.865625 119.49167 29.865625 117.38229Q29.865625 115.25729 29.365625 114.56979Q28.88125 113.86667 28.13125 113.86667Q27.4125 113.86667 26.975 114.47604Q26.428125 115.25729 26.428125 117.38229Z" fill-rule="nonzero"/><path fill="#000000" d="M23.81875 80.86562L22.771875 80.94375Q22.63125 80.31875 22.38125 80.0375Q21.94375 79.58437 21.31875 79.58437Q20.81875 79.58437 20.428125 79.86562Q19.94375 80.24062 19.646875 80.94375Q19.365625 81.63125 19.35 82.9125Q19.725 82.33437 20.271875 82.05312Q20.834375 81.77187 21.44375 81.77187Q22.490625 81.77187 23.225 82.55312Q23.975 83.33437 23.975 84.55312Q23.975 85.36562 23.615625 86.06875Q23.271875 86.75625 22.6625 87.13125Q22.053125 87.49062 21.2875 87.49062Q19.959375 87.49062 19.13125 86.52187Q18.303125 85.55312 18.303125 83.33437Q18.303125 80.83437 19.225 79.70937Q20.021875 78.725 21.38125 78.725Q22.396875 78.725 23.0375 79.30312Q23.69375 79.86562 23.81875 80.86562ZM19.521875 84.56875Q19.521875 85.11562 19.740625 85.61562Q19.975 86.1 20.38125 86.36562Q20.803125 86.63125 21.271875 86.63125Q21.928125 86.63125 22.4125 86.1Q22.896875 85.55312 22.896875 84.63125Q22.896875 83.74062 22.4125 83.225Q21.94375 82.70937 21.225 82.70937Q20.50625 82.70937 20.00625 83.225Q19.521875 83.74062 19.521875 84.56875ZM25.35 83.11562Q25.35 81.58437 25.6625 80.6625Q25.975 79.725 26.584375 79.225Q27.209375 78.725 28.146875 78.725Q28.834375 78.725 29.35 79.00625Q29.88125 79.2875 30.225 79.81875Q30.56875 80.33437 30.75625 81.08437Q30.94375 81.83437 30.94375 83.11562Q30.94375 84.63125 30.63125 85.55312Q30.334375 86.475 29.709375 86.99062Q29.1 87.49062 28.146875 87.49062Q26.9125 87.49062 26.19375 86.6Q25.35 85.5375 25.35 83.11562ZM26.428125 83.11562Q26.428125 85.225 26.928125 85.92812Q27.428125 86.63125 28.146875 86.63125Q28.88125 86.63125 29.365625 85.92812Q29.865625 85.225 29.865625 83.11562Q29.865625 80.99062 29.365625 80.30312Q28.88125 79.6 28.13125 79.6Q27.4125 79.6 26.975 80.20937Q26.428125 80.99062 26.428125 83.11562Z" fill-rule="nonzero"/><path fill="#000000" d="M19.975 48.427082Q19.31875 48.177082 18.990625 47.739582Q18.678125 47.286457 18.678125 46.677082Q18.678125 45.739582 19.35 45.098957Q20.0375 44.458332 21.146875 44.458332Q22.271875 44.458332 22.959375 45.114582Q23.646875 45.770832 23.646875 46.708332Q23.646875 47.302082 23.334375 47.739582Q23.021875 48.177082 22.38125 48.427082Q23.178125 48.677082 23.584375 49.255207Q23.990625 49.833332 23.990625 50.630207Q23.990625 51.723957 23.209375 52.473957Q22.44375 53.223957 21.1625 53.223957Q19.896875 53.223957 19.115625 52.473957Q18.334375 51.723957 18.334375 50.598957Q18.334375 49.755207 18.75625 49.192707Q19.19375 48.630207 19.975 48.427082ZM19.75625 46.630207Q19.75625 47.239582 20.146875 47.630207Q20.553125 48.020832 21.178125 48.020832Q21.7875 48.020832 22.178125 47.645832Q22.56875 47.255207 22.56875 46.692707Q22.56875 46.114582 22.1625 45.723957Q21.75625 45.317707 21.1625 45.317707Q20.553125 45.317707 20.146875 45.708332Q19.75625 46.098957 19.75625 46.630207ZM19.428125 50.598957Q19.428125 51.052082 19.63125 51.473957Q19.85 51.895832 20.271875 52.130207Q20.69375 52.364582 21.178125 52.364582Q21.928125 52.364582 22.4125 51.880207Q22.9125 51.395832 22.9125 50.645832Q22.9125 49.880207 22.4125 49.380207Q21.9125 48.880207 21.146875 48.880207Q20.396875 48.880207 19.9125 49.380207Q19.428125 49.864582 19.428125 50.598957ZM25.35 48.848957Q25.35 47.317707 25.6625 46.395832Q25.975 45.458332 26.584375 44.958332Q27.209375 44.458332 28.146875 44.458332Q28.834375 44.458332 29.35 44.739582Q29.88125 45.020832 30.225 45.552082Q30.56875 46.067707 30.75625 46.817707Q30.94375 47.567707 30.94375 48.848957Q30.94375 50.364582 30.63125 51.286457Q30.334375 52.208332 29.709375 52.723957Q29.1 53.223957 28.146875 53.223957Q26.9125 53.223957 26.19375 52.333332Q25.35 51.270832 25.35 48.848957ZM26.428125 48.848957Q26.428125 50.958332 26.928125 51.661457Q27.428125 52.364582 28.146875 52.364582Q28.88125 52.364582 29.365625 51.661457Q29.865625 50.958332 29.865625 48.848957Q29.865625 46.723957 29.365625 46.036457Q28.88125 45.333332 28.13125 45.333332Q27.4125 45.333332 26.975 45.942707Q26.428125 46.723957 26.428125 48.848957Z" fill-rule="nonzero"/><path fill="#000000" d="M103.57589 203.15L102.529015 203.15L102.529015 196.43124Q102.13839 196.79062 101.51339 197.16562Q100.904015 197.525 100.41964 197.69687L100.41964 196.68124Q101.29464 196.25937 101.95089 195.68124Q102.622765 195.0875 102.904015 194.525L103.57589 194.525L103.57589 203.15ZM106.60714 198.91562Q106.60714 197.38437 106.91964 196.4625Q107.23214 195.525 107.841515 195.025Q108.466515 194.525 109.404015 194.525Q110.091515 194.525 110.60714 194.80624Q111.13839 195.0875 111.48214 195.61874Q111.82589 196.13437 112.01339 196.88437Q112.20089 197.63437 112.20089 198.91562Q112.20089 200.43124 111.88839 201.35312Q111.591515 202.275 110.966515 202.79062Q110.35714 203.29062 109.404015 203.29062Q108.16964 203.29062 107.45089 202.4Q106.60714 201.3375 106.60714 198.91562ZM107.685265 198.91562Q107.685265 201.025 108.185265 201.72812Q108.685265 202.43124 109.404015 202.43124Q110.13839 202.43124 110.622765 201.72812Q111.122765 201.025 111.122765 198.91562Q111.122765 196.79062 110.622765 196.10312Q110.13839 195.4 109.38839 195.4Q108.66964 195.4 108.23214 196.00937Q107.685265 196.79062 107.685265 198.91562ZM113.60714 198.91562Q113.60714 197.38437 113.91964 196.4625Q114.23214 195.525 114.841515 195.025Q115.466515 194.525 116.404015 194.525Q117.091515 194.525 117.60714 194.80624Q118.13839 195.0875 118.48214 195.61874Q118.82589 196.13437 119.01339 196.88437Q119.20089 197.63437 119.20089 198.91562Q119.20089 200.43124 118.88839 201.35312Q118.591515 202.275 117.966515 202.79062Q117.35714 203.29062 116.404015 203.29062Q115.16964 203.29062 114.45089 202.4Q113.60714 201.3375 113.60714 198.91562ZM114.685265 198.91562Q114.685265 201.025 115.185265 201.72812Q115.685265 202.43124 116.404015 202.43124Q117.13839 202.43124 117.622765 201.72812Q118.122765 201.025 118.122765 198.91562Q118.122765 196.79062 117.622765 196.10312Q117.13839 195.4 116.38839 195.4Q115.66964 195.4 115.23214 196.00937Q114.685265 196.79062 114.685265 198.91562ZM120.60714 198.91562Q120.60714 197.38437 120.91964 196.4625Q121.23214 195.525 121.841515 195.025Q122.466515 194.525 123.404015 194.525Q124.091515 194.525 124.60714 194.80624Q125.13839 195.0875 125.48214 195.61874Q125.82589 196.13437 126.01339 196.88437Q126.20089 197.63437 126.20089 198.91562Q126.20089 200.43124 125.88839 201.35312Q125.591515 202.275 124.966515 202.79062Q124.35714 203.29062 123.404015 203.29062Q122.16964 203.29062 121.45089 202.4Q120.60714 201.3375 120.60714 198.91562ZM121.685265 198.91562Q121.685265 201.025 122.185265 201.72812Q122.685265 202.43124 123.404015 202.43124Q124.13839 202.43124 124.622765 201.72812Q125.122765 201.025 125.122765 198.91562Q125.122765 196.79062 124.622765 196.10312Q124.13839 195.4 123.38839 195.4Q122.66964 195.4 122.23214 196.00937Q121.685265 196.79062 121.685265 198.91562ZM127.60714 198.91562Q127.60714 197.38437 127.91964 196.4625Q128.23215 195.525 128.84152 195.025Q129.46652 194.525 130.40402 194.525Q131.09152 194.525 131.60715 194.80624Q132.1384 195.0875 132.48215 195.61874Q132.8259 196.13437 133.0134 196.88437Q133.2009 197.63437 133.2009 198.91562Q133.2009 200.43124 132.8884 201.35312Q132.59152 202.275 131.96652 202.79062Q131.35715 203.29062 130.40402 203.29062Q129.16965 203.29062 128.4509 202.4Q127.60714 201.3375 127.60714 198.91562ZM128.68527 198.91562Q128.68527 201.025 129.18527 201.72812Q129.68527 202.43124 130.40402 202.43124Q131.1384 202.43124 131.62277 201.72812Q132.12277 201.025 132.12277 198.91562Q132.12277 196.79062 131.62277 196.10312Q131.1384 195.4 130.3884 195.4Q129.66965 195.4 129.23215 196.00937Q128.68527 196.79062 128.68527 198.91562Z" fill-rule="nonzero"/><path fill="#000000" d="M192.66196 202.13437L192.66196 203.15L186.97446 203.15Q186.97446 202.775 187.09946 202.41562Q187.3182 201.8375 187.78696 201.275Q188.27133 200.7125 189.17758 199.97812Q190.58383 198.82187 191.0682 198.15Q191.5682 197.47812 191.5682 196.88437Q191.5682 196.25937 191.11508 195.8375Q190.66196 195.4 189.9432 195.4Q189.17758 195.4 188.72446 195.85312Q188.27133 196.30624 188.2557 197.11874L187.17758 197.00937Q187.28696 195.79062 188.0057 195.16562Q188.74008 194.525 189.97446 194.525Q191.20883 194.525 191.92758 195.2125Q192.64633 195.9 192.64633 196.91562Q192.64633 197.43124 192.42758 197.93124Q192.22446 198.41562 191.72446 198.97812Q191.24008 199.525 190.11508 200.47812Q189.16196 201.275 188.8807 201.57187Q188.61508 201.85312 188.4432 202.13437L192.66196 202.13437ZM194.11508 198.91562Q194.11508 197.38437 194.42758 196.4625Q194.74008 195.525 195.34946 195.025Q195.97446 194.525 196.91196 194.525Q197.59946 194.525 198.11508 194.80624Q198.64633 195.0875 198.99008 195.61874Q199.33383 196.13437 199.52133 196.88437Q199.70883 197.63437 199.70883 198.91562Q199.70883 200.43124 199.39633 201.35312Q199.09946 202.275 198.47446 202.79062Q197.86508 203.29062 196.91196 203.29062Q195.67758 203.29062 194.95883 202.4Q194.11508 201.3375 194.11508 198.91562ZM195.1932 198.91562Q195.1932 201.025 195.6932 201.72812Q196.1932 202.43124 196.91196 202.43124Q197.64633 202.43124 198.1307 201.72812Q198.6307 201.025 198.6307 198.91562Q198.6307 196.79062 198.1307 196.10312Q197.64633 195.4 196.89633 195.4Q196.17758 195.4 195.74008 196.00937Q195.1932 196.79062 195.1932 198.91562ZM201.11508 198.91562Q201.11508 197.38437 201.42758 196.4625Q201.74008 195.525 202.34946 195.025Q202.97446 194.525 203.91196 194.525Q204.59946 194.525 205.11508 194.80624Q205.64633 195.0875 205.99008 195.61874Q206.33383 196.13437 206.52133 196.88437Q206.70883 197.63437 206.70883 198.91562Q206.70883 200.43124 206.39633 201.35312Q206.09946 202.275 205.47446 202.79062Q204.86508 203.29062 203.91196 203.29062Q202.67758 203.29062 201.95883 202.4Q201.11508 201.3375 201.11508 198.91562ZM202.1932 198.91562Q202.1932 201.025 202.6932 201.72812Q203.1932 202.43124 203.91196 202.43124Q204.64633 202.43124 205.1307 201.72812Q205.6307 201.025 205.6307 198.91562Q205.6307 196.79062 205.1307 196.10312Q204.64633 195.4 203.89633 195.4Q203.17758 195.4 202.74008 196.00937Q202.1932 196.79062 202.1932 198.91562ZM208.11508 198.91562Q208.11508 197.38437 208.42758 196.4625Q208.74008 195.525 209.34946 195.025Q209.97446 194.525 210.91196 194.525Q211.59946 194.525 212.11508 194.80624Q212.64633 195.0875 212.99008 195.61874Q213.33383 196.13437 213.52133 196.88437Q213.70883 197.63437 213.70883 198.91562Q213.70883 200.43124 213.39633 201.35312Q213.09946 202.275 212.47446 202.79062Q211.86508 203.29062 210.91196 203.29062Q209.67758 203.29062 208.95883 202.4Q208.11508 201.3375 208.11508 198.91562ZM209.1932 198.91562Q209.1932 201.025 209.6932 201.72812Q210.1932 202.43124 210.91196 202.43124Q211.64633 202.43124 212.1307 201.72812Q212.6307 201.025 212.6307 198.91562Q212.6307 196.79062 212.1307 196.10312Q211.64633 195.4 210.89633 195.4Q210.17758 195.4 209.74008 196.00937Q209.1932 196.79062 209.1932 198.91562ZM215.11508 198.91562Q215.11508 197.38437 215.42758 196.4625Q215.74008 195.525 216.34946 195.025Q216.97446 194.525 217.91196 194.525Q218.59946 194.525 219.11508 194.80624Q219.64633 195.0875 219.99008 195.61874Q220.33383 196.13437 220.52133 196.88437Q220.70883 197.63437 220.70883 198.91562Q220.70883 200.43124 220.39633 201.35312Q220.09946 202.275 219.47446 202.79062Q218.86508 203.29062 217.91196 203.29062Q216.67758 203.29062 215.95883 202.4Q215.11508 201.3375 215.11508 198.91562ZM216.1932 198.91562Q216.1932 201.025 216.6932 201.72812Q217.1932 202.43124 217.91196 202.43124Q218.64633 202.43124 219.1307 201.72812Q219.6307 201.025 219.6307 198.91562Q219.6307 196.79062 219.1307 196.10312Q218.64633 195.4 217.89633 195.4Q217.17758 195.4 216.74008 196.00937Q216.1932 196.79062 216.1932 198.91562Z" fill-rule="nonzero"/><path fill="#000000" d="M274.62302 200.88437L275.68552 200.74374Q275.8574 201.63437 276.2949 202.04062Q276.7324 202.43124 277.3574 202.43124Q278.1074 202.43124 278.62302 201.91562Q279.13864 201.4 279.13864 200.63437Q279.13864 199.91562 278.65427 199.44687Q278.18552 198.9625 277.45114 198.9625Q277.15427 198.9625 276.70114 199.0875L276.82614 198.15Q276.93552 198.16562 276.99802 198.16562Q277.6699 198.16562 278.20114 197.82187Q278.74802 197.4625 278.74802 196.72812Q278.74802 196.15 278.3574 195.775Q277.96677 195.38437 277.34177 195.38437Q276.7324 195.38437 276.31052 195.775Q275.90427 196.16562 275.7949 196.93124L274.7324 196.74374Q274.9199 195.69687 275.6074 195.11874Q276.2949 194.525 277.31052 194.525Q278.01364 194.525 278.6074 194.8375Q279.20114 195.13437 279.51364 195.65Q279.82614 196.16562 279.82614 196.75937Q279.82614 197.30624 279.52927 197.775Q279.2324 198.22812 278.65427 198.49374Q279.40427 198.66562 279.82614 199.22812Q280.24802 199.775 280.24802 200.61874Q280.24802 201.74374 279.4199 202.525Q278.6074 203.30624 277.3574 203.30624Q276.2324 203.30624 275.4824 202.63437Q274.7324 201.94687 274.62302 200.88437ZM281.62302 198.91562Q281.62302 197.38437 281.93552 196.4625Q282.24802 195.525 282.8574 195.025Q283.4824 194.525 284.4199 194.525Q285.1074 194.525 285.62302 194.80624Q286.15427 195.0875 286.49802 195.61874Q286.84177 196.13437 287.02927 196.88437Q287.21677 197.63437 287.21677 198.91562Q287.21677 200.43124 286.90427 201.35312Q286.6074 202.275 285.9824 202.79062Q285.37302 203.29062 284.4199 203.29062Q283.18552 203.29062 282.46677 202.4Q281.62302 201.3375 281.62302 198.91562ZM282.70114 198.91562Q282.70114 201.025 283.20114 201.72812Q283.70114 202.43124 284.4199 202.43124Q285.15427 202.43124 285.63864 201.72812Q286.13864 201.025 286.13864 198.91562Q286.13864 196.79062 285.63864 196.10312Q285.15427 195.4 284.40427 195.4Q283.68552 195.4 283.24802 196.00937Q282.70114 196.79062 282.70114 198.91562ZM288.62302 198.91562Q288.62302 197.38437 288.93552 196.4625Q289.24802 195.525 289.8574 195.025Q290.4824 194.525 291.4199 194.525Q292.1074 194.525 292.62302 194.80624Q293.15427 195.0875 293.49802 195.61874Q293.84177 196.13437 294.02927 196.88437Q294.21677 197.63437 294.21677 198.91562Q294.21677 200.43124 293.90427 201.35312Q293.6074 202.275 292.9824 202.79062Q292.37302 203.29062 291.4199 203.29062Q290.18552 203.29062 289.46677 202.4Q288.62302 201.3375 288.62302 198.91562ZM289.70114 198.91562Q289.70114 201.025 290.20114 201.72812Q290.70114 202.43124 291.4199 202.43124Q292.15427 202.43124 292.63864 201.72812Q293.13864 201.025 293.13864 198.91562Q293.13864 196.79062 292.63864 196.10312Q292.15427 195.4 291.40427 195.4Q290.68552 195.4 290.24802 196.00937Q289.70114 196.79062 289.70114 198.91562ZM295.62302 198.91562Q295.62302 197.38437 295.93552 196.4625Q296.24802 195.525 296.8574 195.025Q297.4824 194.525 298.4199 194.525Q299.1074 194.525 299.62302 194.80624Q300.15427 195.0875 300.49802 195.61874Q300.84177 196.13437 301.02927 196.88437Q301.21677 197.63437 301.21677 198.91562Q301.21677 200.43124 300.90427 201.35312Q300.6074 202.275 299.9824 202.79062Q299.37302 203.29062 298.4199 203.29062Q297.18552 203.29062 296.46677 202.4Q295.62302 201.3375 295.62302 198.91562ZM296.70114 198.91562Q296.70114 201.025 297.20114 201.72812Q297.70114 202.43124 298.4199 202.43124Q299.15427 202.43124 299.63864 201.72812Q300.13864 201.025 300.13864 198.91562Q300.13864 196.79062 299.63864 196.10312Q299.15427 195.4 298.40427 195.4Q297.68552 195.4 297.24802 196.00937Q296.70114 196.79062 296.70114 198.91562ZM302.62302 198.91562Q302.62302 197.38437 302.93552 196.4625Q303.24802 195.525 303.8574 195.025Q304.4824 194.525 305.4199 194.525Q306.1074 194.525 306.62302 194.80624Q307.15427 195.0875 307.49802 195.61874Q307.84177 196.13437 308.02927 196.88437Q308.21677 197.63437 308.21677 198.91562Q308.21677 200.43124 307.90427 201.35312Q307.6074 202.275 306.9824 202.79062Q306.37302 203.29062 305.4199 203.29062Q304.18552 203.29062 303.46677 202.4Q302.62302 201.3375 302.62302 198.91562ZM303.70114 198.91562Q303.70114 201.025 304.20114 201.72812Q304.70114 202.43124 305.4199 202.43124Q306.15427 202.43124 306.63864 201.72812Q307.13864 201.025 307.13864 198.91562Q307.13864 196.79062 306.63864 196.10312Q306.15427 195.4 305.40427 195.4Q304.68552 195.4 304.24802 196.00937Q303.70114 196.79062 303.70114 198.91562Z" fill-rule="nonzero"/><path fill="#000000" d="M365.50595 203.15L365.50595 201.0875L361.7872 201.0875L361.7872 200.11874L365.70908 194.55624L366.56845 194.55624L366.56845 200.11874L367.7247 200.11874L367.7247 201.0875L366.56845 201.0875L366.56845 203.15L365.50595 203.15ZM365.50595 200.11874L365.50595 196.25937L362.81845 200.11874L365.50595 200.11874ZM369.13095 198.91562Q369.13095 197.38437 369.44345 196.4625Q369.75595 195.525 370.36533 195.025Q370.99033 194.525 371.92783 194.525Q372.61533 194.525 373.13095 194.80624Q373.6622 195.0875 374.00595 195.61874Q374.3497 196.13437 374.5372 196.88437Q374.7247 197.63437 374.7247 198.91562Q374.7247 200.43124 374.4122 201.35312Q374.11533 202.275 373.49033 202.79062Q372.88095 203.29062 371.92783 203.29062Q370.69345 203.29062 369.9747 202.4Q369.13095 201.3375 369.13095 198.91562ZM370.20908 198.91562Q370.20908 201.025 370.70908 201.72812Q371.20908 202.43124 371.92783 202.43124Q372.6622 202.43124 373.14658 201.72812Q373.64658 201.025 373.64658 198.91562Q373.64658 196.79062 373.14658 196.10312Q372.6622 195.4 371.9122 195.4Q371.19345 195.4 370.75595 196.00937Q370.20908 196.79062 370.20908 198.91562ZM376.13095 198.91562Q376.13095 197.38437 376.44345 196.4625Q376.75595 195.525 377.36533 195.025Q377.99033 194.525 378.92783 194.525Q379.61533 194.525 380.13095 194.80624Q380.6622 195.0875 381.00595 195.61874Q381.3497 196.13437 381.5372 196.88437Q381.7247 197.63437 381.7247 198.91562Q381.7247 200.43124 381.4122 201.35312Q381.11533 202.275 380.49033 202.79062Q379.88095 203.29062 378.92783 203.29062Q377.69345 203.29062 376.9747 202.4Q376.13095 201.3375 376.13095 198.91562ZM377.20908 198.91562Q377.20908 201.025 377.70908 201.72812Q378.20908 202.43124 378.92783 202.43124Q379.6622 202.43124 380.14658 201.72812Q380.64658 201.025 380.64658 198.91562Q380.64658 196.79062 380.14658 196.10312Q379.6622 195.4 378.9122 195.4Q378.19345 195.4 377.75595 196.00937Q377.20908 196.79062 377.20908 198.91562ZM383.13095 198.91562Q383.13095 197.38437 383.44345 196.4625Q383.75595 195.525 384.36533 195.025Q384.99033 194.525 385.92783 194.525Q386.61533 194.525 387.13095 194.80624Q387.6622 195.0875 388.00595 195.61874Q388.3497 196.13437 388.5372 196.88437Q388.7247 197.63437 388.7247 198.91562Q388.7247 200.43124 388.4122 201.35312Q388.11533 202.275 387.49033 202.79062Q386.88095 203.29062 385.92783 203.29062Q384.69345 203.29062 383.9747 202.4Q383.13095 201.3375 383.13095 198.91562ZM384.20908 198.91562Q384.20908 201.025 384.70908 201.72812Q385.20908 202.43124 385.92783 202.43124Q386.6622 202.43124 387.14658 201.72812Q387.64658 201.025 387.64658 198.91562Q387.64658 196.79062 387.14658 196.10312Q386.6622 195.4 385.9122 195.4Q385.19345 195.4 384.75595 196.00937Q384.20908 196.79062 384.20908 198.91562ZM390.13095 198.91562Q390.13095 197.38437 390.44345 196.4625Q390.75595 195.525 391.36533 195.025Q391.99033 194.525 392.92783 194.525Q393.61533 194.525 394.13095 194.80624Q394.6622 195.0875 395.00595 195.61874Q395.3497 196.13437 395.5372 196.88437Q395.7247 197.63437 395.7247 198.91562Q395.7247 200.43124 395.4122 201.35312Q395.11533 202.275 394.49033 202.79062Q393.88095 203.29062 392.92783 203.29062Q391.69345 203.29062 390.9747 202.4Q390.13095 201.3375 390.13095 198.91562ZM391.20908 198.91562Q391.20908 201.025 391.70908 201.72812Q392.20908 202.43124 392.92783 202.43124Q393.6622 202.43124 394.14658 201.72812Q394.64658 201.025 394.64658 198.91562Q394.64658 196.79062 394.14658 196.10312Q393.6622 195.4 392.9122 195.4Q392.19345 195.4 391.75595 196.00937Q391.20908 196.79062 391.20908 198.91562Z" fill-rule="nonzero"/><path fill="#000000" d="M449.6389 200.9L450.74826 200.80624Q450.87326 201.61874 451.31076 202.025Q451.7639 202.43124 452.4045 202.43124Q453.1545 202.43124 453.68576 201.85312Q454.217 201.275 454.217 200.3375Q454.217 199.43124 453.7014 198.91562Q453.2014 198.38437 452.37326 198.38437Q451.87326 198.38437 451.4514 198.61874Q451.04514 198.85312 450.81076 199.2125L449.8264 199.0875L450.6545 194.68124L454.93576 194.68124L454.93576 195.68124L451.49826 195.68124L451.04514 197.99374Q451.81076 197.44687 452.6545 197.44687Q453.7795 197.44687 454.54514 198.22812Q455.3264 199.00937 455.3264 200.24374Q455.3264 201.4 454.6545 202.25937Q453.8264 203.29062 452.4045 203.29062Q451.23264 203.29062 450.48264 202.63437Q449.74826 201.97812 449.6389 200.9ZM456.6389 198.91562Q456.6389 197.38437 456.9514 196.4625Q457.2639 195.525 457.87326 195.025Q458.49826 194.525 459.43576 194.525Q460.12326 194.525 460.6389 194.80624Q461.17014 195.0875 461.5139 195.61874Q461.85764 196.13437 462.04514 196.88437Q462.23264 197.63437 462.23264 198.91562Q462.23264 200.43124 461.92014 201.35312Q461.62326 202.275 460.99826 202.79062Q460.3889 203.29062 459.43576 203.29062Q458.2014 203.29062 457.48264 202.4Q456.6389 201.3375 456.6389 198.91562ZM457.717 198.91562Q457.717 201.025 458.217 201.72812Q458.717 202.43124 459.43576 202.43124Q460.17014 202.43124 460.6545 201.72812Q461.1545 201.025 461.1545 198.91562Q461.1545 196.79062 460.6545 196.10312Q460.17014 195.4 459.42014 195.4Q458.7014 195.4 458.2639 196.00937Q457.717 196.79062 457.717 198.91562ZM463.6389 198.91562Q463.6389 197.38437 463.9514 196.4625Q464.2639 195.525 464.87326 195.025Q465.49826 194.525 466.43576 194.525Q467.12326 194.525 467.6389 194.80624Q468.17014 195.0875 468.5139 195.61874Q468.85764 196.13437 469.04514 196.88437Q469.23264 197.63437 469.23264 198.91562Q469.23264 200.43124 468.92014 201.35312Q468.62326 202.275 467.99826 202.79062Q467.3889 203.29062 466.43576 203.29062Q465.2014 203.29062 464.48264 202.4Q463.6389 201.3375 463.6389 198.91562ZM464.717 198.91562Q464.717 201.025 465.217 201.72812Q465.717 202.43124 466.43576 202.43124Q467.17014 202.43124 467.6545 201.72812Q468.1545 201.025 468.1545 198.91562Q468.1545 196.79062 467.6545 196.10312Q467.17014 195.4 466.42014 195.4Q465.7014 195.4 465.2639 196.00937Q464.717 196.79062 464.717 198.91562ZM470.6389 198.91562Q470.6389 197.38437 470.9514 196.4625Q471.2639 195.525 471.87326 195.025Q472.49826 194.525 473.43576 194.525Q474.12326 194.525 474.6389 194.80624Q475.17014 195.0875 475.5139 195.61874Q475.85764 196.13437 476.04514 196.88437Q476.23264 197.63437 476.23264 198.91562Q476.23264 200.43124 475.92014 201.35312Q475.62326 202.275 474.99826 202.79062Q474.3889 203.29062 473.43576 203.29062Q472.2014 203.29062 471.48264 202.4Q470.6389 201.3375 470.6389 198.91562ZM471.717 198.91562Q471.717 201.025 472.217 201.72812Q472.717 202.43124 473.43576 202.43124Q474.17014 202.43124 474.6545 201.72812Q475.1545 201.025 475.1545 198.91562Q475.1545 196.79062 474.6545 196.10312Q474.17014 195.4 473.42014 195.4Q472.7014 195.4 472.2639 196.00937Q471.717 196.79062 471.717 198.91562ZM477.6389 198.91562Q477.6389 197.38437 477.9514 196.4625Q478.2639 195.525 478.87326 195.025Q479.49826 194.525 480.43576 194.525Q481.12326 194.525 481.6389 194.80624Q482.17014 195.0875 482.5139 195.61874Q482.85764 196.13437 483.04514 196.88437Q483.23264 197.63437 483.23264 198.91562Q483.23264 200.43124 482.92014 201.35312Q482.62326 202.275 481.99826 202.79062Q481.3889 203.29062 480.43576 203.29062Q479.2014 203.29062 478.48264 202.4Q477.6389 201.3375 477.6389 198.91562ZM478.717 198.91562Q478.717 201.025 479.217 201.72812Q479.717 202.43124 480.43576 202.43124Q481.17014 202.43124 481.6545 201.72812Q482.1545 201.025 482.1545 198.91562Q482.1545 196.79062 481.6545 196.10312Q481.17014 195.4 480.42014 195.4Q479.7014 195.4 479.2639 196.00937Q478.717 196.79062 478.717 198.91562Z" fill-rule="nonzero"/><path fill="#000000" d="M542.6156 196.66562L541.5687 196.74374Q541.4281 196.11874 541.1781 195.8375Q540.7406 195.38437 540.1156 195.38437Q539.6156 195.38437 539.225 195.66562Q538.7406 196.04062 538.4437 196.74374Q538.1625 197.43124 538.14685 198.7125Q538.52185 198.13437 539.0687 197.85312Q539.6312 197.57187 540.2406 197.57187Q541.2875 197.57187 542.02185 198.35312Q542.77185 199.13437 542.77185 200.35312Q542.77185 201.16562 542.4125 201.86874Q542.0687 202.55624 541.45935 202.93124Q540.85 203.29062 540.08435 203.29062Q538.7562 203.29062 537.9281 202.32187Q537.1 201.35312 537.1 199.13437Q537.1 196.63437 538.02185 195.50937Q538.8187 194.525 540.1781 194.525Q541.1937 194.525 541.83435 195.10312Q542.4906 195.66562 542.6156 196.66562ZM538.3187 200.36874Q538.3187 200.91562 538.5375 201.41562Q538.77185 201.9 539.1781 202.16562Q539.6 202.43124 540.0687 202.43124Q540.725 202.43124 541.20935 201.9Q541.6937 201.35312 541.6937 200.43124Q541.6937 199.54062 541.20935 199.025Q540.7406 198.50937 540.02185 198.50937Q539.3031 198.50937 538.8031 199.025Q538.3187 199.54062 538.3187 200.36874ZM544.14685 198.91562Q544.14685 197.38437 544.45935 196.4625Q544.77185 195.525 545.3812 195.025Q546.0062 194.525 546.9437 194.525Q547.6312 194.525 548.14685 194.80624Q548.6781 195.0875 549.02185 195.61874Q549.3656 196.13437 549.5531 196.88437Q549.7406 197.63437 549.7406 198.91562Q549.7406 200.43124 549.4281 201.35312Q549.1312 202.275 548.5062 202.79062Q547.89685 203.29062 546.9437 203.29062Q545.70935 203.29062 544.9906 202.4Q544.14685 201.3375 544.14685 198.91562ZM545.225 198.91562Q545.225 201.025 545.725 201.72812Q546.225 202.43124 546.9437 202.43124Q547.6781 202.43124 548.1625 201.72812Q548.6625 201.025 548.6625 198.91562Q548.6625 196.79062 548.1625 196.10312Q547.6781 195.4 546.9281 195.4Q546.20935 195.4 545.77185 196.00937Q545.225 196.79062 545.225 198.91562ZM551.14685 198.91562Q551.14685 197.38437 551.45935 196.4625Q551.77185 195.525 552.3812 195.025Q553.0062 194.525 553.9437 194.525Q554.6312 194.525 555.14685 194.80624Q555.6781 195.0875 556.02185 195.61874Q556.3656 196.13437 556.5531 196.88437Q556.7406 197.63437 556.7406 198.91562Q556.7406 200.43124 556.4281 201.35312Q556.1312 202.275 555.5062 202.79062Q554.89685 203.29062 553.9437 203.29062Q552.70935 203.29062 551.9906 202.4Q551.14685 201.3375 551.14685 198.91562ZM552.225 198.91562Q552.225 201.025 552.725 201.72812Q553.225 202.43124 553.9437 202.43124Q554.6781 202.43124 555.1625 201.72812Q555.6625 201.025 555.6625 198.91562Q555.6625 196.79062 555.1625 196.10312Q554.6781 195.4 553.9281 195.4Q553.20935 195.4 552.77185 196.00937Q552.225 196.79062 552.225 198.91562ZM558.14685 198.91562Q558.14685 197.38437 558.45935 196.4625Q558.77185 195.525 559.3812 195.025Q560.0062 194.525 560.9437 194.525Q561.6312 194.525 562.14685 194.80624Q562.6781 195.0875 563.02185 195.61874Q563.3656 196.13437 563.5531 196.88437Q563.7406 197.63437 563.7406 198.91562Q563.7406 200.43124 563.4281 201.35312Q563.1312 202.275 562.5062 202.79062Q561.89685 203.29062 560.9437 203.29062Q559.70935 203.29062 558.9906 202.4Q558.14685 201.3375 558.14685 198.91562ZM559.225 198.91562Q559.225 201.025 559.725 201.72812Q560.225 202.43124 560.9437 202.43124Q561.6781 202.43124 562.1625 201.72812Q562.6625 201.025 562.6625 198.91562Q562.6625 196.79062 562.1625 196.10312Q561.6781 195.4 560.9281 195.4Q560.20935 195.4 559.77185 196.00937Q559.225 196.79062 559.225 198.91562ZM565.14685 198.91562Q565.14685 197.38437 565.45935 196.4625Q565.77185 195.525 566.3812 195.025Q567.0062 194.525 567.9437 194.525Q568.6312 194.525 569.14685 194.80624Q569.6781 195.0875 570.02185 195.61874Q570.3656 196.13437 570.5531 196.88437Q570.7406 197.63437 570.7406 198.91562Q570.7406 200.43124 570.4281 201.35312Q570.1312 202.275 569.5062 202.79062Q568.89685 203.29062 567.9437 203.29062Q566.70935 203.29062 565.9906 202.4Q565.14685 201.3375 565.14685 198.91562ZM566.225 198.91562Q566.225 201.025 566.725 201.72812Q567.225 202.43124 567.9437 202.43124Q568.6781 202.43124 569.1625 201.72812Q569.6625 201.025 569.6625 198.91562Q569.6625 196.79062 569.1625 196.10312Q568.6781 195.4 567.9281 195.4Q567.20935 195.4 566.77185 196.00937Q566.225 196.79062 566.225 198.91562Z" fill-rule="nonzero"/><path fill="#757575" d="M12.396875 29.85L12.396875 15.5375L17.7875 15.5375Q19.225 15.5375 19.975 15.6625Q21.021875 15.85 21.740625 16.35Q22.459375 16.834375 22.88125 17.725Q23.31875 18.615625 23.31875 19.678125Q23.31875 21.50625 22.146875 22.771875Q20.990625 24.021875 17.959375 24.021875L14.2875 24.021875L14.2875 29.85L12.396875 29.85ZM14.2875 22.334375L17.990625 22.334375Q19.81875 22.334375 20.584375 21.6625Q21.365625 20.975 21.365625 19.725Q21.365625 18.834375 20.9125 18.19375Q20.459375 17.553125 19.725 17.35Q19.240625 17.225 17.94375 17.225L14.2875 17.225L14.2875 22.334375ZM31.94375 28.56875Q30.959375 29.396875 30.053125 29.740625Q29.146875 30.084375 28.115625 30.084375Q26.4125 30.084375 25.490625 29.25625Q24.56875 28.4125 24.56875 27.115625Q24.56875 26.35 24.9125 25.725Q25.271875 25.1 25.834375 24.725Q26.396875 24.334375 27.1 24.13125Q27.615625 24.00625 28.6625 23.865625Q30.7875 23.615625 31.7875 23.271875Q31.803125 22.9125 31.803125 22.803125Q31.803125 21.740625 31.303125 21.2875Q30.63125 20.69375 29.303125 20.69375Q28.053125 20.69375 27.459375 21.13125Q26.88125 21.56875 26.6 22.678125L24.88125 22.44375Q25.115625 21.334375 25.646875 20.6625Q26.178125 19.975 27.19375 19.615625Q28.209375 19.240625 29.553125 19.240625Q30.88125 19.240625 31.709375 19.553125Q32.5375 19.865625 32.928123 20.35Q33.31875 20.81875 33.475 21.5375Q33.56875 21.990625 33.56875 23.1625L33.56875 25.50625Q33.56875 27.959375 33.678123 28.615625Q33.7875 29.25625 34.13125 29.85L32.2875 29.85Q32.021873 29.303125 31.94375 28.56875ZM31.7875 24.646875Q30.834375 25.0375 28.9125 25.303125Q27.834375 25.459375 27.38125 25.6625Q26.94375 25.85 26.69375 26.225Q26.44375 26.6 26.44375 27.06875Q26.44375 27.771875 26.975 28.240625Q27.50625 28.709375 28.5375 28.709375Q29.553125 28.709375 30.334375 28.271875Q31.13125 27.81875 31.50625 27.053125Q31.7875 26.44375 31.7875 25.2875L31.7875 24.646875ZM36.146873 29.85L36.146873 19.475L37.725 19.475L37.725 21.053125Q38.334373 19.94375 38.85 19.6Q39.365623 19.240625 39.975 19.240625Q40.865623 19.240625 41.7875 19.803125L41.178123 21.44375Q40.5375 21.053125 39.896873 21.053125Q39.31875 21.053125 38.85 21.4125Q38.396873 21.75625 38.19375 22.365625Q37.9125 23.303125 37.9125 24.4125L37.9125 29.85L36.146873 29.85ZM47.00625 28.271875L47.25625 29.834375Q46.521873 29.990625 45.928123 29.990625Q44.975 29.990625 44.44375 29.69375Q43.928123 29.38125 43.709373 28.896875Q43.490623 28.396875 43.490623 26.81875L43.490623 20.85L42.209373 20.85L42.209373 19.475L43.490623 19.475L43.490623 16.9125L45.240623 15.85L45.240623 19.475L47.00625 19.475L47.00625 20.85L45.240623 20.85L45.240623 26.9125Q45.240623 27.6625 45.334373 27.88125Q45.428123 28.084375 45.63125 28.225Q45.85 28.35 46.240623 28.35Q46.521873 28.35 47.00625 28.271875ZM49.178123 17.553125L49.178123 15.5375L50.94375 15.5375L50.94375 17.553125L49.178123 17.553125ZM49.178123 29.85L49.178123 19.475L50.94375 19.475L50.94375 29.85L49.178123 29.85ZM59.94375 26.053125L61.6625 26.271875Q61.38125 28.06875 60.209373 29.084375Q59.053123 30.084375 57.35 30.084375Q55.225 30.084375 53.928123 28.69375Q52.63125 27.303125 52.63125 24.709375Q52.63125 23.021875 53.178123 21.771875Q53.740623 20.50625 54.88125 19.88125Q56.021873 19.240625 57.365623 19.240625Q59.053123 19.240625 60.115623 20.1Q61.19375 20.959375 61.50625 22.521875L59.7875 22.7875Q59.553123 21.740625 58.928123 21.225Q58.303123 20.69375 57.428123 20.69375Q56.1 20.69375 55.271873 21.646875Q54.44375 22.6 54.44375 24.646875Q54.44375 26.740625 55.240623 27.69375Q56.0375 28.63125 57.334373 28.63125Q58.365623 28.63125 59.053123 28.00625Q59.75625 27.365625 59.94375 26.053125ZM63.13125 29.85L63.13125 15.5375L64.88125 15.5375L64.88125 29.85L63.13125 29.85ZM74.27187 26.50625L76.08437 26.740625Q75.6625 28.31875 74.49062 29.209375Q73.33437 30.084375 71.52187 30.084375Q69.25625 30.084375 67.9125 28.69375Q66.58437 27.2875 66.58437 24.75625Q66.58437 22.13125 67.92812 20.69375Q69.27187 19.240625 71.42812 19.240625Q73.50625 19.240625 74.81875 20.6625Q76.14687 22.06875 76.14687 24.646875Q76.14687 24.803125 76.13125 25.115625L68.39687 25.115625Q68.49062 26.81875 69.36562 27.725Q70.24062 28.63125 71.5375 28.63125Q72.50625 28.63125 73.17812 28.13125Q73.86562 27.615625 74.27187 26.50625ZM68.49062 23.6625L74.2875 23.6625Q74.17812 22.365625 73.63125 21.709375Q72.7875 20.69375 71.44375 20.69375Q70.24062 20.69375 69.4125 21.50625Q68.58437 22.303125 68.49062 23.6625ZM77.45937 26.75625L79.20937 26.475Q79.35 27.521875 80.02187 28.084375Q80.69375 28.63125 81.89687 28.63125Q83.1 28.63125 83.67812 28.146875Q84.27187 27.646875 84.27187 26.990625Q84.27187 26.396875 83.75625 26.053125Q83.39687 25.81875 81.95937 25.459375Q80.02187 24.959375 79.27187 24.615625Q78.5375 24.25625 78.14687 23.63125Q77.75625 22.990625 77.75625 22.225Q77.75625 21.5375 78.06875 20.94375Q78.39687 20.35 78.94375 19.959375Q79.35 19.6625 80.05312 19.459375Q80.77187 19.240625 81.58437 19.240625Q82.80312 19.240625 83.725 19.6Q84.64687 19.94375 85.08437 20.553125Q85.52187 21.146875 85.69375 22.146875L83.975 22.38125Q83.85 21.584375 83.2875 21.146875Q82.725 20.69375 81.70937 20.69375Q80.49062 20.69375 79.975 21.1Q79.45937 21.490625 79.45937 22.021875Q79.45937 22.365625 79.67812 22.646875Q79.88125 22.928125 80.35 23.115625Q80.61562 23.209375 81.89687 23.553125Q83.77187 24.053125 84.50625 24.38125Q85.24062 24.69375 85.6625 25.303125Q86.08437 25.896875 86.08437 26.803125Q86.08437 27.678125 85.56875 28.459375Q85.05312 29.240625 84.08437 29.6625Q83.11562 30.084375 81.89687 30.084375Q79.88125 30.084375 78.81875 29.240625Q77.75625 28.396875 77.45937 26.75625ZM100.94375 28.56875Q99.95937 29.396875 99.05312 29.740625Q98.14687 30.084375 97.11562 30.084375Q95.4125 30.084375 94.49062 29.25625Q93.56875 28.4125 93.56875 27.115625Q93.56875 26.35 93.9125 25.725Q94.27187 25.1 94.83437 24.725Q95.39687 24.334375 96.1 24.13125Q96.61562 24.00625 97.6625 23.865625Q99.7875 23.615625 100.7875 23.271875Q100.80312 22.9125 100.80312 22.803125Q100.80312 21.740625 100.30312 21.2875Q99.63125 20.69375 98.30312 20.69375Q97.05312 20.69375 96.45937 21.13125Q95.88125 21.56875 95.6 22.678125L93.88125 22.44375Q94.11562 21.334375 94.64687 20.6625Q95.17812 19.975 96.19375 19.615625Q97.20937 19.240625 98.55312 19.240625Q99.88125 19.240625 100.70937 19.553125Q101.5375 19.865625 101.92812 20.35Q102.31875 20.81875 102.475 21.5375Q102.56875 21.990625 102.56875 23.1625L102.56875 25.50625Q102.56875 27.959375 102.67812 28.615625Q102.7875 29.25625 103.13125 29.85L101.2875 29.85Q101.02187 29.303125 100.94375 28.56875ZM100.7875 24.646875Q99.83437 25.0375 97.9125 25.303125Q96.83437 25.459375 96.38125 25.6625Q95.94375 25.85 95.69375 26.225Q95.44375 26.6 95.44375 27.06875Q95.44375 27.771875 95.975 28.240625Q96.50625 28.709375 97.5375 28.709375Q98.55312 28.709375 99.33437 28.271875Q100.13125 27.81875 100.50625 27.053125Q100.7875 26.44375 100.7875 25.2875L100.7875 24.646875ZM105.1625 29.85L105.1625 19.475L106.75625 19.475L106.75625 20.959375Q107.89687 19.240625 110.05312 19.240625Q110.99062 19.240625 111.77187 19.584375Q112.56875 19.9125 112.95937 20.459375Q113.35 21.00625 113.50625 21.75625Q113.6 22.25625 113.6 23.475L113.6 29.85L111.83437 29.85L111.83437 23.5375Q111.83437 22.459375 111.63125 21.928125Q111.42812 21.396875 110.89687 21.084375Q110.38125 20.771875 109.67812 20.771875Q108.55312 20.771875 107.74062 21.490625Q106.92812 22.19375 106.92812 24.178125L106.92812 29.85L105.1625 29.85ZM121.89687 29.85L121.89687 28.5375Q120.9125 30.084375 118.99062 30.084375Q117.75625 30.084375 116.70937 29.396875Q115.67812 28.709375 115.1 27.490625Q114.5375 26.271875 114.5375 24.678125Q114.5375 23.115625 115.05312 21.85Q115.56875 20.584375 116.6 19.9125Q117.64687 19.240625 118.9125 19.240625Q119.85 19.240625 120.58437 19.646875Q121.31875 20.0375 121.7875 20.6625L121.7875 15.5375L123.52187 15.5375L123.52187 29.85L121.89687 29.85ZM116.33437 24.678125Q116.33437 26.6625 117.17812 27.646875Q118.02187 28.63125 119.1625 28.63125Q120.31875 28.63125 121.11562 27.69375Q121.92812 26.75625 121.92812 24.81875Q121.92812 22.69375 121.1 21.69375Q120.2875 20.69375 119.08437 20.69375Q117.9125 20.69375 117.11562 21.6625Q116.33437 22.615625 116.33437 24.678125ZM136.0375 29.85L136.0375 17.225L131.31876 17.225L131.31876 15.5375L142.6625 15.5375L142.6625 17.225L137.92813 17.225L137.92813 29.85L136.0375 29.85Z" fill-rule="nonzero"/></svg>