<svg version="1.1" viewBox="0.0 0.0 600.0 371.0" fill="none" stroke="none" stroke-linecap="square" stroke-miterlimit="10" width="600" height="371" xmlns:xlink="http://www.w3.org/1999/xlink" xmlns="http://www.w3.org/2000/svg"><path fill="#ffffff" d="M0 0L600.0 0L600.0 371.0L0 371.0L0 0Z" fill-rule="nonzero"/><path stroke="#333333" stroke-width="1.0" stroke-linecap="butt" d="M45.5 300.5L581.5 300.5" fill-rule="nonzero"/><path stroke="#cccccc" stroke-width="1.0" stroke-linecap="butt" d="M45.5 250.5L581.5 250.5" fill-rule="nonzero"/><path stroke="#cccccc" stroke-width="1.0" stroke-linecap="butt" d="M45.5 201.5L581.5 201.5" fill-rule="nonzero"/><path stroke="#cccccc" stroke-width="1.0" stroke-linecap="butt" d="M45.5 151.5L581.5 151.5" fill-rule="nonzero"/><path stroke="#cccccc" stroke-width="1.0" stroke-linecap="butt" d="M45.5 101.5L581.5 101.5" fill-rule="nonzero"/><path stroke="#cccccc" stroke-width="1.0" stroke-linecap="butt" d="M45.5 51.5L581.5 51.5" fill-rule="nonzero"/><clipPath id="id_0"><path d="M45.55 51.916668L581.45 51.916668L581.45 300.45L45.55 300.45L45.55 51.916668Z" clip-rule="nonzero"/></clipPath><path stroke="#000000" stroke-width="2.0" stroke-linecap="butt" stroke-opacity="0.0" clip-path="url(#id_0)" d="M119.0 300.0L72.0 300.0L72.0 299.5C72.0 299.22385 72.223854 299.0 72.5 299.0L118.5 299.0C118.776146 299.0 119.0 299.22385 119.0 299.5Z" fill-rule="nonzero"/><path fill="#4285f4" clip-path="url(#id_0)" d="M119.0 300.0L72.0 300.0L72.0 299.5C72.0 299.22385 72.223854 299.0 72.5 299.0L118.5 299.0C118.776146 299.0 119.0 299.22385 119.0 299.5Z" fill-rule="nonzero"/><path stroke="#000000" stroke-width="2.0" stroke-linecap="butt" stroke-opacity="0.0" clip-path="url(#id_0)" d="M192.0 300.0L145.0 300.0L145.0 298.5C145.0 297.67157 145.67157 297.0 146.5 297.0L190.5 297.0C191.32843 297.0 192.0 297.67157 192.0 298.5Z" fill-rule="nonzero"/><path fill="#4285f4" clip-path="url(#id_0)" d="M192.0 300.0L145.0 300.0L145.0 298.5C145.0 297.67157 145.67157 297.0 146.5 297.0L190.5 297.0C191.32843 297.0 192.0 297.67157 192.0 298.5Z" fill-rule="nonzero"/><path stroke="#000000" stroke-width="2.0" stroke-linecap="butt" stroke-opacity="0.0" clip-path="url(#id_0)" d="M265.0 300.0L218.0 300.0L218.0 295.0C218.0 293.89542 218.89543 293.0 220.0 293.0L263.0 293.0C264.10458 293.0 265.0 293.89542 265.0 295.0Z" fill-rule="nonzero"/><path fill="#4285f4" clip-path="url(#id_0)" d="M265.0 300.0L218.0 300.0L218.0 295.0C218.0 293.89542 218.89543 293.0 220.0 293.0L263.0 293.0C264.10458 293.0 265.0 293.89542 265.0 295.0Z" fill-rule="nonzero"/><path stroke="#000000" stroke-width="2.0" stroke-linecap="butt" stroke-opacity="0.0" clip-path="url(#id_0)" d="M338.0 300.0L291.0 300.0L291.0 288.0C291.0 286.89542 291.89542 286.0 293.0 286.0L336.0 286.0C337.10458 286.0 338.0 286.89542 338.0 288.0Z" fill-rule="nonzero"/><path fill="#4285f4" clip-path="url(#id_0)" d="M338.0 300.0L291.0 300.0L291.0 288.0C291.0 286.89542 291.89542 286.0 293.0 286.0L336.0 286.0C337.10458 286.0 338.0 286.89542 338.0 288.0Z" fill-rule="nonzero"/><path stroke="#000000" stroke-width="2.0" stroke-linecap="butt" stroke-opacity="0.0" clip-path="url(#id_0)" d="M410.0 300.0L363.0 300.0L363.0 278.0C363.0 276.89542 363.89542 276.0 365.0 276.0L408.0 276.0C409.10458 276.0 410.0 276.89542 410.0 278.0Z" fill-rule="nonzero"/><path fill="#4285f4" clip-path="url(#id_0)" d="M410.0 300.0L363.0 300.0L363.0 278.0C363.0 276.89542 363.89542 276.0 365.0 276.0L408.0 276.0C409.10458 276.0 410.0 276.89542 410.0 278.0Z" fill-rule="nonzero"/><path stroke="#000000" stroke-width="2.0" stroke-linecap="butt" stroke-opacity="0.0" clip-path="url(#id_0)" d="M483.0 300.0L436.0 300.0L436.0 257.0C436.0 255.89543 436.89542 255.0 438.0 255.0L481.0 255.0C482.10458 255.0 483.0 255.89543 483.0 257.0Z" fill-rule="nonzero"/><path fill="#4285f4" clip-path="url(#id_0)" d="M483.0 300.0L436.0 300.0L436.0 257.0C436.0 255.89543 436.89542 255.0 438.0 255.0L481.0 255.0C482.10458 255.0 483.0 255.89543 483.0 257.0Z" fill-rule="nonzero"/><path stroke="#000000" stroke-width="2.0" stroke-linecap="butt" stroke-opacity="0.0" clip-path="url(#id_0)" d="M556.0 300.0L509.0 300.0L509.0 230.0C509.0 228.89543 509.89542 228.0 511.0 228.0L554.0 228.0C555.10455 228.0 556.0 228.89543 556.0 230.0Z" fill-rule="nonzero"/><path fill="#4285f4" clip-path="url(#id_0)" d="M556.0 300.0L509.0 300.0L509.0 230.0C509.0 228.89543 509.89542 228.0 511.0 228.0L554.0 228.0C555.10455 228.0 556.0 228.89543 556.0 230.0Z" fill-rule="nonzero"/><path stroke="#ea4335" stroke-width="2.0" stroke-linecap="butt" clip-path="url(#id_0)" d="M94.765305 69.254524L167.67686 82.51447L240.58844 88.90442L313.5 83.33328L386.41156 116.85596L459.32312 130.52351L532.2347 164.55188" fill-rule="nonzero"/><path fill="#000000" fill-opacity="0.0" clip-path="url(#id_0)" d="M97.765305 69.254524C97.765305 70.91138 96.42216 72.254524 94.765305 72.254524C93.10845 72.254524 91.765305 70.91138 91.765305 69.254524C91.765305 67.59767 93.10845 66.254524 94.765305 66.254524C96.42216 66.254524 97.765305 67.59767 97.765305 69.254524Z" fill-rule="nonzero"/><path fill="#000000" fill-opacity="0.0" clip-path="url(#id_0)" d="M170.67686 82.51447C170.67686 84.17133 169.33372 85.51447 167.67686 85.51447C166.02002 85.51447 164.67686 84.17133 164.67686 82.51447C164.67686 80.85762 166.02002 79.51447 167.67686 79.51447C169.33372 79.51447 170.67686 80.85762 170.67686 82.51447Z" fill-rule="nonzero"/><path fill="#000000" fill-opacity="0.0" clip-path="url(#id_0)" d="M243.58844 88.90442C243.58844 90.56128 242.24529 91.90442 240.58844 91.90442C238.93158 91.90442 237.58844 90.56128 237.58844 88.90442C237.58844 87.24757 238.93158 85.90442 240.58844 85.90442C242.24529 85.90442 243.58844 87.24757 243.58844 88.90442Z" fill-rule="nonzero"/><path fill="#000000" fill-opacity="0.0" clip-path="url(#id_0)" d="M316.5 83.33328C316.5 84.990135 315.15686 86.33328 313.5 86.33328C311.84314 86.33328 310.5 84.990135 310.5 83.33328C310.5 81.67643 311.84314 80.33328 313.5 80.33328C315.15686 80.33328 316.5 81.67643 316.5 83.33328Z" fill-rule="nonzero"/><path fill="#000000" fill-opacity="0.0" clip-path="url(#id_0)" d="M389.41156 116.85596C389.41156 118.51281 388.06842 119.85596 386.41156 119.85596C384.7547 119.85596 383.41156 118.51281 383.41156 116.85596C383.41156 115.1991 384.7547 113.85596 386.41156 113.85596C388.06842 113.85596 389.41156 115.1991 389.41156 116.85596Z" fill-rule="nonzero"/><path fill="#000000" fill-opacity="0.0" clip-path="url(#id_0)" d="M462.32312 130.52351C462.32312 132.18037 460.97998 133.52351 459.32312 133.52351C457.66626 133.52351 456.32312 132.18037 456.32312 130.52351C456.32312 128.86667 457.66626 127.52352 459.32312 127.52352C460.97998 127.52352 462.32312 128.86667 462.32312 130.52351Z" fill-rule="nonzero"/><path fill="#000000" fill-opacity="0.0" clip-path="url(#id_0)" d="M535.2347 164.55188C535.2347 166.20874 533.89154 167.55188 532.2347 167.55188C530.5778 167.55188 529.2347 166.20874 529.2347 164.55188C529.2347 162.89502 530.5778 161.55188 532.2347 161.55188C533.89154 161.55188 535.2347 162.89502 535.2347 164.55188Z" fill-rule="nonzero"/><path fill="#000000" d="M290.42188 349.45L290.42188 340.85626L293.67188 340.85626Q294.51562 340.85626 294.96875 340.9344Q295.60938 341.04376 296.03125 341.34064Q296.46875 341.6375 296.71875 342.16876Q296.98438 342.7 296.98438 343.34064Q296.98438 344.4344 296.28125 345.2Q295.59375 345.95 293.76562 345.95L291.5625 345.95L291.5625 349.45L290.42188 349.45ZM291.5625 344.95L293.78125 344.95Q294.89062 344.95 295.34375 344.54376Q295.8125 344.1219 295.8125 343.3719Q295.8125 342.84064 295.53125 342.46564Q295.26562 342.075 294.82812 341.95Q294.53125 341.8719 293.76562 341.8719L291.5625 341.8719L291.5625 344.95ZM302.35938 348.6844Q301.76562 349.1844 301.21875 349.3875Q300.6875 349.59064 300.0625 349.59064Q299.03125 349.59064 298.48438 349.09064Q297.9375 348.59064 297.9375 347.8094Q297.9375 347.35626 298.14062 346.98126Q298.34375 346.59064 298.6875 346.3719Q299.03125 346.1375 299.45312 346.02814Q299.75 345.9344 300.39062 345.85626Q301.65625 345.71564 302.26562 345.4969Q302.26562 345.27814 302.26562 345.23126Q302.26562 344.575 301.96875 344.3094Q301.5625 343.96564 300.76562 343.96564Q300.03125 343.96564 299.67188 344.23126Q299.3125 344.48126 299.14062 345.1375L298.10938 344.9969Q298.25 344.34064 298.57812 343.9344Q298.90625 343.52814 299.51562 343.3094Q300.125 343.09064 300.92188 343.09064Q301.71875 343.09064 302.21875 343.27814Q302.71875 343.46564 302.95312 343.7469Q303.1875 344.02814 303.28125 344.46564Q303.32812 344.73126 303.32812 345.4344L303.32812 346.84064Q303.32812 348.3094 303.39062 348.7Q303.46875 349.09064 303.67188 349.45L302.5625 349.45Q302.40625 349.1219 302.35938 348.6844ZM302.26562 346.325Q301.6875 346.5594 300.54688 346.73126Q299.89062 346.825 299.625 346.95Q299.35938 347.0594 299.20312 347.27814Q299.0625 347.4969 299.0625 347.77814Q299.0625 348.2 299.375 348.48126Q299.70312 348.7625 300.3125 348.7625Q300.92188 348.7625 301.39062 348.4969Q301.875 348.23126 302.09375 347.7625Q302.26562 347.40314 302.26562 346.71564L302.26562 346.325ZM305.28125 349.45L305.28125 343.23126L306.23438 343.23126L306.23438 344.16876Q306.59375 343.5125 306.89062 343.3094Q307.20312 343.09064 307.57812 343.09064Q308.10938 343.09064 308.65625 343.41876L308.29688 344.40314Q307.90625 344.16876 307.53125 344.16876Q307.17188 344.16876 306.89062 344.3875Q306.625 344.59064 306.51562 344.96564Q306.32812 345.52814 306.32812 346.1844L306.32812 349.45L305.28125 349.45ZM311.59375 348.5125L311.75 349.4344Q311.29688 349.52814 310.95312 349.52814Q310.375 349.52814 310.0625 349.35626Q309.75 349.16876 309.60938 348.8719Q309.48438 348.575 309.48438 347.6219L309.48438 344.04376L308.71875 344.04376L308.71875 343.23126L309.48438 343.23126L309.48438 341.6844L310.53125 341.0594L310.53125 343.23126L311.59375 343.23126L311.59375 344.04376L310.53125 344.04376L310.53125 347.6844Q310.53125 348.1375 310.57812 348.2625Q310.64062 348.3875 310.76562 348.46564Q310.89062 348.54376 311.125 348.54376Q311.3125 348.54376 311.59375 348.5125ZM312.29688 342.075L312.29688 340.85626L313.35938 340.85626L313.35938 342.075L312.29688 342.075ZM312.29688 349.45L312.29688 343.23126L313.35938 343.23126L313.35938 349.45L312.29688 349.45ZM319.35938 347.16876L320.39062 347.3094Q320.21875 348.3719 319.51562 348.98126Q318.8125 349.59064 317.79688 349.59064Q316.51562 349.59064 315.73438 348.7625Q314.96875 347.91876 314.96875 346.35626Q314.96875 345.35626 315.29688 344.60626Q315.64062 343.84064 316.3125 343.46564Q317.0 343.09064 317.8125 343.09064Q318.8125 343.09064 319.45312 343.60626Q320.10938 344.10626 320.29688 345.0594L319.26562 345.21564Q319.125 344.59064 318.75 344.27814Q318.375 343.95 317.84375 343.95Q317.04688 343.95 316.54688 344.52814Q316.04688 345.09064 316.04688 346.325Q316.04688 347.59064 316.53125 348.15314Q317.01562 348.71564 317.78125 348.71564Q318.40625 348.71564 318.8125 348.34064Q319.23438 347.96564 319.35938 347.16876ZM321.26562 349.45L321.26562 340.85626L322.32812 340.85626L322.32812 349.45L321.26562 349.45ZM328.54688 347.45L329.64062 347.575Q329.39062 348.52814 328.6875 349.0594Q327.98438 349.59064 326.90625 349.59064Q325.54688 349.59064 324.73438 348.7469Q323.9375 347.90314 323.9375 346.3875Q323.9375 344.825 324.75 343.96564Q325.5625 343.09064 326.84375 343.09064Q328.09375 343.09064 328.875 343.9344Q329.67188 344.77814 329.67188 346.325Q329.67188 346.41876 329.67188 346.60626L325.03125 346.60626Q325.09375 347.6375 325.60938 348.1844Q326.125 348.71564 326.90625 348.71564Q327.48438 348.71564 327.89062 348.41876Q328.3125 348.10626 328.54688 347.45ZM325.09375 345.7469L328.5625 345.7469Q328.5 344.95 328.17188 344.5594Q327.65625 343.95 326.85938 343.95Q326.125 343.95 325.625 344.4344Q325.14062 344.91876 325.09375 345.7469ZM330.875 347.59064L331.90625 347.4344Q332.0 348.0594 332.39062 348.3875Q332.79688 348.71564 333.53125 348.71564Q334.25 348.71564 334.59375 348.4344Q334.95312 348.1375 334.95312 347.73126Q334.95312 347.3719 334.64062 347.16876Q334.42188 347.02814 333.5625 346.8094Q332.40625 346.5125 331.95312 346.3094Q331.51562 346.09064 331.28125 345.71564Q331.04688 345.34064 331.04688 344.8719Q331.04688 344.46564 331.23438 344.10626Q331.42188 343.7469 331.75 343.5125Q332.0 343.34064 332.42188 343.21564Q332.84375 343.09064 333.34375 343.09064Q334.0625 343.09064 334.60938 343.3094Q335.17188 343.5125 335.4375 343.8719Q335.70312 344.23126 335.79688 344.825L334.76562 344.96564Q334.70312 344.4969 334.35938 344.23126Q334.03125 343.95 333.40625 343.95Q332.6875 343.95 332.375 344.2Q332.0625 344.4344 332.0625 344.7625Q332.0625 344.96564 332.1875 345.1219Q332.32812 345.29376 332.59375 345.40314Q332.75 345.46564 333.53125 345.66876Q334.65625 345.98126 335.09375 346.16876Q335.53125 346.35626 335.78125 346.71564Q336.03125 347.075 336.03125 347.6219Q336.03125 348.15314 335.71875 348.6219Q335.42188 349.075 334.84375 349.34064Q334.26562 349.59064 333.53125 349.59064Q332.3125 349.59064 331.67188 349.09064Q331.04688 348.575 330.875 347.59064Z" fill-rule="nonzero"/><path fill="#000000" d="M33.05 300.21564Q33.05 298.6844 33.3625 297.7625Q33.675 296.825 34.284374 296.325Q34.909374 295.825 35.846874 295.825Q36.534374 295.825 37.05 296.10626Q37.58125 296.3875 37.925 296.91876Q38.26875 297.4344 38.45625 298.1844Q38.64375 298.9344 38.64375 300.21564Q38.64375 301.73126 38.33125 302.65314Q38.034374 303.575 37.409374 304.09064Q36.8 304.59064 35.846874 304.59064Q34.6125 304.59064 33.89375 303.7Q33.05 302.6375 33.05 300.21564ZM34.128124 300.21564Q34.128124 302.325 34.628124 303.02814Q35.128124 303.73126 35.846874 303.73126Q36.58125 303.73126 37.065624 303.02814Q37.565624 302.325 37.565624 300.21564Q37.565624 298.09064 37.065624 297.40314Q36.58125 296.7 35.83125 296.7Q35.1125 296.7 34.675 297.3094Q34.128124 298.09064 34.128124 300.21564Z" fill-rule="nonzero"/><path fill="#000000" d="M30.01875 254.74333L28.971874 254.74333L28.971874 248.02458Q28.58125 248.38396 27.95625 248.75896Q27.346874 249.11833 26.8625 249.2902L26.8625 248.27458Q27.7375 247.8527 28.39375 247.27458Q29.065624 246.68083 29.346874 246.11833L30.01875 246.11833L30.01875 254.74333ZM33.05 250.50896Q33.05 248.9777 33.3625 248.05583Q33.675 247.11833 34.284374 246.61833Q34.909374 246.11833 35.846874 246.11833Q36.534374 246.11833 37.05 246.39958Q37.58125 246.68083 37.925 247.21208Q38.26875 247.7277 38.45625 248.4777Q38.64375 249.2277 38.64375 250.50896Q38.64375 252.02458 38.33125 252.94646Q38.034374 253.86833 37.409374 254.38396Q36.8 254.88396 35.846874 254.88396Q34.6125 254.88396 33.89375 253.99333Q33.05 252.93083 33.05 250.50896ZM34.128124 250.50896Q34.128124 252.61833 34.628124 253.32146Q35.128124 254.02458 35.846874 254.02458Q36.58125 254.02458 37.065624 253.32146Q37.565624 252.61833 37.565624 250.50896Q37.565624 248.38396 37.065624 247.69646Q36.58125 246.99333 35.83125 246.99333Q35.1125 246.99333 34.675 247.6027Q34.128124 248.38396 34.128124 250.50896Z" fill-rule="nonzero"/><path fill="#000000" d="M31.596874 204.02104L31.596874 205.03667L25.909374 205.03667Q25.909374 204.66167 26.034374 204.30229Q26.253124 203.72417 26.721874 203.16167Q27.20625 202.59917 28.1125 201.86479Q29.51875 200.70854 30.003124 200.03667Q30.503124 199.36479 30.503124 198.77104Q30.503124 198.14604 30.05 197.72417Q29.596874 197.28667 28.878124 197.28667Q28.1125 197.28667 27.659374 197.73979Q27.20625 198.19292 27.190624 199.00542L26.1125 198.89604Q26.221874 197.67729 26.940624 197.05229Q27.675 196.41167 28.909374 196.41167Q30.14375 196.41167 30.8625 197.09917Q31.58125 197.78667 31.58125 198.80229Q31.58125 199.31792 31.3625 199.81792Q31.159374 200.30229 30.659374 200.86479Q30.175 201.41167 29.05 202.36479Q28.096874 203.16167 27.815624 203.45854Q27.55 203.73979 27.378124 204.02104L31.596874 204.02104ZM33.05 200.80229Q33.05 199.27104 33.3625 198.34917Q33.675 197.41167 34.284374 196.91167Q34.909374 196.41167 35.846874 196.41167Q36.534374 196.41167 37.05 196.69292Q37.58125 196.97417 37.925 197.50542Q38.26875 198.02104 38.45625 198.77104Q38.64375 199.52104 38.64375 200.80229Q38.64375 202.31792 38.33125 203.23979Q38.034374 204.16167 37.409374 204.67729Q36.8 205.17729 35.846874 205.17729Q34.6125 205.17729 33.89375 204.28667Q33.05 203.22417 33.05 200.80229ZM34.128124 200.80229Q34.128124 202.91167 34.628124 203.61479Q35.128124 204.31792 35.846874 204.31792Q36.58125 204.31792 37.065624 203.61479Q37.565624 202.91167 37.565624 200.80229Q37.565624 198.67729 37.065624 197.98979Q36.58125 197.28667 35.83125 197.28667Q35.1125 197.28667 34.675 197.89604Q34.128124 198.67729 34.128124 200.80229Z" fill-rule="nonzero"/><path fill="#000000" d="M26.05 153.06438L27.1125 152.92375Q27.284374 153.81438 27.721874 154.22063Q28.159374 154.61125 28.784374 154.61125Q29.534374 154.61125 30.05 154.09563Q30.565624 153.58 30.565624 152.81438Q30.565624 152.09563 30.08125 151.62688Q29.6125 151.1425 28.878124 151.1425Q28.58125 151.1425 28.128124 151.2675L28.253124 150.33Q28.3625 150.34563 28.425 150.34563Q29.096874 150.34563 29.628124 150.00188Q30.175 149.6425 30.175 148.90813Q30.175 148.33 29.784374 147.955Q29.39375 147.56438 28.76875 147.56438Q28.159374 147.56438 27.7375 147.955Q27.33125 148.34563 27.221874 149.11125L26.159374 148.92375Q26.346874 147.87688 27.034374 147.29875Q27.721874 146.705 28.7375 146.705Q29.440624 146.705 30.034374 147.0175Q30.628124 147.31438 30.940624 147.83Q31.253124 148.34563 31.253124 148.93938Q31.253124 149.48625 30.95625 149.955Q30.659374 150.40813 30.08125 150.67375Q30.83125 150.84563 31.253124 151.40813Q31.675 151.955 31.675 152.79875Q31.675 153.92375 30.846874 154.705Q30.034374 155.48625 28.784374 155.48625Q27.659374 155.48625 26.909374 154.81438Q26.159374 154.12688 26.05 153.06438ZM33.05 151.09563Q33.05 149.56438 33.3625 148.6425Q33.675 147.705 34.284374 147.205Q34.909374 146.705 35.846874 146.705Q36.534374 146.705 37.05 146.98625Q37.58125 147.2675 37.925 147.79875Q38.26875 148.31438 38.45625 149.06438Q38.64375 149.81438 38.64375 151.09563Q38.64375 152.61125 38.33125 153.53313Q38.034374 154.455 37.409374 154.97063Q36.8 155.47063 35.846874 155.47063Q34.6125 155.47063 33.89375 154.58Q33.05 153.5175 33.05 151.09563ZM34.128124 151.09563Q34.128124 153.205 34.628124 153.90813Q35.128124 154.61125 35.846874 154.61125Q36.58125 154.61125 37.065624 153.90813Q37.565624 153.205 37.565624 151.09563Q37.565624 148.97063 37.065624 148.28313Q36.58125 147.58 35.83125 147.58Q35.1125 147.58 34.675 148.18938Q34.128124 148.97063 34.128124 151.09563Z" fill-rule="nonzero"/><path fill="#000000" d="M29.425 105.62334L29.425 103.56084L25.70625 103.56084L25.70625 102.59209L29.628124 97.02959L30.4875 97.02959L30.4875 102.59209L31.64375 102.59209L31.64375 103.56084L30.4875 103.56084L30.4875 105.62334L29.425 105.62334ZM29.425 102.59209L29.425 98.73271L26.7375 102.59209L29.425 102.59209ZM33.05 101.38896Q33.05 99.85771 33.3625 98.93584Q33.675 97.99834 34.284374 97.49834Q34.909374 96.99834 35.846874 96.99834Q36.534374 96.99834 37.05 97.27959Q37.58125 97.56084 37.925 98.09209Q38.26875 98.60771 38.45625 99.35771Q38.64375 100.10771 38.64375 101.38896Q38.64375 102.90459 38.33125 103.82646Q38.034374 104.74834 37.409374 105.26396Q36.8 105.76396 35.846874 105.76396Q34.6125 105.76396 33.89375 104.87334Q33.05 103.81084 33.05 101.38896ZM34.128124 101.38896Q34.128124 103.49834 34.628124 104.20146Q35.128124 104.90459 35.846874 104.90459Q36.58125 104.90459 37.065624 104.20146Q37.565624 103.49834 37.565624 101.38896Q37.565624 99.26396 37.065624 98.57646Q36.58125 97.87334 35.83125 97.87334Q35.1125 97.87334 34.675 98.48271Q34.128124 99.26396 34.128124 101.38896Z" fill-rule="nonzero"/><path fill="#000000" d="M26.05 53.666668L27.159374 53.572918Q27.284374 54.385418 27.721874 54.791668Q28.175 55.197918 28.815624 55.197918Q29.565624 55.197918 30.096874 54.619793Q30.628124 54.041668 30.628124 53.104168Q30.628124 52.197918 30.1125 51.682293Q29.6125 51.151043 28.784374 51.151043Q28.284374 51.151043 27.8625 51.385418Q27.45625 51.619793 27.221874 51.979168L26.2375 51.854168L27.065624 47.447918L31.346874 47.447918L31.346874 48.447918L27.909374 48.447918L27.45625 50.760418Q28.221874 50.213543 29.065624 50.213543Q30.190624 50.213543 30.95625 50.994793Q31.7375 51.776043 31.7375 53.010418Q31.7375 54.166668 31.065624 55.026043Q30.2375 56.057293 28.815624 56.057293Q27.64375 56.057293 26.89375 55.401043Q26.159374 54.744793 26.05 53.666668ZM33.05 51.682293Q33.05 50.151043 33.3625 49.229168Q33.675 48.291668 34.284374 47.791668Q34.909374 47.291668 35.846874 47.291668Q36.534374 47.291668 37.05 47.572918Q37.58125 47.854168 37.925 48.385418Q38.26875 48.901043 38.45625 49.651043Q38.64375 50.401043 38.64375 51.682293Q38.64375 53.197918 38.33125 54.119793Q38.034374 55.041668 37.409374 55.557293Q36.8 56.057293 35.846874 56.057293Q34.6125 56.057293 33.89375 55.166668Q33.05 54.104168 33.05 51.682293ZM34.128124 51.682293Q34.128124 53.791668 34.628124 54.494793Q35.128124 55.197918 35.846874 55.197918Q36.58125 55.197918 37.065624 54.494793Q37.565624 53.791668 37.565624 51.682293Q37.565624 49.557293 37.065624 48.869793Q36.58125 48.166668 35.83125 48.166668Q35.1125 48.166668 34.675 48.776043Q34.128124 49.557293 34.128124 51.682293Z" fill-rule="nonzero"/><path fill="#000000" d="M85.234055 317.45L84.18718 317.45L84.18718 310.73126Q83.796555 311.09064 83.171555 311.46564Q82.56218 311.825 82.077805 311.9969L82.077805 310.98126Q82.952805 310.5594 83.609055 309.98126Q84.28093 309.3875 84.56218 308.825L85.234055 308.825L85.234055 317.45ZM88.265305 313.21564Q88.265305 311.6844 88.577805 310.7625Q88.890305 309.825 89.49968 309.325Q90.12468 308.825 91.06218 308.825Q91.74968 308.825 92.265305 309.10626Q92.796555 309.3875 93.140305 309.91876Q93.484055 310.4344 93.671555 311.1844Q93.859055 311.9344 93.859055 313.21564Q93.859055 314.73126 93.546555 315.65314Q93.24968 316.575 92.62468 317.09064Q92.015305 317.59064 91.06218 317.59064Q89.827805 317.59064 89.109055 316.7Q88.265305 315.6375 88.265305 313.21564ZM89.34343 313.21564Q89.34343 315.325 89.84343 316.02814Q90.34343 316.73126 91.06218 316.73126Q91.796555 316.73126 92.28093 316.02814Q92.78093 315.325 92.78093 313.21564Q92.78093 311.09064 92.28093 310.40314Q91.796555 309.7 91.046555 309.7Q90.327805 309.7 89.890305 310.3094Q89.34343 311.09064 89.34343 313.21564ZM95.265305 313.21564Q95.265305 311.6844 95.577805 310.7625Q95.890305 309.825 96.49968 309.325Q97.12468 308.825 98.06218 308.825Q98.74968 308.825 99.265305 309.10626Q99.796555 309.3875 100.140305 309.91876Q100.484055 310.4344 100.671555 311.1844Q100.859055 311.9344 100.859055 313.21564Q100.859055 314.73126 100.546555 315.65314Q100.24968 316.575 99.62468 317.09064Q99.015305 317.59064 98.06218 317.59064Q96.827805 317.59064 96.109055 316.7Q95.265305 315.6375 95.265305 313.21564ZM96.34343 313.21564Q96.34343 315.325 96.84343 316.02814Q97.34343 316.73126 98.06218 316.73126Q98.796555 316.73126 99.28093 316.02814Q99.78093 315.325 99.78093 313.21564Q99.78093 311.09064 99.28093 310.40314Q98.796555 309.7 98.046555 309.7Q97.327805 309.7 96.890305 310.3094Q96.34343 311.09064 96.34343 313.21564ZM102.265305 313.21564Q102.265305 311.6844 102.577805 310.7625Q102.890305 309.825 103.49968 309.325Q104.12468 308.825 105.06218 308.825Q105.74968 308.825 106.265305 309.10626Q106.796555 309.3875 107.140305 309.91876Q107.484055 310.4344 107.671555 311.1844Q107.859055 311.9344 107.859055 313.21564Q107.859055 314.73126 107.546555 315.65314Q107.24968 316.575 106.62468 317.09064Q106.015305 317.59064 105.06218 317.59064Q103.827805 317.59064 103.109055 316.7Q102.265305 315.6375 102.265305 313.21564ZM103.34343 313.21564Q103.34343 315.325 103.84343 316.02814Q104.34343 316.73126 105.06218 316.73126Q105.796555 316.73126 106.28093 316.02814Q106.78093 315.325 106.78093 313.21564Q106.78093 311.09064 106.28093 310.40314Q105.796555 309.7 105.046555 309.7Q104.327805 309.7 103.890305 310.3094Q103.34343 311.09064 103.34343 313.21564Z" fill-rule="nonzero"/><path fill="#000000" d="M159.72374 316.4344L159.72374 317.45L154.03624 317.45Q154.03624 317.075 154.16124 316.71564Q154.37999 316.1375 154.84874 315.575Q155.33311 315.0125 156.23936 314.27814Q157.64561 313.1219 158.12999 312.45Q158.62999 311.77814 158.62999 311.1844Q158.62999 310.5594 158.17686 310.1375Q157.72374 309.7 157.00499 309.7Q156.23936 309.7 155.78624 310.15314Q155.33311 310.60626 155.31749 311.41876L154.23936 311.3094Q154.34874 310.09064 155.06749 309.46564Q155.80186 308.825 157.03624 308.825Q158.27061 308.825 158.98936 309.5125Q159.70811 310.2 159.70811 311.21564Q159.70811 311.73126 159.48936 312.23126Q159.28624 312.71564 158.78624 313.27814Q158.30186 313.825 157.17686 314.77814Q156.22374 315.575 155.94249 315.8719Q155.67686 316.15314 155.50499 316.4344L159.72374 316.4344ZM161.17686 313.21564Q161.17686 311.6844 161.48936 310.7625Q161.80186 309.825 162.41124 309.325Q163.03624 308.825 163.97374 308.825Q164.66124 308.825 165.17686 309.10626Q165.70811 309.3875 166.05186 309.91876Q166.39561 310.4344 166.58311 311.1844Q166.77061 311.9344 166.77061 313.21564Q166.77061 314.73126 166.45811 315.65314Q166.16124 316.575 165.53624 317.09064Q164.92686 317.59064 163.97374 317.59064Q162.73936 317.59064 162.02061 316.7Q161.17686 315.6375 161.17686 313.21564ZM162.25499 313.21564Q162.25499 315.325 162.75499 316.02814Q163.25499 316.73126 163.97374 316.73126Q164.70811 316.73126 165.19249 316.02814Q165.69249 315.325 165.69249 313.21564Q165.69249 311.09064 165.19249 310.40314Q164.70811 309.7 163.95811 309.7Q163.23936 309.7 162.80186 310.3094Q162.25499 311.09064 162.25499 313.21564ZM168.17686 313.21564Q168.17686 311.6844 168.48936 310.7625Q168.80186 309.825 169.41124 309.325Q170.03624 308.825 170.97374 308.825Q171.66124 308.825 172.17686 309.10626Q172.70811 309.3875 173.05186 309.91876Q173.39561 310.4344 173.58311 311.1844Q173.77061 311.9344 173.77061 313.21564Q173.77061 314.73126 173.45811 315.65314Q173.16124 316.575 172.53624 317.09064Q171.92686 317.59064 170.97374 317.59064Q169.73936 317.59064 169.02061 316.7Q168.17686 315.6375 168.17686 313.21564ZM169.25499 313.21564Q169.25499 315.325 169.75499 316.02814Q170.25499 316.73126 170.97374 316.73126Q171.70811 316.73126 172.19249 316.02814Q172.69249 315.325 172.69249 313.21564Q172.69249 311.09064 172.19249 310.40314Q171.70811 309.7 170.95811 309.7Q170.23936 309.7 169.80186 310.3094Q169.25499 311.09064 169.25499 313.21564ZM175.17686 313.21564Q175.17686 311.6844 175.48936 310.7625Q175.80186 309.825 176.41124 309.325Q177.03624 308.825 177.97374 308.825Q178.66124 308.825 179.17686 309.10626Q179.70811 309.3875 180.05186 309.91876Q180.39561 310.4344 180.58311 311.1844Q180.77061 311.9344 180.77061 313.21564Q180.77061 314.73126 180.45811 315.65314Q180.16124 316.575 179.53624 317.09064Q178.92686 317.59064 177.97374 317.59064Q176.73936 317.59064 176.02061 316.7Q175.17686 315.6375 175.17686 313.21564ZM176.25499 313.21564Q176.25499 315.325 176.75499 316.02814Q177.25499 316.73126 177.97374 316.73126Q178.70811 316.73126 179.19249 316.02814Q179.69249 315.325 179.69249 313.21564Q179.69249 311.09064 179.19249 310.40314Q178.70811 309.7 177.95811 309.7Q177.23936 309.7 176.80186 310.3094Q176.25499 311.09064 176.25499 313.21564Z" fill-rule="nonzero"/><path fill="#000000" d="M230.46344 317.45L230.46344 315.3875L226.74469 315.3875L226.74469 314.41876L230.66656 308.85626L231.52594 308.85626L231.52594 314.41876L232.68219 314.41876L232.68219 315.3875L231.52594 315.3875L231.52594 317.45L230.46344 317.45ZM230.46344 314.41876L230.46344 310.5594L227.77594 314.41876L230.46344 314.41876ZM234.08844 313.21564Q234.08844 311.6844 234.40094 310.7625Q234.71344 309.825 235.32281 309.325Q235.94781 308.825 236.88531 308.825Q237.57281 308.825 238.08844 309.10626Q238.61969 309.3875 238.96344 309.91876Q239.30719 310.4344 239.49469 311.1844Q239.68219 311.9344 239.68219 313.21564Q239.68219 314.73126 239.36969 315.65314Q239.07281 316.575 238.44781 317.09064Q237.83844 317.59064 236.88531 317.59064Q235.65094 317.59064 234.93219 316.7Q234.08844 315.6375 234.08844 313.21564ZM235.16656 313.21564Q235.16656 315.325 235.66656 316.02814Q236.16656 316.73126 236.88531 316.73126Q237.61969 316.73126 238.10406 316.02814Q238.60406 315.325 238.60406 313.21564Q238.60406 311.09064 238.10406 310.40314Q237.61969 309.7 236.86969 309.7Q236.15094 309.7 235.71344 310.3094Q235.16656 311.09064 235.16656 313.21564ZM241.08844 313.21564Q241.08844 311.6844 241.40094 310.7625Q241.71344 309.825 242.32281 309.325Q242.94781 308.825 243.88531 308.825Q244.57281 308.825 245.08844 309.10626Q245.61969 309.3875 245.96344 309.91876Q246.30719 310.4344 246.49469 311.1844Q246.68219 311.9344 246.68219 313.21564Q246.68219 314.73126 246.36969 315.65314Q246.07281 316.575 245.44781 317.09064Q244.83844 317.59064 243.88531 317.59064Q242.65094 317.59064 241.93219 316.7Q241.08844 315.6375 241.08844 313.21564ZM242.16656 313.21564Q242.16656 315.325 242.66656 316.02814Q243.16656 316.73126 243.88531 316.73126Q244.61969 316.73126 245.10406 316.02814Q245.60406 315.325 245.60406 313.21564Q245.60406 311.09064 245.10406 310.40314Q244.61969 309.7 243.86969 309.7Q243.15094 309.7 242.71344 310.3094Q242.16656 311.09064 242.16656 313.21564ZM248.08844 313.21564Q248.08844 311.6844 248.40094 310.7625Q248.71344 309.825 249.32281 309.325Q249.94781 308.825 250.88531 308.825Q251.57281 308.825 252.08844 309.10626Q252.61969 309.3875 252.96344 309.91876Q253.30719 310.4344 253.49469 311.1844Q253.68219 311.9344 253.68219 313.21564Q253.68219 314.73126 253.36969 315.65314Q253.07281 316.575 252.44781 317.09064Q251.83844 317.59064 250.88531 317.59064Q249.65094 317.59064 248.93219 316.7Q248.08844 315.6375 248.08844 313.21564ZM249.16656 313.21564Q249.16656 315.325 249.66656 316.02814Q250.16656 316.73126 250.88531 316.73126Q251.61969 316.73126 252.10406 316.02814Q252.60406 315.325 252.60406 313.21564Q252.60406 311.09064 252.10406 310.40314Q251.61969 309.7 250.86969 309.7Q250.15094 309.7 249.71344 310.3094Q249.16656 311.09064 249.16656 313.21564Z" fill-rule="nonzero"/><path fill="#000000" d="M301.625 312.79376Q300.96875 312.54376 300.64062 312.10626Q300.32812 311.65314 300.32812 311.04376Q300.32812 310.10626 301.0 309.46564Q301.6875 308.825 302.79688 308.825Q303.92188 308.825 304.60938 309.48126Q305.29688 310.1375 305.29688 311.075Q305.29688 311.66876 304.98438 312.10626Q304.67188 312.54376 304.03125 312.79376Q304.82812 313.04376 305.23438 313.6219Q305.64062 314.2 305.64062 314.9969Q305.64062 316.09064 304.85938 316.84064Q304.09375 317.59064 302.8125 317.59064Q301.54688 317.59064 300.76562 316.84064Q299.98438 316.09064 299.98438 314.96564Q299.98438 314.1219 300.40625 313.5594Q300.84375 312.9969 301.625 312.79376ZM301.40625 310.9969Q301.40625 311.60626 301.79688 311.9969Q302.20312 312.3875 302.82812 312.3875Q303.4375 312.3875 303.82812 312.0125Q304.21875 311.6219 304.21875 311.0594Q304.21875 310.48126 303.8125 310.09064Q303.40625 309.6844 302.8125 309.6844Q302.20312 309.6844 301.79688 310.075Q301.40625 310.46564 301.40625 310.9969ZM301.07812 314.96564Q301.07812 315.41876 301.28125 315.84064Q301.5 316.2625 301.92188 316.4969Q302.34375 316.73126 302.82812 316.73126Q303.57812 316.73126 304.0625 316.2469Q304.5625 315.7625 304.5625 315.0125Q304.5625 314.2469 304.0625 313.7469Q303.5625 313.2469 302.79688 313.2469Q302.04688 313.2469 301.5625 313.7469Q301.07812 314.23126 301.07812 314.96564ZM307.0 313.21564Q307.0 311.6844 307.3125 310.7625Q307.625 309.825 308.23438 309.325Q308.85938 308.825 309.79688 308.825Q310.48438 308.825 311.0 309.10626Q311.53125 309.3875 311.875 309.91876Q312.21875 310.4344 312.40625 311.1844Q312.59375 311.9344 312.59375 313.21564Q312.59375 314.73126 312.28125 315.65314Q311.98438 316.575 311.35938 317.09064Q310.75 317.59064 309.79688 317.59064Q308.5625 317.59064 307.84375 316.7Q307.0 315.6375 307.0 313.21564ZM308.07812 313.21564Q308.07812 315.325 308.57812 316.02814Q309.07812 316.73126 309.79688 316.73126Q310.53125 316.73126 311.01562 316.02814Q311.51562 315.325 311.51562 313.21564Q311.51562 311.09064 311.01562 310.40314Q310.53125 309.7 309.78125 309.7Q309.0625 309.7 308.625 310.3094Q308.07812 311.09064 308.07812 313.21564ZM314.0 313.21564Q314.0 311.6844 314.3125 310.7625Q314.625 309.825 315.23438 309.325Q315.85938 308.825 316.79688 308.825Q317.48438 308.825 318.0 309.10626Q318.53125 309.3875 318.875 309.91876Q319.21875 310.4344 319.40625 311.1844Q319.59375 311.9344 319.59375 313.21564Q319.59375 314.73126 319.28125 315.65314Q318.98438 316.575 318.35938 317.09064Q317.75 317.59064 316.79688 317.59064Q315.5625 317.59064 314.84375 316.7Q314.0 315.6375 314.0 313.21564ZM315.07812 313.21564Q315.07812 315.325 315.57812 316.02814Q316.07812 316.73126 316.79688 316.73126Q317.53125 316.73126 318.01562 316.02814Q318.51562 315.325 318.51562 313.21564Q318.51562 311.09064 318.01562 310.40314Q317.53125 309.7 316.78125 309.7Q316.0625 309.7 315.625 310.3094Q315.07812 311.09064 315.07812 313.21564ZM321.0 313.21564Q321.0 311.6844 321.3125 310.7625Q321.625 309.825 322.23438 309.325Q322.85938 308.825 323.79688 308.825Q324.48438 308.825 325.0 309.10626Q325.53125 309.3875 325.875 309.91876Q326.21875 310.4344 326.40625 311.1844Q326.59375 311.9344 326.59375 313.21564Q326.59375 314.73126 326.28125 315.65314Q325.98438 316.575 325.35938 317.09064Q324.75 317.59064 323.79688 317.59064Q322.5625 317.59064 321.84375 316.7Q321.0 315.6375 321.0 313.21564ZM322.07812 313.21564Q322.07812 315.325 322.57812 316.02814Q323.07812 316.73126 323.79688 316.73126Q324.53125 316.73126 325.01562 316.02814Q325.51562 315.325 325.51562 313.21564Q325.51562 311.09064 325.01562 310.40314Q324.53125 309.7 323.78125 309.7Q323.0625 309.7 322.625 310.3094Q322.07812 311.09064 322.07812 313.21564Z" fill-rule="nonzero"/><path fill="#000000" d="M373.3803 317.45L372.33344 317.45L372.33344 310.73126Q371.9428 311.09064 371.3178 311.46564Q370.70844 311.825 370.22406 311.9969L370.22406 310.98126Q371.09906 310.5594 371.7553 309.98126Q372.4272 309.3875 372.70844 308.825L373.3803 308.825L373.3803 317.45ZM381.8803 310.96564L380.83344 311.04376Q380.6928 310.41876 380.4428 310.1375Q380.0053 309.6844 379.3803 309.6844Q378.8803 309.6844 378.4897 309.96564Q378.0053 310.34064 377.70844 311.04376Q377.4272 311.73126 377.41156 313.0125Q377.78656 312.4344 378.33344 312.15314Q378.89594 311.8719 379.5053 311.8719Q380.5522 311.8719 381.28656 312.65314Q382.03656 313.4344 382.03656 314.65314Q382.03656 315.46564 381.6772 316.16876Q381.33344 316.85626 380.72406 317.23126Q380.1147 317.59064 379.34906 317.59064Q378.02094 317.59064 377.1928 316.6219Q376.3647 315.65314 376.3647 313.4344Q376.3647 310.9344 377.28656 309.8094Q378.08344 308.825 379.4428 308.825Q380.45844 308.825 381.09906 309.40314Q381.7553 309.96564 381.8803 310.96564ZM377.58344 314.66876Q377.58344 315.21564 377.8022 315.71564Q378.03656 316.2 378.4428 316.46564Q378.8647 316.73126 379.33344 316.73126Q379.9897 316.73126 380.47406 316.2Q380.95844 315.65314 380.95844 314.73126Q380.95844 313.84064 380.47406 313.325Q380.0053 312.8094 379.28656 312.8094Q378.5678 312.8094 378.0678 313.325Q377.58344 313.84064 377.58344 314.66876ZM383.41156 313.21564Q383.41156 311.6844 383.72406 310.7625Q384.03656 309.825 384.64594 309.325Q385.27094 308.825 386.20844 308.825Q386.89594 308.825 387.41156 309.10626Q387.9428 309.3875 388.28656 309.91876Q388.6303 310.4344 388.8178 311.1844Q389.0053 311.9344 389.0053 313.21564Q389.0053 314.73126 388.6928 315.65314Q388.39594 316.575 387.77094 317.09064Q387.16156 317.59064 386.20844 317.59064Q384.97406 317.59064 384.2553 316.7Q383.41156 315.6375 383.41156 313.21564ZM384.4897 313.21564Q384.4897 315.325 384.9897 316.02814Q385.4897 316.73126 386.20844 316.73126Q386.9428 316.73126 387.4272 316.02814Q387.9272 315.325 387.9272 313.21564Q387.9272 311.09064 387.4272 310.40314Q386.9428 309.7 386.1928 309.7Q385.47406 309.7 385.03656 310.3094Q384.4897 311.09064 384.4897 313.21564ZM390.41156 313.21564Q390.41156 311.6844 390.72406 310.7625Q391.03656 309.825 391.64594 309.325Q392.27094 308.825 393.20844 308.825Q393.89594 308.825 394.41156 309.10626Q394.9428 309.3875 395.28656 309.91876Q395.6303 310.4344 395.8178 311.1844Q396.0053 311.9344 396.0053 313.21564Q396.0053 314.73126 395.6928 315.65314Q395.39594 316.575 394.77094 317.09064Q394.16156 317.59064 393.20844 317.59064Q391.97406 317.59064 391.2553 316.7Q390.41156 315.6375 390.41156 313.21564ZM391.4897 313.21564Q391.4897 315.325 391.9897 316.02814Q392.4897 316.73126 393.20844 316.73126Q393.9428 316.73126 394.4272 316.02814Q394.9272 315.325 394.9272 313.21564Q394.9272 311.09064 394.4272 310.40314Q393.9428 309.7 393.1928 309.7Q392.47406 309.7 392.03656 310.3094Q391.4897 311.09064 391.4897 313.21564ZM397.41156 313.21564Q397.41156 311.6844 397.72406 310.7625Q398.03656 309.825 398.64594 309.325Q399.27094 308.825 400.20844 308.825Q400.89594 308.825 401.41156 309.10626Q401.9428 309.3875 402.28656 309.91876Q402.6303 310.4344 402.8178 311.1844Q403.0053 311.9344 403.0053 313.21564Q403.0053 314.73126 402.6928 315.65314Q402.39594 316.575 401.77094 317.09064Q401.16156 317.59064 400.20844 317.59064Q398.97406 317.59064 398.2553 316.7Q397.41156 315.6375 397.41156 313.21564ZM398.4897 313.21564Q398.4897 315.325 398.9897 316.02814Q399.4897 316.73126 400.20844 316.73126Q400.9428 316.73126 401.4272 316.02814Q401.9272 315.325 401.9272 313.21564Q401.9272 311.09064 401.4272 310.40314Q400.9428 309.7 400.1928 309.7Q399.47406 309.7 399.03656 310.3094Q398.4897 311.09064 398.4897 313.21564Z" fill-rule="nonzero"/><path fill="#000000" d="M442.32312 315.1844L443.38562 315.04376Q443.5575 315.9344 443.995 316.34064Q444.4325 316.73126 445.0575 316.73126Q445.8075 316.73126 446.32312 316.21564Q446.83875 315.7 446.83875 314.9344Q446.83875 314.21564 446.35437 313.7469Q445.88562 313.2625 445.15125 313.2625Q444.85437 313.2625 444.40125 313.3875L444.52625 312.45Q444.63562 312.46564 444.69812 312.46564Q445.37 312.46564 445.90125 312.1219Q446.44812 311.7625 446.44812 311.02814Q446.44812 310.45 446.0575 310.075Q445.66687 309.6844 445.04187 309.6844Q444.4325 309.6844 444.01062 310.075Q443.60437 310.46564 443.495 311.23126L442.4325 311.04376Q442.62 309.9969 443.3075 309.41876Q443.995 308.825 445.01062 308.825Q445.71375 308.825 446.3075 309.1375Q446.90125 309.4344 447.21375 309.95Q447.52625 310.46564 447.52625 311.0594Q447.52625 311.60626 447.22937 312.075Q446.9325 312.52814 446.35437 312.79376Q447.10437 312.96564 447.52625 313.52814Q447.94812 314.075 447.94812 314.91876Q447.94812 316.04376 447.12 316.825Q446.3075 317.60626 445.0575 317.60626Q443.9325 317.60626 443.1825 316.9344Q442.4325 316.2469 442.32312 315.1844ZM454.87 316.4344L454.87 317.45L449.1825 317.45Q449.1825 317.075 449.3075 316.71564Q449.52625 316.1375 449.995 315.575Q450.47937 315.0125 451.38562 314.27814Q452.79187 313.1219 453.27625 312.45Q453.77625 311.77814 453.77625 311.1844Q453.77625 310.5594 453.32312 310.1375Q452.87 309.7 452.15125 309.7Q451.38562 309.7 450.9325 310.15314Q450.47937 310.60626 450.46375 311.41876L449.38562 311.3094Q449.495 310.09064 450.21375 309.46564Q450.94812 308.825 452.1825 308.825Q453.41687 308.825 454.13562 309.5125Q454.85437 310.2 454.85437 311.21564Q454.85437 311.73126 454.63562 312.23126Q454.4325 312.71564 453.9325 313.27814Q453.44812 313.825 452.32312 314.77814Q451.37 315.575 451.08875 315.8719Q450.82312 316.15314 450.65125 316.4344L454.87 316.4344ZM456.32312 313.21564Q456.32312 311.6844 456.63562 310.7625Q456.94812 309.825 457.5575 309.325Q458.1825 308.825 459.12 308.825Q459.8075 308.825 460.32312 309.10626Q460.85437 309.3875 461.19812 309.91876Q461.54187 310.4344 461.72937 311.1844Q461.91687 311.9344 461.91687 313.21564Q461.91687 314.73126 461.60437 315.65314Q461.3075 316.575 460.6825 317.09064Q460.07312 317.59064 459.12 317.59064Q457.88562 317.59064 457.16687 316.7Q456.32312 315.6375 456.32312 313.21564ZM457.40125 313.21564Q457.40125 315.325 457.90125 316.02814Q458.40125 316.73126 459.12 316.73126Q459.85437 316.73126 460.33875 316.02814Q460.83875 315.325 460.83875 313.21564Q460.83875 311.09064 460.33875 310.40314Q459.85437 309.7 459.10437 309.7Q458.38562 309.7 457.94812 310.3094Q457.40125 311.09064 457.40125 313.21564ZM463.32312 313.21564Q463.32312 311.6844 463.63562 310.7625Q463.94812 309.825 464.5575 309.325Q465.1825 308.825 466.12 308.825Q466.8075 308.825 467.32312 309.10626Q467.85437 309.3875 468.19812 309.91876Q468.54187 310.4344 468.72937 311.1844Q468.91687 311.9344 468.91687 313.21564Q468.91687 314.73126 468.60437 315.65314Q468.3075 316.575 467.6825 317.09064Q467.07312 317.59064 466.12 317.59064Q464.88562 317.59064 464.16687 316.7Q463.32312 315.6375 463.32312 313.21564ZM464.40125 313.21564Q464.40125 315.325 464.90125 316.02814Q465.40125 316.73126 466.12 316.73126Q466.85437 316.73126 467.33875 316.02814Q467.83875 315.325 467.83875 313.21564Q467.83875 311.09064 467.33875 310.40314Q466.85437 309.7 466.10437 309.7Q465.38562 309.7 464.94812 310.3094Q464.40125 311.09064 464.40125 313.21564ZM470.32312 313.21564Q470.32312 311.6844 470.63562 310.7625Q470.94812 309.825 471.5575 309.325Q472.1825 308.825 473.12 308.825Q473.8075 308.825 474.32312 309.10626Q474.85437 309.3875 475.19812 309.91876Q475.54187 310.4344 475.72937 311.1844Q475.91687 311.9344 475.91687 313.21564Q475.91687 314.73126 475.60437 315.65314Q475.3075 316.575 474.6825 317.09064Q474.07312 317.59064 473.12 317.59064Q471.88562 317.59064 471.16687 316.7Q470.32312 315.6375 470.32312 313.21564ZM471.40125 313.21564Q471.40125 315.325 471.90125 316.02814Q472.40125 316.73126 473.12 316.73126Q473.85437 316.73126 474.33875 316.02814Q474.83875 315.325 474.83875 313.21564Q474.83875 311.09064 474.33875 310.40314Q473.85437 309.7 473.10437 309.7Q472.38562 309.7 471.94812 310.3094Q471.40125 311.09064 471.40125 313.21564Z" fill-rule="nonzero"/><path fill="#000000" d="M520.7034 310.96564L519.65656 311.04376Q519.5159 310.41876 519.2659 310.1375Q518.8284 309.6844 518.2034 309.6844Q517.7034 309.6844 517.3128 309.96564Q516.8284 310.34064 516.53156 311.04376Q516.2503 311.73126 516.2347 313.0125Q516.6097 312.4344 517.15656 312.15314Q517.71906 311.8719 518.3284 311.8719Q519.3753 311.8719 520.1097 312.65314Q520.8597 313.4344 520.8597 314.65314Q520.8597 315.46564 520.5003 316.16876Q520.15656 316.85626 519.5472 317.23126Q518.9378 317.59064 518.1722 317.59064Q516.84406 317.59064 516.0159 316.6219Q515.1878 315.65314 515.1878 313.4344Q515.1878 310.9344 516.1097 309.8094Q516.90656 308.825 518.2659 308.825Q519.28156 308.825 519.9222 309.40314Q520.5784 309.96564 520.7034 310.96564ZM516.40656 314.66876Q516.40656 315.21564 516.6253 315.71564Q516.8597 316.2 517.2659 316.46564Q517.6878 316.73126 518.15656 316.73126Q518.8128 316.73126 519.2972 316.2Q519.78156 315.65314 519.78156 314.73126Q519.78156 313.84064 519.2972 313.325Q518.8284 312.8094 518.1097 312.8094Q517.3909 312.8094 516.8909 313.325Q516.40656 313.84064 516.40656 314.66876ZM525.6097 317.45L525.6097 315.3875L521.8909 315.3875L521.8909 314.41876L525.8128 308.85626L526.6722 308.85626L526.6722 314.41876L527.8284 314.41876L527.8284 315.3875L526.6722 315.3875L526.6722 317.45L525.6097 317.45ZM525.6097 314.41876L525.6097 310.5594L522.9222 314.41876L525.6097 314.41876ZM529.2347 313.21564Q529.2347 311.6844 529.5472 310.7625Q529.8597 309.825 530.46906 309.325Q531.09406 308.825 532.03156 308.825Q532.71906 308.825 533.2347 309.10626Q533.7659 309.3875 534.1097 309.91876Q534.4534 310.4344 534.6409 311.1844Q534.8284 311.9344 534.8284 313.21564Q534.8284 314.73126 534.5159 315.65314Q534.21906 316.575 533.59406 317.09064Q532.9847 317.59064 532.03156 317.59064Q530.7972 317.59064 530.0784 316.7Q529.2347 315.6375 529.2347 313.21564ZM530.3128 313.21564Q530.3128 315.325 530.8128 316.02814Q531.3128 316.73126 532.03156 316.73126Q532.7659 316.73126 533.2503 316.02814Q533.7503 315.325 533.7503 313.21564Q533.7503 311.09064 533.2503 310.40314Q532.7659 309.7 532.0159 309.7Q531.2972 309.7 530.8597 310.3094Q530.3128 311.09064 530.3128 313.21564ZM536.2347 313.21564Q536.2347 311.6844 536.5472 310.7625Q536.8597 309.825 537.46906 309.325Q538.09406 308.825 539.03156 308.825Q539.71906 308.825 540.2347 309.10626Q540.7659 309.3875 541.1097 309.91876Q541.4534 310.4344 541.6409 311.1844Q541.8284 311.9344 541.8284 313.21564Q541.8284 314.73126 541.5159 315.65314Q541.21906 316.575 540.59406 317.09064Q539.9847 317.59064 539.03156 317.59064Q537.7972 317.59064 537.0784 316.7Q536.2347 315.6375 536.2347 313.21564ZM537.3128 313.21564Q537.3128 315.325 537.8128 316.02814Q538.3128 316.73126 539.03156 316.73126Q539.7659 316.73126 540.2503 316.02814Q540.7503 315.325 540.7503 313.21564Q540.7503 311.09064 540.2503 310.40314Q539.7659 309.7 539.0159 309.7Q538.2972 309.7 537.8597 310.3094Q537.3128 311.09064 537.3128 313.21564ZM543.2347 313.21564Q543.2347 311.6844 543.5472 310.7625Q543.8597 309.825 544.46906 309.325Q545.09406 308.825 546.03156 308.825Q546.71906 308.825 547.2347 309.10626Q547.7659 309.3875 548.1097 309.91876Q548.4534 310.4344 548.6409 311.1844Q548.8284 311.9344 548.8284 313.21564Q548.8284 314.73126 548.5159 315.65314Q548.21906 316.575 547.59406 317.09064Q546.9847 317.59064 546.03156 317.59064Q544.7972 317.59064 544.0784 316.7Q543.2347 315.6375 543.2347 313.21564ZM544.3128 313.21564Q544.3128 315.325 544.8128 316.02814Q545.3128 316.73126 546.03156 316.73126Q546.7659 316.73126 547.2503 316.02814Q547.7503 315.325 547.7503 313.21564Q547.7503 311.09064 547.2503 310.40314Q546.7659 309.7 546.0159 309.7Q545.2972 309.7 544.8597 310.3094Q544.3128 311.09064 544.3128 313.21564Z" fill-rule="nonzero"/><path fill="#4285f4" d="M243.0 20.55C243.0 19.997715 243.44771 19.55 244.0 19.55L254.0 19.55C254.55229 19.55 255.0 19.997715 255.0 20.55L255.0 30.55C255.0 31.102285 254.55229 31.55 254.0 31.55L244.0 31.55C243.44771 31.55 243.0 31.102285 243.0 30.55Z" fill-rule="nonzero"/><path fill="#1a1a1a" d="M263.92188 29.55L263.92188 20.95625L267.17188 20.95625Q268.01562 20.95625 268.46875 21.034374Q269.10938 21.14375 269.53125 21.440624Q269.96875 21.7375 270.21875 22.26875Q270.48438 22.8 270.48438 23.440624Q270.48438 24.534374 269.78125 25.3Q269.09375 26.05 267.26562 26.05L265.0625 26.05L265.0625 29.55L263.92188 29.55ZM265.0625 25.05L267.28125 25.05Q268.39062 25.05 268.84375 24.64375Q269.3125 24.221874 269.3125 23.471874Q269.3125 22.940624 269.03125 22.565624Q268.76562 22.175 268.32812 22.05Q268.03125 21.971874 267.26562 21.971874L265.0625 21.971874L265.0625 25.05ZM271.78125 29.55L271.78125 23.33125L272.73438 23.33125L272.73438 24.26875Q273.09375 23.6125 273.39062 23.409374Q273.70312 23.190624 274.07812 23.190624Q274.60938 23.190624 275.15625 23.51875L274.79688 24.503124Q274.40625 24.26875 274.03125 24.26875Q273.67188 24.26875 273.39062 24.4875Q273.125 24.690624 273.01562 25.065624Q272.82812 25.628124 272.82812 26.284374L272.82812 29.55L271.78125 29.55ZM280.04688 27.55L281.14062 27.675Q280.89062 28.628124 280.1875 29.159374Q279.48438 29.690624 278.40625 29.690624Q277.04688 29.690624 276.23438 28.846874Q275.4375 28.003124 275.4375 26.4875Q275.4375 24.925 276.25 24.065624Q277.0625 23.190624 278.34375 23.190624Q279.59375 23.190624 280.375 24.034374Q281.17188 24.878124 281.17188 26.425Q281.17188 26.51875 281.17188 26.70625L276.53125 26.70625Q276.59375 27.7375 277.10938 28.284374Q277.625 28.815624 278.40625 28.815624Q278.98438 28.815624 279.39062 28.51875Q279.8125 28.20625 280.04688 27.55ZM276.59375 25.846874L280.0625 25.846874Q280.0 25.05 279.67188 24.659374Q279.15625 24.05 278.35938 24.05Q277.625 24.05 277.125 24.534374Q276.64062 25.01875 276.59375 25.846874ZM282.375 27.690624L283.40625 27.534374Q283.5 28.159374 283.89062 28.4875Q284.29688 28.815624 285.03125 28.815624Q285.75 28.815624 286.09375 28.534374Q286.45312 28.2375 286.45312 27.83125Q286.45312 27.471874 286.14062 27.26875Q285.92188 27.128124 285.0625 26.909374Q283.90625 26.6125 283.45312 26.409374Q283.01562 26.190624 282.78125 25.815624Q282.54688 25.440624 282.54688 24.971874Q282.54688 24.565624 282.73438 24.20625Q282.92188 23.846874 283.25 23.6125Q283.5 23.440624 283.92188 23.315624Q284.34375 23.190624 284.84375 23.190624Q285.5625 23.190624 286.10938 23.409374Q286.67188 23.6125 286.9375 23.971874Q287.20312 24.33125 287.29688 24.925L286.26562 25.065624Q286.20312 24.596874 285.85938 24.33125Q285.53125 24.05 284.90625 24.05Q284.1875 24.05 283.875 24.3Q283.5625 24.534374 283.5625 24.8625Q283.5625 25.065624 283.6875 25.221874Q283.82812 25.39375 284.09375 25.503124Q284.25 25.565624 285.03125 25.76875Q286.15625 26.08125 286.59375 26.26875Q287.03125 26.45625 287.28125 26.815624Q287.53125 27.175 287.53125 27.721874Q287.53125 28.253124 287.21875 28.721874Q286.92188 29.175 286.34375 29.440624Q285.76562 29.690624 285.03125 29.690624Q283.8125 29.690624 283.17188 29.190624Q282.54688 28.675 282.375 27.690624ZM289.375 27.690624L290.40625 27.534374Q290.5 28.159374 290.89062 28.4875Q291.29688 28.815624 292.03125 28.815624Q292.75 28.815624 293.09375 28.534374Q293.45312 28.2375 293.45312 27.83125Q293.45312 27.471874 293.14062 27.26875Q292.92188 27.128124 292.0625 26.909374Q290.90625 26.6125 290.45312 26.409374Q290.01562 26.190624 289.78125 25.815624Q289.54688 25.440624 289.54688 24.971874Q289.54688 24.565624 289.73438 24.20625Q289.92188 23.846874 290.25 23.6125Q290.5 23.440624 290.92188 23.315624Q291.34375 23.190624 291.84375 23.190624Q292.5625 23.190624 293.10938 23.409374Q293.67188 23.6125 293.9375 23.971874Q294.20312 24.33125 294.29688 24.925L293.26562 25.065624Q293.20312 24.596874 292.85938 24.33125Q292.53125 24.05 291.90625 24.05Q291.1875 24.05 290.875 24.3Q290.5625 24.534374 290.5625 24.8625Q290.5625 25.065624 290.6875 25.221874Q290.82812 25.39375 291.09375 25.503124Q291.25 25.565624 292.03125 25.76875Q293.15625 26.08125 293.59375 26.26875Q294.03125 26.45625 294.28125 26.815624Q294.53125 27.175 294.53125 27.721874Q294.53125 28.253124 294.21875 28.721874Q293.92188 29.175 293.34375 29.440624Q292.76562 29.690624 292.03125 29.690624Q290.8125 29.690624 290.17188 29.190624Q289.54688 28.675 289.375 27.690624ZM300.875 29.55L300.875 28.628124Q300.14062 29.690624 298.89062 29.690624Q298.34375 29.690624 297.85938 29.4875Q297.39062 29.26875 297.15625 28.95625Q296.92188 28.628124 296.82812 28.159374Q296.76562 27.8625 296.76562 27.175L296.76562 23.33125L297.82812 23.33125L297.82812 26.784374Q297.82812 27.596874 297.89062 27.89375Q297.98438 28.3 298.29688 28.55Q298.625 28.784374 299.10938 28.784374Q299.57812 28.784374 299.98438 28.55Q300.40625 28.3 300.57812 27.878124Q300.76562 27.45625 300.76562 26.659374L300.76562 23.33125L301.8125 23.33125L301.8125 29.55L300.875 29.55ZM303.78125 29.55L303.78125 23.33125L304.73438 23.33125L304.73438 24.26875Q305.09375 23.6125 305.39062 23.409374Q305.70312 23.190624 306.07812 23.190624Q306.60938 23.190624 307.15625 23.51875L306.79688 24.503124Q306.40625 24.26875 306.03125 24.26875Q305.67188 24.26875 305.39062 24.4875Q305.125 24.690624 305.01562 25.065624Q304.82812 25.628124 304.82812 26.284374L304.82812 29.55L303.78125 29.55ZM312.04688 27.55L313.14062 27.675Q312.89062 28.628124 312.1875 29.159374Q311.48438 29.690624 310.40625 29.690624Q309.04688 29.690624 308.23438 28.846874Q307.4375 28.003124 307.4375 26.4875Q307.4375 24.925 308.25 24.065624Q309.0625 23.190624 310.34375 23.190624Q311.59375 23.190624 312.375 24.034374Q313.17188 24.878124 313.17188 26.425Q313.17188 26.51875 313.17188 26.70625L308.53125 26.70625Q308.59375 27.7375 309.10938 28.284374Q309.625 28.815624 310.40625 28.815624Q310.98438 28.815624 311.39062 28.51875Q311.8125 28.20625 312.04688 27.55ZM308.59375 25.846874L312.0625 25.846874Q312.0 25.05 311.67188 24.659374Q311.15625 24.05 310.35938 24.05Q309.625 24.05 309.125 24.534374Q308.64062 25.01875 308.59375 25.846874Z" fill-rule="nonzero"/><path stroke="#ea4335" stroke-width="4.0" stroke-linecap="butt" d="M330.0 25.55L342.0 25.55" fill-rule="nonzero"/><path fill="#1a1a1a" d="M353.10938 29.55L353.10938 21.971874L350.28125 21.971874L350.28125 20.95625L357.09375 20.95625L357.09375 21.971874L354.25 21.971874L354.25 29.55L353.10938 29.55Z" fill-rule="nonzero"/></svg>