<svg version="1.1" viewBox="0.0 0.0 600.0 371.0" fill="none" stroke="none" stroke-linecap="square" stroke-miterlimit="10" width="600" height="371" xmlns:xlink="http://www.w3.org/1999/xlink" xmlns="http://www.w3.org/2000/svg"><path fill="#ffffff" d="M0 0L600.0 0L600.0 371.0L0 371.0L0 0Z" fill-rule="nonzero"/><path stroke="#333333" stroke-width="1.0" stroke-linecap="butt" d="M45.5 300.5L581.5 300.5" fill-rule="nonzero"/><path stroke="#cccccc" stroke-width="1.0" stroke-linecap="butt" d="M45.5 250.5L581.5 250.5" fill-rule="nonzero"/><path stroke="#cccccc" stroke-width="1.0" stroke-linecap="butt" d="M45.5 201.5L581.5 201.5" fill-rule="nonzero"/><path stroke="#cccccc" stroke-width="1.0" stroke-linecap="butt" d="M45.5 151.5L581.5 151.5" fill-rule="nonzero"/><path stroke="#cccccc" stroke-width="1.0" stroke-linecap="butt" d="M45.5 101.5L581.5 101.5" fill-rule="nonzero"/><path stroke="#cccccc" stroke-width="1.0" stroke-linecap="butt" d="M45.5 51.5L581.5 51.5" fill-rule="nonzero"/><clipPath id="id_0"><path d="M45.55 51.916668L581.45 51.916668L581.45 300.45L45.55 300.45L45.55 51.916668Z" clip-rule="nonzero"/></clipPath><path stroke="#000000" stroke-width="2.0" stroke-linecap="butt" stroke-opacity="0.0" clip-path="url(#id_0)" d="M98.0 300.0L64.0 300.0L64.0 230.0C64.0 228.89543 64.89543 228.0 66.0 228.0L96.0 228.0C97.10457 228.0 98.0 228.89543 98.0 230.0Z" fill-rule="nonzero"/><path fill="#4285f4" clip-path="url(#id_0)" d="M98.0 300.0L64.0 300.0L64.0 230.0C64.0 228.89543 64.89543 228.0 66.0 228.0L96.0 228.0C97.10457 228.0 98.0 228.89543 98.0 230.0Z" fill-rule="nonzero"/><path stroke="#000000" stroke-width="2.0" stroke-linecap="butt" stroke-opacity="0.0" clip-path="url(#id_0)" d="M149.0 300.0L115.0 300.0L115.0 278.0C115.0 276.89542 115.89543 276.0 117.0 276.0L147.0 276.0C148.10457 276.0 149.0 276.89542 149.0 278.0Z" fill-rule="nonzero"/><path fill="#4285f4" clip-path="url(#id_0)" d="M149.0 300.0L115.0 300.0L115.0 278.0C115.0 276.89542 115.89543 276.0 117.0 276.0L147.0 276.0C148.10457 276.0 149.0 276.89542 149.0 278.0Z" fill-rule="nonzero"/><path stroke="#000000" stroke-width="2.0" stroke-linecap="butt" stroke-opacity="0.0" clip-path="url(#id_0)" d="M201.0 300.0L167.0 300.0L167.0 289.0C167.0 287.89542 167.89543 287.0 169.0 287.0L199.0 287.0C200.10457 287.0 201.0 287.89542 201.0 289.0Z" fill-rule="nonzero"/><path fill="#4285f4" clip-path="url(#id_0)" d="M201.0 300.0L167.0 300.0L167.0 289.0C167.0 287.89542 167.89543 287.0 169.0 287.0L199.0 287.0C200.10457 287.0 201.0 287.89542 201.0 289.0Z" fill-rule="nonzero"/><path stroke="#000000" stroke-width="2.0" stroke-linecap="butt" stroke-opacity="0.0" clip-path="url(#id_0)" d="M253.0 300.0L219.0 300.0L219.0 295.0C219.0 293.89542 219.89543 293.0 221.0 293.0L251.0 293.0C252.10457 293.0 253.0 293.89542 253.0 295.0Z" fill-rule="nonzero"/><path fill="#4285f4" clip-path="url(#id_0)" d="M253.0 300.0L219.0 300.0L219.0 295.0C219.0 293.89542 219.89543 293.0 221.0 293.0L251.0 293.0C252.10457 293.0 253.0 293.89542 253.0 295.0Z" fill-rule="nonzero"/><path stroke="#000000" stroke-width="2.0" stroke-linecap="butt" stroke-opacity="0.0" clip-path="url(#id_0)" d="M305.0 300.0L271.0 300.0L271.0 297.0C271.0 295.89542 271.89542 295.0 273.0 295.0L303.0 295.0C304.10458 295.0 305.0 295.89542 305.0 297.0Z" fill-rule="nonzero"/><path fill="#4285f4" clip-path="url(#id_0)" d="M305.0 300.0L271.0 300.0L271.0 297.0C271.0 295.89542 271.89542 295.0 273.0 295.0L303.0 295.0C304.10458 295.0 305.0 295.89542 305.0 297.0Z" fill-rule="nonzero"/><path stroke="#000000" stroke-width="2.0" stroke-linecap="butt" stroke-opacity="0.0" clip-path="url(#id_0)" d="M356.0 300.0L322.0 300.0L322.0 298.5C322.0 297.67157 322.67157 297.0 323.5 297.0L354.5 297.0C355.32843 297.0 356.0 297.67157 356.0 298.5Z" fill-rule="nonzero"/><path fill="#4285f4" clip-path="url(#id_0)" d="M356.0 300.0L322.0 300.0L322.0 298.5C322.0 297.67157 322.67157 297.0 323.5 297.0L354.5 297.0C355.32843 297.0 356.0 297.67157 356.0 298.5Z" fill-rule="nonzero"/><path stroke="#000000" stroke-width="2.0" stroke-linecap="butt" stroke-opacity="0.0" clip-path="url(#id_0)" d="M408.0 300.0L374.0 300.0L374.0 299.0C374.0 298.44772 374.44772 298.0 375.0 298.0L407.0 298.0C407.55228 298.0 408.0 298.44772 408.0 299.0Z" fill-rule="nonzero"/><path fill="#4285f4" clip-path="url(#id_0)" d="M408.0 300.0L374.0 300.0L374.0 299.0C374.0 298.44772 374.44772 298.0 375.0 298.0L407.0 298.0C407.55228 298.0 408.0 298.44772 408.0 299.0Z" fill-rule="nonzero"/><path stroke="#000000" stroke-width="2.0" stroke-linecap="butt" stroke-opacity="0.0" clip-path="url(#id_0)" d="M460.0 300.0L426.0 300.0L426.0 299.5C426.0 299.22385 426.22385 299.0 426.5 299.0L459.5 299.0C459.77615 299.0 460.0 299.22385 460.0 299.5Z" fill-rule="nonzero"/><path fill="#4285f4" clip-path="url(#id_0)" d="M460.0 300.0L426.0 300.0L426.0 299.5C426.0 299.22385 426.22385 299.0 426.5 299.0L459.5 299.0C459.77615 299.0 460.0 299.22385 460.0 299.5Z" fill-rule="nonzero"/><path stroke="#000000" stroke-width="2.0" stroke-linecap="butt" stroke-opacity="0.0" clip-path="url(#id_0)" d="M512.0 300.0L478.0 300.0L478.0 299.5C478.0 299.22385 478.22385 299.0 478.5 299.0L511.5 299.0C511.77615 299.0 512.0 299.22385 512.0 299.5Z" fill-rule="nonzero"/><path fill="#4285f4" clip-path="url(#id_0)" d="M512.0 300.0L478.0 300.0L478.0 299.5C478.0 299.22385 478.22385 299.0 478.5 299.0L511.5 299.0C511.77615 299.0 512.0 299.22385 512.0 299.5Z" fill-rule="nonzero"/><path stroke="#000000" stroke-width="2.0" stroke-linecap="butt" stroke-opacity="0.0" clip-path="url(#id_0)" d="M564.0 300.0L530.0 300.0L530.0 299.5C530.0 299.22385 530.2239 299.0 530.5 299.0L563.5 299.0C563.7761 299.0 564.0 299.22385 564.0 299.5Z" fill-rule="nonzero"/><path fill="#4285f4" clip-path="url(#id_0)" d="M564.0 300.0L530.0 300.0L530.0 299.5C530.0 299.22385 530.2239 299.0 530.5 299.0L563.5 299.0C563.7761 299.0 564.0 299.22385 564.0 299.5Z" fill-rule="nonzero"/><path stroke="#ea4335" stroke-width="2.0" stroke-linecap="butt" clip-path="url(#id_0)" d="M80.5 164.55188C80.5 164.55188 115.01852 131.0358 132.27777 116.39435C149.53703 101.7529 166.7963 84.40093 184.05556 76.70317C201.31482 69.0054 218.57408 72.01772 235.83333 70.20777C253.09259 68.39781 270.35184 66.31737 287.6111 65.843445C304.87036 65.369514 322.12964 68.81451 339.3889 67.36421C356.64816 65.91391 373.9074 57.284233 391.16666 57.141644C408.42593 56.999054 425.68518 65.58721 442.94446 66.508675C460.2037 67.43013 477.46295 61.84781 494.72223 62.67039C511.98148 63.492973 546.5 71.44416 546.5 71.44416" fill-rule="nonzero"/><path fill="#000000" fill-opacity="0.0" clip-path="url(#id_0)" d="M83.5 164.55188C83.5 166.20874 82.15685 167.55188 80.5 167.55188C78.84315 167.55188 77.5 166.20874 77.5 164.55188C77.5 162.89502 78.84315 161.55188 80.5 161.55188C82.15685 161.55188 83.5 162.89502 83.5 164.55188Z" fill-rule="nonzero"/><path fill="#000000" fill-opacity="0.0" clip-path="url(#id_0)" d="M135.27777 116.39435C135.27777 118.05121 133.93463 119.39435 132.27777 119.39435C130.62093 119.39435 129.27777 118.05121 129.27777 116.39435C129.27777 114.737495 130.62093 113.39435 132.27777 113.39435C133.93463 113.39435 135.27777 114.737495 135.27777 116.39435Z" fill-rule="nonzero"/><path fill="#000000" fill-opacity="0.0" clip-path="url(#id_0)" d="M187.05556 76.70317C187.05556 78.36002 185.7124 79.70317 184.05556 79.70317C182.3987 79.70317 181.05556 78.36002 181.05556 76.70317C181.05556 75.04631 182.3987 73.70317 184.05556 73.70317C185.7124 73.70317 187.05556 75.04631 187.05556 76.70317Z" fill-rule="nonzero"/><path fill="#000000" fill-opacity="0.0" clip-path="url(#id_0)" d="M238.83333 70.20777C238.83333 71.864624 237.49019 73.20777 235.83333 73.20777C234.17648 73.20777 232.83333 71.864624 232.83333 70.20777C232.83333 68.55091 234.17648 67.20777 235.83333 67.20777C237.49019 67.20777 238.83333 68.55091 238.83333 70.20777Z" fill-rule="nonzero"/><path fill="#000000" fill-opacity="0.0" clip-path="url(#id_0)" d="M290.6111 65.843445C290.6111 67.5003 289.26797 68.843445 287.6111 68.843445C285.95425 68.843445 284.6111 67.5003 284.6111 65.843445C284.6111 64.186584 285.95425 62.84344 287.6111 62.84344C289.26797 62.84344 290.6111 64.186584 290.6111 65.843445Z" fill-rule="nonzero"/><path fill="#000000" fill-opacity="0.0" clip-path="url(#id_0)" d="M342.3889 67.36421C342.3889 69.021065 341.04575 70.36421 339.3889 70.36421C337.73203 70.36421 336.3889 69.021065 336.3889 67.36421C336.3889 65.70735 337.73203 64.36421 339.3889 64.36421C341.04575 64.36421 342.3889 65.70735 342.3889 67.36421Z" fill-rule="nonzero"/><path fill="#000000" fill-opacity="0.0" clip-path="url(#id_0)" d="M394.16666 57.141644C394.16666 58.7985 392.82352 60.141644 391.16666 60.141644C389.50983 60.141644 388.16666 58.7985 388.16666 57.141644C388.16666 55.48479 389.50983 54.141644 391.16666 54.141644C392.82352 54.141644 394.16666 55.48479 394.16666 57.141644Z" fill-rule="nonzero"/><path fill="#000000" fill-opacity="0.0" clip-path="url(#id_0)" d="M445.94446 66.508675C445.94446 68.16553 444.6013 69.508675 442.94446 69.508675C441.2876 69.508675 439.94446 68.16553 439.94446 66.508675C439.94446 64.851814 441.2876 63.50867 442.94446 63.50867C444.6013 63.50867 445.94446 64.851814 445.94446 66.508675Z" fill-rule="nonzero"/><path fill="#000000" fill-opacity="0.0" clip-path="url(#id_0)" d="M497.72223 62.67039C497.72223 64.32725 496.3791 65.670395 494.72223 65.670395C493.06537 65.670395 491.72223 64.32725 491.72223 62.67039C491.72223 61.01354 493.06537 59.67039 494.72223 59.67039C496.3791 59.67039 497.72223 61.01354 497.72223 62.67039Z" fill-rule="nonzero"/><path fill="#000000" fill-opacity="0.0" clip-path="url(#id_0)" d="M549.5 71.44416C549.5 73.10102 548.15686 74.44416 546.5 74.44416C544.84314 74.44416 543.5 73.10102 543.5 71.44416C543.5 69.78731 544.84314 68.44416 546.5 68.44416C548.15686 68.44416 549.5 69.78731 549.5 71.44416Z" fill-rule="nonzero"/><path fill="#000000" d="M302.54688 346.6844L303.60938 346.59064Q303.6875 347.2469 303.96875 347.65314Q304.25 348.0594 304.82812 348.325Q305.42188 348.575 306.15625 348.575Q306.79688 348.575 307.29688 348.3875Q307.79688 348.1844 308.03125 347.85626Q308.28125 347.5125 308.28125 347.1219Q308.28125 346.71564 308.04688 346.41876Q307.8125 346.10626 307.28125 345.90314Q306.92188 345.7625 305.73438 345.48126Q304.5625 345.2 304.09375 344.95Q303.46875 344.6219 303.17188 344.15314Q302.875 343.66876 302.875 343.075Q302.875 342.4344 303.23438 341.8719Q303.60938 341.29376 304.3125 341.0125Q305.03125 340.71564 305.89062 340.71564Q306.84375 340.71564 307.57812 341.02814Q308.3125 341.325 308.70312 341.9344Q309.09375 342.52814 309.125 343.27814L308.03125 343.35626Q307.9375 342.54376 307.42188 342.1375Q306.92188 341.71564 305.9375 341.71564Q304.90625 341.71564 304.4375 342.09064Q303.96875 342.46564 303.96875 342.9969Q303.96875 343.46564 304.29688 343.7625Q304.625 344.0594 306.0 344.3719Q307.39062 344.6844 307.90625 344.91876Q308.65625 345.27814 309.01562 345.8094Q309.375 346.325 309.375 347.02814Q309.375 347.71564 308.98438 348.325Q308.59375 348.91876 307.85938 349.2625Q307.125 349.59064 306.20312 349.59064Q305.03125 349.59064 304.23438 349.2625Q303.45312 348.91876 303.0 348.23126Q302.5625 347.54376 302.54688 346.6844ZM310.79688 342.075L310.79688 340.85626L311.85938 340.85626L311.85938 342.075L310.79688 342.075ZM310.79688 349.45L310.79688 343.23126L311.85938 343.23126L311.85938 349.45L310.79688 349.45ZM313.23438 349.45L313.23438 348.59064L317.20312 344.04376Q316.51562 344.075 316.0 344.075L313.46875 344.075L313.46875 343.23126L318.5625 343.23126L318.5625 343.91876L315.1875 347.8719L314.53125 348.59064Q315.25 348.54376 315.85938 348.54376L318.75 348.54376L318.75 349.45L313.23438 349.45ZM323.04688 347.45L324.14062 347.575Q323.89062 348.52814 323.1875 349.0594Q322.48438 349.59064 321.40625 349.59064Q320.04688 349.59064 319.23438 348.7469Q318.4375 347.90314 318.4375 346.3875Q318.4375 344.825 319.25 343.96564Q320.0625 343.09064 321.34375 343.09064Q322.59375 343.09064 323.375 343.9344Q324.17188 344.77814 324.17188 346.325Q324.17188 346.41876 324.17188 346.60626L319.53125 346.60626Q319.59375 347.6375 320.10938 348.1844Q320.625 348.71564 321.40625 348.71564Q321.98438 348.71564 322.39062 348.41876Q322.8125 348.10626 323.04688 347.45ZM319.59375 345.7469L323.0625 345.7469Q323.0 344.95 322.67188 344.5594Q322.15625 343.95 321.35938 343.95Q320.625 343.95 320.125 344.4344Q319.64062 344.91876 319.59375 345.7469Z" fill-rule="nonzero"/><path fill="#000000" d="M33.05 300.21564Q33.05 298.6844 33.3625 297.7625Q33.675 296.825 34.284374 296.325Q34.909374 295.825 35.846874 295.825Q36.534374 295.825 37.05 296.10626Q37.58125 296.3875 37.925 296.91876Q38.26875 297.4344 38.45625 298.1844Q38.64375 298.9344 38.64375 300.21564Q38.64375 301.73126 38.33125 302.65314Q38.034374 303.575 37.409374 304.09064Q36.8 304.59064 35.846874 304.59064Q34.6125 304.59064 33.89375 303.7Q33.05 302.6375 33.05 300.21564ZM34.128124 300.21564Q34.128124 302.325 34.628124 303.02814Q35.128124 303.73126 35.846874 303.73126Q36.58125 303.73126 37.065624 303.02814Q37.565624 302.325 37.565624 300.21564Q37.565624 298.09064 37.065624 297.40314Q36.58125 296.7 35.83125 296.7Q35.1125 296.7 34.675 297.3094Q34.128124 298.09064 34.128124 300.21564Z" fill-rule="nonzero"/><path fill="#000000" d="M30.01875 254.74333L28.971874 254.74333L28.971874 248.02458Q28.58125 248.38396 27.95625 248.75896Q27.346874 249.11833 26.8625 249.2902L26.8625 248.27458Q27.7375 247.8527 28.39375 247.27458Q29.065624 246.68083 29.346874 246.11833L30.01875 246.11833L30.01875 254.74333ZM33.05 250.50896Q33.05 248.9777 33.3625 248.05583Q33.675 247.11833 34.284374 246.61833Q34.909374 246.11833 35.846874 246.11833Q36.534374 246.11833 37.05 246.39958Q37.58125 246.68083 37.925 247.21208Q38.26875 247.7277 38.45625 248.4777Q38.64375 249.2277 38.64375 250.50896Q38.64375 252.02458 38.33125 252.94646Q38.034374 253.86833 37.409374 254.38396Q36.8 254.88396 35.846874 254.88396Q34.6125 254.88396 33.89375 253.99333Q33.05 252.93083 33.05 250.50896ZM34.128124 250.50896Q34.128124 252.61833 34.628124 253.32146Q35.128124 254.02458 35.846874 254.02458Q36.58125 254.02458 37.065624 253.32146Q37.565624 252.61833 37.565624 250.50896Q37.565624 248.38396 37.065624 247.69646Q36.58125 246.99333 35.83125 246.99333Q35.1125 246.99333 34.675 247.6027Q34.128124 248.38396 34.128124 250.50896Z" fill-rule="nonzero"/><path fill="#000000" d="M31.596874 204.02104L31.596874 205.03667L25.909374 205.03667Q25.909374 204.66167 26.034374 204.30229Q26.253124 203.72417 26.721874 203.16167Q27.20625 202.59917 28.1125 201.86479Q29.51875 200.70854 30.003124 200.03667Q30.503124 199.36479 30.503124 198.77104Q30.503124 198.14604 30.05 197.72417Q29.596874 197.28667 28.878124 197.28667Q28.1125 197.28667 27.659374 197.73979Q27.20625 198.19292 27.190624 199.00542L26.1125 198.89604Q26.221874 197.67729 26.940624 197.05229Q27.675 196.41167 28.909374 196.41167Q30.14375 196.41167 30.8625 197.09917Q31.58125 197.78667 31.58125 198.80229Q31.58125 199.31792 31.3625 199.81792Q31.159374 200.30229 30.659374 200.86479Q30.175 201.41167 29.05 202.36479Q28.096874 203.16167 27.815624 203.45854Q27.55 203.73979 27.378124 204.02104L31.596874 204.02104ZM33.05 200.80229Q33.05 199.27104 33.3625 198.34917Q33.675 197.41167 34.284374 196.91167Q34.909374 196.41167 35.846874 196.41167Q36.534374 196.41167 37.05 196.69292Q37.58125 196.97417 37.925 197.50542Q38.26875 198.02104 38.45625 198.77104Q38.64375 199.52104 38.64375 200.80229Q38.64375 202.31792 38.33125 203.23979Q38.034374 204.16167 37.409374 204.67729Q36.8 205.17729 35.846874 205.17729Q34.6125 205.17729 33.89375 204.28667Q33.05 203.22417 33.05 200.80229ZM34.128124 200.80229Q34.128124 202.91167 34.628124 203.61479Q35.128124 204.31792 35.846874 204.31792Q36.58125 204.31792 37.065624 203.61479Q37.565624 202.91167 37.565624 200.80229Q37.565624 198.67729 37.065624 197.98979Q36.58125 197.28667 35.83125 197.28667Q35.1125 197.28667 34.675 197.89604Q34.128124 198.67729 34.128124 200.80229Z" fill-rule="nonzero"/><path fill="#000000" d="M26.05 153.06438L27.1125 152.92375Q27.284374 153.81438 27.721874 154.22063Q28.159374 154.61125 28.784374 154.61125Q29.534374 154.61125 30.05 154.09563Q30.565624 153.58 30.565624 152.81438Q30.565624 152.09563 30.08125 151.62688Q29.6125 151.1425 28.878124 151.1425Q28.58125 151.1425 28.128124 151.2675L28.253124 150.33Q28.3625 150.34563 28.425 150.34563Q29.096874 150.34563 29.628124 150.00188Q30.175 149.6425 30.175 148.90813Q30.175 148.33 29.784374 147.955Q29.39375 147.56438 28.76875 147.56438Q28.159374 147.56438 27.7375 147.955Q27.33125 148.34563 27.221874 149.11125L26.159374 148.92375Q26.346874 147.87688 27.034374 147.29875Q27.721874 146.705 28.7375 146.705Q29.440624 146.705 30.034374 147.0175Q30.628124 147.31438 30.940624 147.83Q31.253124 148.34563 31.253124 148.93938Q31.253124 149.48625 30.95625 149.955Q30.659374 150.40813 30.08125 150.67375Q30.83125 150.84563 31.253124 151.40813Q31.675 151.955 31.675 152.79875Q31.675 153.92375 30.846874 154.705Q30.034374 155.48625 28.784374 155.48625Q27.659374 155.48625 26.909374 154.81438Q26.159374 154.12688 26.05 153.06438ZM33.05 151.09563Q33.05 149.56438 33.3625 148.6425Q33.675 147.705 34.284374 147.205Q34.909374 146.705 35.846874 146.705Q36.534374 146.705 37.05 146.98625Q37.58125 147.2675 37.925 147.79875Q38.26875 148.31438 38.45625 149.06438Q38.64375 149.81438 38.64375 151.09563Q38.64375 152.61125 38.33125 153.53313Q38.034374 154.455 37.409374 154.97063Q36.8 155.47063 35.846874 155.47063Q34.6125 155.47063 33.89375 154.58Q33.05 153.5175 33.05 151.09563ZM34.128124 151.09563Q34.128124 153.205 34.628124 153.90813Q35.128124 154.61125 35.846874 154.61125Q36.58125 154.61125 37.065624 153.90813Q37.565624 153.205 37.565624 151.09563Q37.565624 148.97063 37.065624 148.28313Q36.58125 147.58 35.83125 147.58Q35.1125 147.58 34.675 148.18938Q34.128124 148.97063 34.128124 151.09563Z" fill-rule="nonzero"/><path fill="#000000" d="M29.425 105.62334L29.425 103.56084L25.70625 103.56084L25.70625 102.59209L29.628124 97.02959L30.4875 97.02959L30.4875 102.59209L31.64375 102.59209L31.64375 103.56084L30.4875 103.56084L30.4875 105.62334L29.425 105.62334ZM29.425 102.59209L29.425 98.73271L26.7375 102.59209L29.425 102.59209ZM33.05 101.38896Q33.05 99.85771 33.3625 98.93584Q33.675 97.99834 34.284374 97.49834Q34.909374 96.99834 35.846874 96.99834Q36.534374 96.99834 37.05 97.27959Q37.58125 97.56084 37.925 98.09209Q38.26875 98.60771 38.45625 99.35771Q38.64375 100.10771 38.64375 101.38896Q38.64375 102.90459 38.33125 103.82646Q38.034374 104.74834 37.409374 105.26396Q36.8 105.76396 35.846874 105.76396Q34.6125 105.76396 33.89375 104.87334Q33.05 103.81084 33.05 101.38896ZM34.128124 101.38896Q34.128124 103.49834 34.628124 104.20146Q35.128124 104.90459 35.846874 104.90459Q36.58125 104.90459 37.065624 104.20146Q37.565624 103.49834 37.565624 101.38896Q37.565624 99.26396 37.065624 98.57646Q36.58125 97.87334 35.83125 97.87334Q35.1125 97.87334 34.675 98.48271Q34.128124 99.26396 34.128124 101.38896Z" fill-rule="nonzero"/><path fill="#000000" d="M26.05 53.666668L27.159374 53.572918Q27.284374 54.385418 27.721874 54.791668Q28.175 55.197918 28.815624 55.197918Q29.565624 55.197918 30.096874 54.619793Q30.628124 54.041668 30.628124 53.104168Q30.628124 52.197918 30.1125 51.682293Q29.6125 51.151043 28.784374 51.151043Q28.284374 51.151043 27.8625 51.385418Q27.45625 51.619793 27.221874 51.979168L26.2375 51.854168L27.065624 47.447918L31.346874 47.447918L31.346874 48.447918L27.909374 48.447918L27.45625 50.760418Q28.221874 50.213543 29.065624 50.213543Q30.190624 50.213543 30.95625 50.994793Q31.7375 51.776043 31.7375 53.010418Q31.7375 54.166668 31.065624 55.026043Q30.2375 56.057293 28.815624 56.057293Q27.64375 56.057293 26.89375 55.401043Q26.159374 54.744793 26.05 53.666668ZM33.05 51.682293Q33.05 50.151043 33.3625 49.229168Q33.675 48.291668 34.284374 47.791668Q34.909374 47.291668 35.846874 47.291668Q36.534374 47.291668 37.05 47.572918Q37.58125 47.854168 37.925 48.385418Q38.26875 48.901043 38.45625 49.651043Q38.64375 50.401043 38.64375 51.682293Q38.64375 53.197918 38.33125 54.119793Q38.034374 55.041668 37.409374 55.557293Q36.8 56.057293 35.846874 56.057293Q34.6125 56.057293 33.89375 55.166668Q33.05 54.104168 33.05 51.682293ZM34.128124 51.682293Q34.128124 53.791668 34.628124 54.494793Q35.128124 55.197918 35.846874 55.197918Q36.58125 55.197918 37.065624 54.494793Q37.565624 53.791668 37.565624 51.682293Q37.565624 49.557293 37.065624 48.869793Q36.58125 48.166668 35.83125 48.166668Q35.1125 48.166668 34.675 48.776043Q34.128124 49.557293 34.128124 51.682293Z" fill-rule="nonzero"/><path fill="#000000" d="M70.96875 317.45L69.921875 317.45L69.921875 310.73126Q69.53125 311.09064 68.90625 311.46564Q68.296875 311.825 67.8125 311.9969L67.8125 310.98126Q68.6875 310.5594 69.34375 309.98126Q70.015625 309.3875 70.296875 308.825L70.96875 308.825L70.96875 317.45ZM74.0 313.21564Q74.0 311.6844 74.3125 310.7625Q74.625 309.825 75.234375 309.325Q75.859375 308.825 76.796875 308.825Q77.484375 308.825 78.0 309.10626Q78.53125 309.3875 78.875 309.91876Q79.21875 310.4344 79.40625 311.1844Q79.59375 311.9344 79.59375 313.21564Q79.59375 314.73126 79.28125 315.65314Q78.984375 316.575 78.359375 317.09064Q77.75 317.59064 76.796875 317.59064Q75.5625 317.59064 74.84375 316.7Q74.0 315.6375 74.0 313.21564ZM75.078125 313.21564Q75.078125 315.325 75.578125 316.02814Q76.078125 316.73126 76.796875 316.73126Q77.53125 316.73126 78.015625 316.02814Q78.515625 315.325 78.515625 313.21564Q78.515625 311.09064 78.015625 310.40314Q77.53125 309.7 76.78125 309.7Q76.0625 309.7 75.625 310.3094Q75.078125 311.09064 75.078125 313.21564ZM81.0 313.21564Q81.0 311.6844 81.3125 310.7625Q81.625 309.825 82.234375 309.325Q82.859375 308.825 83.796875 308.825Q84.484375 308.825 85.0 309.10626Q85.53125 309.3875 85.875 309.91876Q86.21875 310.4344 86.40625 311.1844Q86.59375 311.9344 86.59375 313.21564Q86.59375 314.73126 86.28125 315.65314Q85.984375 316.575 85.359375 317.09064Q84.75 317.59064 83.796875 317.59064Q82.5625 317.59064 81.84375 316.7Q81.0 315.6375 81.0 313.21564ZM82.078125 313.21564Q82.078125 315.325 82.578125 316.02814Q83.078125 316.73126 83.796875 316.73126Q84.53125 316.73126 85.015625 316.02814Q85.515625 315.325 85.515625 313.21564Q85.515625 311.09064 85.015625 310.40314Q84.53125 309.7 83.78125 309.7Q83.0625 309.7 82.625 310.3094Q82.078125 311.09064 82.078125 313.21564ZM88.0 313.21564Q88.0 311.6844 88.3125 310.7625Q88.625 309.825 89.234375 309.325Q89.859375 308.825 90.796875 308.825Q91.484375 308.825 92.0 309.10626Q92.53125 309.3875 92.875 309.91876Q93.21875 310.4344 93.40625 311.1844Q93.59375 311.9344 93.59375 313.21564Q93.59375 314.73126 93.28125 315.65314Q92.984375 316.575 92.359375 317.09064Q91.75 317.59064 90.796875 317.59064Q89.5625 317.59064 88.84375 316.7Q88.0 315.6375 88.0 313.21564ZM89.078125 313.21564Q89.078125 315.325 89.578125 316.02814Q90.078125 316.73126 90.796875 316.73126Q91.53125 316.73126 92.015625 316.02814Q92.515625 315.325 92.515625 313.21564Q92.515625 311.09064 92.015625 310.40314Q91.53125 309.7 90.78125 309.7Q90.0625 309.7 89.625 310.3094Q89.078125 311.09064 89.078125 313.21564Z" fill-rule="nonzero"/><path fill="#000000" d="M124.32465 316.4344L124.32465 317.45L118.63715 317.45Q118.63715 317.075 118.76215 316.71564Q118.9809 316.1375 119.44965 315.575Q119.93403 315.0125 120.84028 314.27814Q122.24653 313.1219 122.7309 312.45Q123.2309 311.77814 123.2309 311.1844Q123.2309 310.5594 122.77778 310.1375Q122.32465 309.7 121.6059 309.7Q120.84028 309.7 120.38715 310.15314Q119.93403 310.60626 119.9184 311.41876L118.84028 311.3094Q118.94965 310.09064 119.6684 309.46564Q120.40278 308.825 121.63715 308.825Q122.87153 308.825 123.59028 309.5125Q124.30903 310.2 124.30903 311.21564Q124.30903 311.73126 124.09028 312.23126Q123.88715 312.71564 123.38715 313.27814Q122.90278 313.825 121.77778 314.77814Q120.82465 315.575 120.5434 315.8719Q120.27778 316.15314 120.1059 316.4344L124.32465 316.4344ZM125.77778 313.21564Q125.77778 311.6844 126.09028 310.7625Q126.40278 309.825 127.01215 309.325Q127.63715 308.825 128.57465 308.825Q129.26215 308.825 129.77777 309.10626Q130.30902 309.3875 130.65277 309.91876Q130.99652 310.4344 131.18402 311.1844Q131.37152 311.9344 131.37152 313.21564Q131.37152 314.73126 131.05902 315.65314Q130.76215 316.575 130.13715 317.09064Q129.52777 317.59064 128.57465 317.59064Q127.34028 317.59064 126.62153 316.7Q125.77778 315.6375 125.77778 313.21564ZM126.8559 313.21564Q126.8559 315.325 127.3559 316.02814Q127.8559 316.73126 128.57465 316.73126Q129.30902 316.73126 129.7934 316.02814Q130.2934 315.325 130.2934 313.21564Q130.2934 311.09064 129.7934 310.40314Q129.30902 309.7 128.55902 309.7Q127.84028 309.7 127.40278 310.3094Q126.8559 311.09064 126.8559 313.21564ZM132.77777 313.21564Q132.77777 311.6844 133.09027 310.7625Q133.40277 309.825 134.01215 309.325Q134.63715 308.825 135.57465 308.825Q136.26215 308.825 136.77777 309.10626Q137.30902 309.3875 137.65277 309.91876Q137.99652 310.4344 138.18402 311.1844Q138.37152 311.9344 138.37152 313.21564Q138.37152 314.73126 138.05902 315.65314Q137.76215 316.575 137.13715 317.09064Q136.52777 317.59064 135.57465 317.59064Q134.34027 317.59064 133.62152 316.7Q132.77777 315.6375 132.77777 313.21564ZM133.8559 313.21564Q133.8559 315.325 134.3559 316.02814Q134.8559 316.73126 135.57465 316.73126Q136.30902 316.73126 136.7934 316.02814Q137.2934 315.325 137.2934 313.21564Q137.2934 311.09064 136.7934 310.40314Q136.30902 309.7 135.55902 309.7Q134.84027 309.7 134.40277 310.3094Q133.8559 311.09064 133.8559 313.21564ZM139.77777 313.21564Q139.77777 311.6844 140.09027 310.7625Q140.40277 309.825 141.01215 309.325Q141.63715 308.825 142.57465 308.825Q143.26215 308.825 143.77777 309.10626Q144.30902 309.3875 144.65277 309.91876Q144.99652 310.4344 145.18402 311.1844Q145.37152 311.9344 145.37152 313.21564Q145.37152 314.73126 145.05902 315.65314Q144.76215 316.575 144.13715 317.09064Q143.52777 317.59064 142.57465 317.59064Q141.34027 317.59064 140.62152 316.7Q139.77777 315.6375 139.77777 313.21564ZM140.8559 313.21564Q140.8559 315.325 141.3559 316.02814Q141.8559 316.73126 142.57465 316.73126Q143.30902 316.73126 143.7934 316.02814Q144.2934 315.325 144.2934 313.21564Q144.2934 311.09064 143.7934 310.40314Q143.30902 309.7 142.55902 309.7Q141.84027 309.7 141.40277 310.3094Q140.8559 311.09064 140.8559 313.21564Z" fill-rule="nonzero"/><path fill="#000000" d="M170.55556 315.1844L171.61806 315.04376Q171.78993 315.9344 172.22743 316.34064Q172.66493 316.73126 173.28993 316.73126Q174.03993 316.73126 174.55556 316.21564Q175.07118 315.7 175.07118 314.9344Q175.07118 314.21564 174.5868 313.7469Q174.11806 313.2625 173.38368 313.2625Q173.0868 313.2625 172.63368 313.3875L172.75868 312.45Q172.86806 312.46564 172.93056 312.46564Q173.60243 312.46564 174.13368 312.1219Q174.68056 311.7625 174.68056 311.02814Q174.68056 310.45 174.28993 310.075Q173.8993 309.6844 173.2743 309.6844Q172.66493 309.6844 172.24306 310.075Q171.8368 310.46564 171.72743 311.23126L170.66493 311.04376Q170.85243 309.9969 171.53993 309.41876Q172.22743 308.825 173.24306 308.825Q173.94618 308.825 174.53993 309.1375Q175.13368 309.4344 175.44618 309.95Q175.75868 310.46564 175.75868 311.0594Q175.75868 311.60626 175.4618 312.075Q175.16493 312.52814 174.5868 312.79376Q175.3368 312.96564 175.75868 313.52814Q176.18056 314.075 176.18056 314.91876Q176.18056 316.04376 175.35243 316.825Q174.53993 317.60626 173.28993 317.60626Q172.16493 317.60626 171.41493 316.9344Q170.66493 316.2469 170.55556 315.1844ZM177.55556 313.21564Q177.55556 311.6844 177.86806 310.7625Q178.18056 309.825 178.78993 309.325Q179.41493 308.825 180.35243 308.825Q181.03993 308.825 181.55556 309.10626Q182.0868 309.3875 182.43056 309.91876Q182.7743 310.4344 182.9618 311.1844Q183.1493 311.9344 183.1493 313.21564Q183.1493 314.73126 182.8368 315.65314Q182.53993 316.575 181.91493 317.09064Q181.30556 317.59064 180.35243 317.59064Q179.11806 317.59064 178.3993 316.7Q177.55556 315.6375 177.55556 313.21564ZM178.63368 313.21564Q178.63368 315.325 179.13368 316.02814Q179.63368 316.73126 180.35243 316.73126Q181.0868 316.73126 181.57118 316.02814Q182.07118 315.325 182.07118 313.21564Q182.07118 311.09064 181.57118 310.40314Q181.0868 309.7 180.3368 309.7Q179.61806 309.7 179.18056 310.3094Q178.63368 311.09064 178.63368 313.21564ZM184.55556 313.21564Q184.55556 311.6844 184.86806 310.7625Q185.18056 309.825 185.78993 309.325Q186.41493 308.825 187.35243 308.825Q188.03993 308.825 188.55556 309.10626Q189.0868 309.3875 189.43056 309.91876Q189.7743 310.4344 189.9618 311.1844Q190.1493 311.9344 190.1493 313.21564Q190.1493 314.73126 189.8368 315.65314Q189.53993 316.575 188.91493 317.09064Q188.30556 317.59064 187.35243 317.59064Q186.11806 317.59064 185.3993 316.7Q184.55556 315.6375 184.55556 313.21564ZM185.63368 313.21564Q185.63368 315.325 186.13368 316.02814Q186.63368 316.73126 187.35243 316.73126Q188.0868 316.73126 188.57118 316.02814Q189.07118 315.325 189.07118 313.21564Q189.07118 311.09064 188.57118 310.40314Q188.0868 309.7 187.3368 309.7Q186.61806 309.7 186.18056 310.3094Q185.63368 311.09064 185.63368 313.21564ZM191.55556 313.21564Q191.55556 311.6844 191.86806 310.7625Q192.18056 309.825 192.78993 309.325Q193.41493 308.825 194.35243 308.825Q195.03993 308.825 195.55556 309.10626Q196.0868 309.3875 196.43056 309.91876Q196.7743 310.4344 196.9618 311.1844Q197.1493 311.9344 197.1493 313.21564Q197.1493 314.73126 196.8368 315.65314Q196.53993 316.575 195.91493 317.09064Q195.30556 317.59064 194.35243 317.59064Q193.11806 317.59064 192.3993 316.7Q191.55556 315.6375 191.55556 313.21564ZM192.63368 313.21564Q192.63368 315.325 193.13368 316.02814Q193.63368 316.73126 194.35243 316.73126Q195.0868 316.73126 195.57118 316.02814Q196.07118 315.325 196.07118 313.21564Q196.07118 311.09064 195.57118 310.40314Q195.0868 309.7 194.3368 309.7Q193.61806 309.7 193.18056 310.3094Q192.63368 311.09064 192.63368 313.21564Z" fill-rule="nonzero"/><path fill="#000000" d="M225.70833 317.45L225.70833 315.3875L221.98958 315.3875L221.98958 314.41876L225.91145 308.85626L226.77083 308.85626L226.77083 314.41876L227.92708 314.41876L227.92708 315.3875L226.77083 315.3875L226.77083 317.45L225.70833 317.45ZM225.70833 314.41876L225.70833 310.5594L223.02083 314.41876L225.70833 314.41876ZM229.33333 313.21564Q229.33333 311.6844 229.64583 310.7625Q229.95833 309.825 230.5677 309.325Q231.1927 308.825 232.1302 308.825Q232.8177 308.825 233.33333 309.10626Q233.86458 309.3875 234.20833 309.91876Q234.55208 310.4344 234.73958 311.1844Q234.92708 311.9344 234.92708 313.21564Q234.92708 314.73126 234.61458 315.65314Q234.3177 316.575 233.6927 317.09064Q233.08333 317.59064 232.1302 317.59064Q230.89583 317.59064 230.17708 316.7Q229.33333 315.6375 229.33333 313.21564ZM230.41145 313.21564Q230.41145 315.325 230.91145 316.02814Q231.41145 316.73126 232.1302 316.73126Q232.86458 316.73126 233.34895 316.02814Q233.84895 315.325 233.84895 313.21564Q233.84895 311.09064 233.34895 310.40314Q232.86458 309.7 232.11458 309.7Q231.39583 309.7 230.95833 310.3094Q230.41145 311.09064 230.41145 313.21564ZM236.33333 313.21564Q236.33333 311.6844 236.64583 310.7625Q236.95833 309.825 237.5677 309.325Q238.1927 308.825 239.1302 308.825Q239.8177 308.825 240.33333 309.10626Q240.86458 309.3875 241.20833 309.91876Q241.55208 310.4344 241.73958 311.1844Q241.92708 311.9344 241.92708 313.21564Q241.92708 314.73126 241.61458 315.65314Q241.3177 316.575 240.6927 317.09064Q240.08333 317.59064 239.1302 317.59064Q237.89583 317.59064 237.17708 316.7Q236.33333 315.6375 236.33333 313.21564ZM237.41145 313.21564Q237.41145 315.325 237.91145 316.02814Q238.41145 316.73126 239.1302 316.73126Q239.86458 316.73126 240.34895 316.02814Q240.84895 315.325 240.84895 313.21564Q240.84895 311.09064 240.34895 310.40314Q239.86458 309.7 239.11458 309.7Q238.39583 309.7 237.95833 310.3094Q237.41145 311.09064 237.41145 313.21564ZM243.33333 313.21564Q243.33333 311.6844 243.64583 310.7625Q243.95833 309.825 244.5677 309.325Q245.1927 308.825 246.1302 308.825Q246.8177 308.825 247.33333 309.10626Q247.86458 309.3875 248.20833 309.91876Q248.55208 310.4344 248.73958 311.1844Q248.92708 311.9344 248.92708 313.21564Q248.92708 314.73126 248.61458 315.65314Q248.3177 316.575 247.6927 317.09064Q247.08333 317.59064 246.1302 317.59064Q244.89583 317.59064 244.17708 316.7Q243.33333 315.6375 243.33333 313.21564ZM244.41145 313.21564Q244.41145 315.325 244.91145 316.02814Q245.41145 316.73126 246.1302 316.73126Q246.86458 316.73126 247.34895 316.02814Q247.84895 315.325 247.84895 313.21564Q247.84895 311.09064 247.34895 310.40314Q246.86458 309.7 246.11458 309.7Q245.39583 309.7 244.95833 310.3094Q244.41145 311.09064 244.41145 313.21564Z" fill-rule="nonzero"/><path fill="#000000" d="M274.1111 315.2L275.2205 315.10626Q275.3455 315.91876 275.783 316.325Q276.2361 316.73126 276.87674 316.73126Q277.62674 316.73126 278.158 316.15314Q278.68924 315.575 278.68924 314.6375Q278.68924 313.73126 278.1736 313.21564Q277.6736 312.6844 276.8455 312.6844Q276.3455 312.6844 275.9236 312.91876Q275.51736 313.15314 275.283 313.5125L274.2986 313.3875L275.12674 308.98126L279.408 308.98126L279.408 309.98126L275.9705 309.98126L275.51736 312.29376Q276.283 311.7469 277.12674 311.7469Q278.25174 311.7469 279.01736 312.52814Q279.7986 313.3094 279.7986 314.54376Q279.7986 315.7 279.12674 316.5594Q278.2986 317.59064 276.87674 317.59064Q275.70486 317.59064 274.95486 316.9344Q274.2205 316.27814 274.1111 315.2ZM281.1111 313.21564Q281.1111 311.6844 281.4236 310.7625Q281.7361 309.825 282.3455 309.325Q282.9705 308.825 283.908 308.825Q284.5955 308.825 285.1111 309.10626Q285.64236 309.3875 285.9861 309.91876Q286.32986 310.4344 286.51736 311.1844Q286.70486 311.9344 286.70486 313.21564Q286.70486 314.73126 286.39236 315.65314Q286.0955 316.575 285.4705 317.09064Q284.8611 317.59064 283.908 317.59064Q282.6736 317.59064 281.95486 316.7Q281.1111 315.6375 281.1111 313.21564ZM282.18924 313.21564Q282.18924 315.325 282.68924 316.02814Q283.18924 316.73126 283.908 316.73126Q284.64236 316.73126 285.12674 316.02814Q285.62674 315.325 285.62674 313.21564Q285.62674 311.09064 285.12674 310.40314Q284.64236 309.7 283.89236 309.7Q283.1736 309.7 282.7361 310.3094Q282.18924 311.09064 282.18924 313.21564ZM288.1111 313.21564Q288.1111 311.6844 288.4236 310.7625Q288.7361 309.825 289.3455 309.325Q289.9705 308.825 290.908 308.825Q291.5955 308.825 292.1111 309.10626Q292.64236 309.3875 292.9861 309.91876Q293.32986 310.4344 293.51736 311.1844Q293.70486 311.9344 293.70486 313.21564Q293.70486 314.73126 293.39236 315.65314Q293.0955 316.575 292.4705 317.09064Q291.8611 317.59064 290.908 317.59064Q289.6736 317.59064 288.95486 316.7Q288.1111 315.6375 288.1111 313.21564ZM289.18924 313.21564Q289.18924 315.325 289.68924 316.02814Q290.18924 316.73126 290.908 316.73126Q291.64236 316.73126 292.12674 316.02814Q292.62674 315.325 292.62674 313.21564Q292.62674 311.09064 292.12674 310.40314Q291.64236 309.7 290.89236 309.7Q290.1736 309.7 289.7361 310.3094Q289.18924 311.09064 289.18924 313.21564ZM295.1111 313.21564Q295.1111 311.6844 295.4236 310.7625Q295.7361 309.825 296.3455 309.325Q296.9705 308.825 297.908 308.825Q298.5955 308.825 299.1111 309.10626Q299.64236 309.3875 299.9861 309.91876Q300.32986 310.4344 300.51736 311.1844Q300.70486 311.9344 300.70486 313.21564Q300.70486 314.73126 300.39236 315.65314Q300.0955 316.575 299.4705 317.09064Q298.8611 317.59064 297.908 317.59064Q296.6736 317.59064 295.95486 316.7Q295.1111 315.6375 295.1111 313.21564ZM296.18924 313.21564Q296.18924 315.325 296.68924 316.02814Q297.18924 316.73126 297.908 316.73126Q298.64236 316.73126 299.12674 316.02814Q299.62674 315.325 299.62674 313.21564Q299.62674 311.09064 299.12674 310.40314Q298.64236 309.7 297.89236 309.7Q297.1736 309.7 296.7361 310.3094Q296.18924 311.09064 296.18924 313.21564Z" fill-rule="nonzero"/><path fill="#000000" d="M331.35764 310.96564L330.31076 311.04376Q330.17014 310.41876 329.92014 310.1375Q329.48264 309.6844 328.85764 309.6844Q328.35764 309.6844 327.967 309.96564Q327.48264 310.34064 327.18576 311.04376Q326.9045 311.73126 326.8889 313.0125Q327.2639 312.4344 327.81076 312.15314Q328.37326 311.8719 328.98264 311.8719Q330.0295 311.8719 330.7639 312.65314Q331.5139 313.4344 331.5139 314.65314Q331.5139 315.46564 331.1545 316.16876Q330.81076 316.85626 330.2014 317.23126Q329.592 317.59064 328.8264 317.59064Q327.49826 317.59064 326.67014 316.6219Q325.842 315.65314 325.842 313.4344Q325.842 310.9344 326.7639 309.8094Q327.56076 308.825 328.92014 308.825Q329.93576 308.825 330.5764 309.40314Q331.23264 309.96564 331.35764 310.96564ZM327.06076 314.66876Q327.06076 315.21564 327.2795 315.71564Q327.5139 316.2 327.92014 316.46564Q328.342 316.73126 328.81076 316.73126Q329.467 316.73126 329.9514 316.2Q330.43576 315.65314 330.43576 314.73126Q330.43576 313.84064 329.9514 313.325Q329.48264 312.8094 328.7639 312.8094Q328.04514 312.8094 327.54514 313.325Q327.06076 313.84064 327.06076 314.66876ZM332.8889 313.21564Q332.8889 311.6844 333.2014 310.7625Q333.5139 309.825 334.12326 309.325Q334.74826 308.825 335.68576 308.825Q336.37326 308.825 336.8889 309.10626Q337.42014 309.3875 337.7639 309.91876Q338.10764 310.4344 338.29514 311.1844Q338.48264 311.9344 338.48264 313.21564Q338.48264 314.73126 338.17014 315.65314Q337.87326 316.575 337.24826 317.09064Q336.6389 317.59064 335.68576 317.59064Q334.4514 317.59064 333.73264 316.7Q332.8889 315.6375 332.8889 313.21564ZM333.967 313.21564Q333.967 315.325 334.467 316.02814Q334.967 316.73126 335.68576 316.73126Q336.42014 316.73126 336.9045 316.02814Q337.4045 315.325 337.4045 313.21564Q337.4045 311.09064 336.9045 310.40314Q336.42014 309.7 335.67014 309.7Q334.9514 309.7 334.5139 310.3094Q333.967 311.09064 333.967 313.21564ZM339.8889 313.21564Q339.8889 311.6844 340.2014 310.7625Q340.5139 309.825 341.12326 309.325Q341.74826 308.825 342.68576 308.825Q343.37326 308.825 343.8889 309.10626Q344.42014 309.3875 344.7639 309.91876Q345.10764 310.4344 345.29514 311.1844Q345.48264 311.9344 345.48264 313.21564Q345.48264 314.73126 345.17014 315.65314Q344.87326 316.575 344.24826 317.09064Q343.6389 317.59064 342.68576 317.59064Q341.4514 317.59064 340.73264 316.7Q339.8889 315.6375 339.8889 313.21564ZM340.967 313.21564Q340.967 315.325 341.467 316.02814Q341.967 316.73126 342.68576 316.73126Q343.42014 316.73126 343.9045 316.02814Q344.4045 315.325 344.4045 313.21564Q344.4045 311.09064 343.9045 310.40314Q343.42014 309.7 342.67014 309.7Q341.9514 309.7 341.5139 310.3094Q340.967 311.09064 340.967 313.21564ZM346.8889 313.21564Q346.8889 311.6844 347.2014 310.7625Q347.5139 309.825 348.12326 309.325Q348.74826 308.825 349.68576 308.825Q350.37326 308.825 350.8889 309.10626Q351.42014 309.3875 351.7639 309.91876Q352.10764 310.4344 352.29514 311.1844Q352.48264 311.9344 352.48264 313.21564Q352.48264 314.73126 352.17014 315.65314Q351.87326 316.575 351.24826 317.09064Q350.6389 317.59064 349.68576 317.59064Q348.4514 317.59064 347.73264 316.7Q346.8889 315.6375 346.8889 313.21564ZM347.967 313.21564Q347.967 315.325 348.467 316.02814Q348.967 316.73126 349.68576 316.73126Q350.42014 316.73126 350.9045 316.02814Q351.4045 315.325 351.4045 313.21564Q351.4045 311.09064 350.9045 310.40314Q350.42014 309.7 349.67014 309.7Q348.9514 309.7 348.5139 310.3094Q347.967 311.09064 347.967 313.21564Z" fill-rule="nonzero"/><path fill="#000000" d="M377.72916 309.98126L377.72916 308.96564L383.29166 308.96564L383.29166 309.79376Q382.47916 310.66876 381.66666 312.1219Q380.86978 313.5594 380.43228 315.09064Q380.10416 316.16876 380.02603 317.45L378.93228 317.45Q378.9479 316.4344 379.3229 314.9969Q379.71353 313.5594 380.41666 312.23126Q381.1354 310.90314 381.9479 309.98126L377.72916 309.98126ZM384.66666 313.21564Q384.66666 311.6844 384.97916 310.7625Q385.29166 309.825 385.90103 309.325Q386.52603 308.825 387.46353 308.825Q388.15103 308.825 388.66666 309.10626Q389.1979 309.3875 389.54166 309.91876Q389.8854 310.4344 390.0729 311.1844Q390.2604 311.9344 390.2604 313.21564Q390.2604 314.73126 389.9479 315.65314Q389.65103 316.575 389.02603 317.09064Q388.41666 317.59064 387.46353 317.59064Q386.22916 317.59064 385.5104 316.7Q384.66666 315.6375 384.66666 313.21564ZM385.74478 313.21564Q385.74478 315.325 386.24478 316.02814Q386.74478 316.73126 387.46353 316.73126Q388.1979 316.73126 388.68228 316.02814Q389.18228 315.325 389.18228 313.21564Q389.18228 311.09064 388.68228 310.40314Q388.1979 309.7 387.4479 309.7Q386.72916 309.7 386.29166 310.3094Q385.74478 311.09064 385.74478 313.21564ZM391.66666 313.21564Q391.66666 311.6844 391.97916 310.7625Q392.29166 309.825 392.90103 309.325Q393.52603 308.825 394.46353 308.825Q395.15103 308.825 395.66666 309.10626Q396.1979 309.3875 396.54166 309.91876Q396.8854 310.4344 397.0729 311.1844Q397.2604 311.9344 397.2604 313.21564Q397.2604 314.73126 396.9479 315.65314Q396.65103 316.575 396.02603 317.09064Q395.41666 317.59064 394.46353 317.59064Q393.22916 317.59064 392.5104 316.7Q391.66666 315.6375 391.66666 313.21564ZM392.74478 313.21564Q392.74478 315.325 393.24478 316.02814Q393.74478 316.73126 394.46353 316.73126Q395.1979 316.73126 395.68228 316.02814Q396.18228 315.325 396.18228 313.21564Q396.18228 311.09064 395.68228 310.40314Q395.1979 309.7 394.4479 309.7Q393.72916 309.7 393.29166 310.3094Q392.74478 311.09064 392.74478 313.21564ZM398.66666 313.21564Q398.66666 311.6844 398.97916 310.7625Q399.29166 309.825 399.90103 309.325Q400.52603 308.825 401.46353 308.825Q402.15103 308.825 402.66666 309.10626Q403.1979 309.3875 403.54166 309.91876Q403.8854 310.4344 404.0729 311.1844Q404.2604 311.9344 404.2604 313.21564Q404.2604 314.73126 403.9479 315.65314Q403.65103 316.575 403.02603 317.09064Q402.41666 317.59064 401.46353 317.59064Q400.22916 317.59064 399.5104 316.7Q398.66666 315.6375 398.66666 313.21564ZM399.74478 313.21564Q399.74478 315.325 400.24478 316.02814Q400.74478 316.73126 401.46353 316.73126Q402.1979 316.73126 402.68228 316.02814Q403.18228 315.325 403.18228 313.21564Q403.18228 311.09064 402.68228 310.40314Q402.1979 309.7 401.4479 309.7Q400.72916 309.7 400.29166 310.3094Q399.74478 311.09064 399.74478 313.21564Z" fill-rule="nonzero"/><path fill="#000000" d="M431.06946 312.79376Q430.4132 312.54376 430.08508 312.10626Q429.77258 311.65314 429.77258 311.04376Q429.77258 310.10626 430.44446 309.46564Q431.13196 308.825 432.24133 308.825Q433.36633 308.825 434.05383 309.48126Q434.74133 310.1375 434.74133 311.075Q434.74133 311.66876 434.42883 312.10626Q434.11633 312.54376 433.4757 312.79376Q434.27258 313.04376 434.67883 313.6219Q435.08508 314.2 435.08508 314.9969Q435.08508 316.09064 434.30383 316.84064Q433.5382 317.59064 432.25696 317.59064Q430.99133 317.59064 430.21008 316.84064Q429.42883 316.09064 429.42883 314.96564Q429.42883 314.1219 429.8507 313.5594Q430.2882 312.9969 431.06946 312.79376ZM430.8507 310.9969Q430.8507 311.60626 431.24133 311.9969Q431.64758 312.3875 432.27258 312.3875Q432.88196 312.3875 433.27258 312.0125Q433.6632 311.6219 433.6632 311.0594Q433.6632 310.48126 433.25696 310.09064Q432.8507 309.6844 432.25696 309.6844Q431.64758 309.6844 431.24133 310.075Q430.8507 310.46564 430.8507 310.9969ZM430.52258 314.96564Q430.52258 315.41876 430.7257 315.84064Q430.94446 316.2625 431.36633 316.4969Q431.7882 316.73126 432.27258 316.73126Q433.02258 316.73126 433.50696 316.2469Q434.00696 315.7625 434.00696 315.0125Q434.00696 314.2469 433.50696 313.7469Q433.00696 313.2469 432.24133 313.2469Q431.49133 313.2469 431.00696 313.7469Q430.52258 314.23126 430.52258 314.96564ZM436.44446 313.21564Q436.44446 311.6844 436.75696 310.7625Q437.06946 309.825 437.67883 309.325Q438.30383 308.825 439.24133 308.825Q439.92883 308.825 440.44446 309.10626Q440.9757 309.3875 441.31946 309.91876Q441.6632 310.4344 441.8507 311.1844Q442.0382 311.9344 442.0382 313.21564Q442.0382 314.73126 441.7257 315.65314Q441.42883 316.575 440.80383 317.09064Q440.19446 317.59064 439.24133 317.59064Q438.00696 317.59064 437.2882 316.7Q436.44446 315.6375 436.44446 313.21564ZM437.52258 313.21564Q437.52258 315.325 438.02258 316.02814Q438.52258 316.73126 439.24133 316.73126Q439.9757 316.73126 440.46008 316.02814Q440.96008 315.325 440.96008 313.21564Q440.96008 311.09064 440.46008 310.40314Q439.9757 309.7 439.2257 309.7Q438.50696 309.7 438.06946 310.3094Q437.52258 311.09064 437.52258 313.21564ZM443.44446 313.21564Q443.44446 311.6844 443.75696 310.7625Q444.06946 309.825 444.67883 309.325Q445.30383 308.825 446.24133 308.825Q446.92883 308.825 447.44446 309.10626Q447.9757 309.3875 448.31946 309.91876Q448.6632 310.4344 448.8507 311.1844Q449.0382 311.9344 449.0382 313.21564Q449.0382 314.73126 448.7257 315.65314Q448.42883 316.575 447.80383 317.09064Q447.19446 317.59064 446.24133 317.59064Q445.00696 317.59064 444.2882 316.7Q443.44446 315.6375 443.44446 313.21564ZM444.52258 313.21564Q444.52258 315.325 445.02258 316.02814Q445.52258 316.73126 446.24133 316.73126Q446.9757 316.73126 447.46008 316.02814Q447.96008 315.325 447.96008 313.21564Q447.96008 311.09064 447.46008 310.40314Q446.9757 309.7 446.2257 309.7Q445.50696 309.7 445.06946 310.3094Q444.52258 311.09064 444.52258 313.21564ZM450.44446 313.21564Q450.44446 311.6844 450.75696 310.7625Q451.06946 309.825 451.67883 309.325Q452.30383 308.825 453.24133 308.825Q453.92883 308.825 454.44446 309.10626Q454.9757 309.3875 455.31946 309.91876Q455.6632 310.4344 455.8507 311.1844Q456.0382 311.9344 456.0382 313.21564Q456.0382 314.73126 455.7257 315.65314Q455.42883 316.575 454.80383 317.09064Q454.19446 317.59064 453.24133 317.59064Q452.00696 317.59064 451.2882 316.7Q450.44446 315.6375 450.44446 313.21564ZM451.52258 313.21564Q451.52258 315.325 452.02258 316.02814Q452.52258 316.73126 453.24133 316.73126Q453.9757 316.73126 454.46008 316.02814Q454.96008 315.325 454.96008 313.21564Q454.96008 311.09064 454.46008 310.40314Q453.9757 309.7 453.2257 309.7Q452.50696 309.7 452.06946 310.3094Q451.52258 311.09064 451.52258 313.21564Z" fill-rule="nonzero"/><path fill="#000000" d="M481.37848 315.46564L482.3941 315.3719Q482.5191 316.09064 482.87848 316.41876Q483.25348 316.73126 483.81598 316.73126Q484.30035 316.73126 484.65973 316.5125Q485.03473 316.27814 485.2691 315.91876Q485.50348 315.54376 485.65973 314.91876Q485.81598 314.27814 485.81598 313.6219Q485.81598 313.54376 485.81598 313.40314Q485.50348 313.90314 484.9566 314.23126Q484.40973 314.54376 483.7691 314.54376Q482.69098 314.54376 481.9566 313.77814Q481.22223 312.9969 481.22223 311.73126Q481.22223 310.41876 481.98785 309.6219Q482.7691 308.825 483.92535 308.825Q484.75348 308.825 485.44098 309.27814Q486.1441 309.73126 486.50348 310.575Q486.86285 311.40314 486.86285 312.98126Q486.86285 314.6219 486.50348 315.60626Q486.15973 316.575 485.44098 317.09064Q484.73785 317.59064 483.80035 317.59064Q482.78473 317.59064 482.1441 317.04376Q481.50348 316.48126 481.37848 315.46564ZM485.69098 311.66876Q485.69098 310.7625 485.2066 310.23126Q484.73785 309.7 484.05035 309.7Q483.34723 309.7 482.81598 310.27814Q482.30035 310.84064 482.30035 311.7625Q482.30035 312.575 482.80035 313.09064Q483.30035 313.60626 484.0191 313.60626Q484.75348 313.60626 485.22223 313.09064Q485.69098 312.575 485.69098 311.66876ZM488.22223 313.21564Q488.22223 311.6844 488.53473 310.7625Q488.84723 309.825 489.4566 309.325Q490.0816 308.825 491.0191 308.825Q491.7066 308.825 492.22223 309.10626Q492.75348 309.3875 493.09723 309.91876Q493.44098 310.4344 493.62848 311.1844Q493.81598 311.9344 493.81598 313.21564Q493.81598 314.73126 493.50348 315.65314Q493.2066 316.575 492.5816 317.09064Q491.97223 317.59064 491.0191 317.59064Q489.78473 317.59064 489.06598 316.7Q488.22223 315.6375 488.22223 313.21564ZM489.30035 313.21564Q489.30035 315.325 489.80035 316.02814Q490.30035 316.73126 491.0191 316.73126Q491.75348 316.73126 492.23785 316.02814Q492.73785 315.325 492.73785 313.21564Q492.73785 311.09064 492.23785 310.40314Q491.75348 309.7 491.00348 309.7Q490.28473 309.7 489.84723 310.3094Q489.30035 311.09064 489.30035 313.21564ZM495.22223 313.21564Q495.22223 311.6844 495.53473 310.7625Q495.84723 309.825 496.4566 309.325Q497.0816 308.825 498.0191 308.825Q498.7066 308.825 499.22223 309.10626Q499.75348 309.3875 500.09723 309.91876Q500.44098 310.4344 500.62848 311.1844Q500.81598 311.9344 500.81598 313.21564Q500.81598 314.73126 500.50348 315.65314Q500.2066 316.575 499.5816 317.09064Q498.97223 317.59064 498.0191 317.59064Q496.78473 317.59064 496.06598 316.7Q495.22223 315.6375 495.22223 313.21564ZM496.30035 313.21564Q496.30035 315.325 496.80035 316.02814Q497.30035 316.73126 498.0191 316.73126Q498.75348 316.73126 499.23785 316.02814Q499.73785 315.325 499.73785 313.21564Q499.73785 311.09064 499.23785 310.40314Q498.75348 309.7 498.00348 309.7Q497.28473 309.7 496.84723 310.3094Q496.30035 311.09064 496.30035 313.21564ZM502.22223 313.21564Q502.22223 311.6844 502.53473 310.7625Q502.84723 309.825 503.4566 309.325Q504.0816 308.825 505.0191 308.825Q505.7066 308.825 506.22223 309.10626Q506.75348 309.3875 507.09723 309.91876Q507.44098 310.4344 507.62848 311.1844Q507.81598 311.9344 507.81598 313.21564Q507.81598 314.73126 507.50348 315.65314Q507.2066 316.575 506.5816 317.09064Q505.97223 317.59064 505.0191 317.59064Q503.78473 317.59064 503.06598 316.7Q502.22223 315.6375 502.22223 313.21564ZM503.30035 313.21564Q503.30035 315.325 503.80035 316.02814Q504.30035 316.73126 505.0191 316.73126Q505.75348 316.73126 506.23785 316.02814Q506.73785 315.325 506.73785 313.21564Q506.73785 311.09064 506.23785 310.40314Q505.75348 309.7 505.00348 309.7Q504.28473 309.7 503.84723 310.3094Q503.30035 311.09064 503.30035 313.21564Z" fill-rule="nonzero"/><path fill="#000000" d="M533.46875 317.45L532.4219 317.45L532.4219 310.73126Q532.03125 311.09064 531.40625 311.46564Q530.7969 311.825 530.3125 311.9969L530.3125 310.98126Q531.1875 310.5594 531.84375 309.98126Q532.5156 309.3875 532.7969 308.825L533.46875 308.825L533.46875 317.45ZM536.5 313.21564Q536.5 311.6844 536.8125 310.7625Q537.125 309.825 537.7344 309.325Q538.3594 308.825 539.2969 308.825Q539.9844 308.825 540.5 309.10626Q541.03125 309.3875 541.375 309.91876Q541.71875 310.4344 541.90625 311.1844Q542.09375 311.9344 542.09375 313.21564Q542.09375 314.73126 541.78125 315.65314Q541.4844 316.575 540.8594 317.09064Q540.25 317.59064 539.2969 317.59064Q538.0625 317.59064 537.34375 316.7Q536.5 315.6375 536.5 313.21564ZM537.5781 313.21564Q537.5781 315.325 538.0781 316.02814Q538.5781 316.73126 539.2969 316.73126Q540.03125 316.73126 540.5156 316.02814Q541.0156 315.325 541.0156 313.21564Q541.0156 311.09064 540.5156 310.40314Q540.03125 309.7 539.28125 309.7Q538.5625 309.7 538.125 310.3094Q537.5781 311.09064 537.5781 313.21564ZM543.5 313.21564Q543.5 311.6844 543.8125 310.7625Q544.125 309.825 544.7344 309.325Q545.3594 308.825 546.2969 308.825Q546.9844 308.825 547.5 309.10626Q548.03125 309.3875 548.375 309.91876Q548.71875 310.4344 548.90625 311.1844Q549.09375 311.9344 549.09375 313.21564Q549.09375 314.73126 548.78125 315.65314Q548.4844 316.575 547.8594 317.09064Q547.25 317.59064 546.2969 317.59064Q545.0625 317.59064 544.34375 316.7Q543.5 315.6375 543.5 313.21564ZM544.5781 313.21564Q544.5781 315.325 545.0781 316.02814Q545.5781 316.73126 546.2969 316.73126Q547.03125 316.73126 547.5156 316.02814Q548.0156 315.325 548.0156 313.21564Q548.0156 311.09064 547.5156 310.40314Q547.03125 309.7 546.28125 309.7Q545.5625 309.7 545.125 310.3094Q544.5781 311.09064 544.5781 313.21564ZM550.5 313.21564Q550.5 311.6844 550.8125 310.7625Q551.125 309.825 551.7344 309.325Q552.3594 308.825 553.2969 308.825Q553.9844 308.825 554.5 309.10626Q555.03125 309.3875 555.375 309.91876Q555.71875 310.4344 555.90625 311.1844Q556.09375 311.9344 556.09375 313.21564Q556.09375 314.73126 555.78125 315.65314Q555.4844 316.575 554.8594 317.09064Q554.25 317.59064 553.2969 317.59064Q552.0625 317.59064 551.34375 316.7Q550.5 315.6375 550.5 313.21564ZM551.5781 313.21564Q551.5781 315.325 552.0781 316.02814Q552.5781 316.73126 553.2969 316.73126Q554.03125 316.73126 554.5156 316.02814Q555.0156 315.325 555.0156 313.21564Q555.0156 311.09064 554.5156 310.40314Q554.03125 309.7 553.28125 309.7Q552.5625 309.7 552.125 310.3094Q551.5781 311.09064 551.5781 313.21564ZM557.5 313.21564Q557.5 311.6844 557.8125 310.7625Q558.125 309.825 558.7344 309.325Q559.3594 308.825 560.2969 308.825Q560.9844 308.825 561.5 309.10626Q562.03125 309.3875 562.375 309.91876Q562.71875 310.4344 562.90625 311.1844Q563.09375 311.9344 563.09375 313.21564Q563.09375 314.73126 562.78125 315.65314Q562.4844 316.575 561.8594 317.09064Q561.25 317.59064 560.2969 317.59064Q559.0625 317.59064 558.34375 316.7Q557.5 315.6375 557.5 313.21564ZM558.5781 313.21564Q558.5781 315.325 559.0781 316.02814Q559.5781 316.73126 560.2969 316.73126Q561.03125 316.73126 561.5156 316.02814Q562.0156 315.325 562.0156 313.21564Q562.0156 311.09064 561.5156 310.40314Q561.03125 309.7 560.28125 309.7Q559.5625 309.7 559.125 310.3094Q558.5781 311.09064 558.5781 313.21564Z" fill-rule="nonzero"/><path fill="#4285f4" d="M243.0 20.55C243.0 19.997715 243.44771 19.55 244.0 19.55L254.0 19.55C254.55229 19.55 255.0 19.997715 255.0 20.55L255.0 30.55C255.0 31.102285 254.55229 31.55 254.0 31.55L244.0 31.55C243.44771 31.55 243.0 31.102285 243.0 30.55Z" fill-rule="nonzero"/><path fill="#1a1a1a" d="M263.92188 29.55L263.92188 20.95625L267.17188 20.95625Q268.01562 20.95625 268.46875 21.034374Q269.10938 21.14375 269.53125 21.440624Q269.96875 21.7375 270.21875 22.26875Q270.48438 22.8 270.48438 23.440624Q270.48438 24.534374 269.78125 25.3Q269.09375 26.05 267.26562 26.05L265.0625 26.05L265.0625 29.55L263.92188 29.55ZM265.0625 25.05L267.28125 25.05Q268.39062 25.05 268.84375 24.64375Q269.3125 24.221874 269.3125 23.471874Q269.3125 22.940624 269.03125 22.565624Q268.76562 22.175 268.32812 22.05Q268.03125 21.971874 267.26562 21.971874L265.0625 21.971874L265.0625 25.05ZM271.78125 29.55L271.78125 23.33125L272.73438 23.33125L272.73438 24.26875Q273.09375 23.6125 273.39062 23.409374Q273.70312 23.190624 274.07812 23.190624Q274.60938 23.190624 275.15625 23.51875L274.79688 24.503124Q274.40625 24.26875 274.03125 24.26875Q273.67188 24.26875 273.39062 24.4875Q273.125 24.690624 273.01562 25.065624Q272.82812 25.628124 272.82812 26.284374L272.82812 29.55L271.78125 29.55ZM280.04688 27.55L281.14062 27.675Q280.89062 28.628124 280.1875 29.159374Q279.48438 29.690624 278.40625 29.690624Q277.04688 29.690624 276.23438 28.846874Q275.4375 28.003124 275.4375 26.4875Q275.4375 24.925 276.25 24.065624Q277.0625 23.190624 278.34375 23.190624Q279.59375 23.190624 280.375 24.034374Q281.17188 24.878124 281.17188 26.425Q281.17188 26.51875 281.17188 26.70625L276.53125 26.70625Q276.59375 27.7375 277.10938 28.284374Q277.625 28.815624 278.40625 28.815624Q278.98438 28.815624 279.39062 28.51875Q279.8125 28.20625 280.04688 27.55ZM276.59375 25.846874L280.0625 25.846874Q280.0 25.05 279.67188 24.659374Q279.15625 24.05 278.35938 24.05Q277.625 24.05 277.125 24.534374Q276.64062 25.01875 276.59375 25.846874ZM282.375 27.690624L283.40625 27.534374Q283.5 28.159374 283.89062 28.4875Q284.29688 28.815624 285.03125 28.815624Q285.75 28.815624 286.09375 28.534374Q286.45312 28.2375 286.45312 27.83125Q286.45312 27.471874 286.14062 27.26875Q285.92188 27.128124 285.0625 26.909374Q283.90625 26.6125 283.45312 26.409374Q283.01562 26.190624 282.78125 25.815624Q282.54688 25.440624 282.54688 24.971874Q282.54688 24.565624 282.73438 24.20625Q282.92188 23.846874 283.25 23.6125Q283.5 23.440624 283.92188 23.315624Q284.34375 23.190624 284.84375 23.190624Q285.5625 23.190624 286.10938 23.409374Q286.67188 23.6125 286.9375 23.971874Q287.20312 24.33125 287.29688 24.925L286.26562 25.065624Q286.20312 24.596874 285.85938 24.33125Q285.53125 24.05 284.90625 24.05Q284.1875 24.05 283.875 24.3Q283.5625 24.534374 283.5625 24.8625Q283.5625 25.065624 283.6875 25.221874Q283.82812 25.39375 284.09375 25.503124Q284.25 25.565624 285.03125 25.76875Q286.15625 26.08125 286.59375 26.26875Q287.03125 26.45625 287.28125 26.815624Q287.53125 27.175 287.53125 27.721874Q287.53125 28.253124 287.21875 28.721874Q286.92188 29.175 286.34375 29.440624Q285.76562 29.690624 285.03125 29.690624Q283.8125 29.690624 283.17188 29.190624Q282.54688 28.675 282.375 27.690624ZM289.375 27.690624L290.40625 27.534374Q290.5 28.159374 290.89062 28.4875Q291.29688 28.815624 292.03125 28.815624Q292.75 28.815624 293.09375 28.534374Q293.45312 28.2375 293.45312 27.83125Q293.45312 27.471874 293.14062 27.26875Q292.92188 27.128124 292.0625 26.909374Q290.90625 26.6125 290.45312 26.409374Q290.01562 26.190624 289.78125 25.815624Q289.54688 25.440624 289.54688 24.971874Q289.54688 24.565624 289.73438 24.20625Q289.92188 23.846874 290.25 23.6125Q290.5 23.440624 290.92188 23.315624Q291.34375 23.190624 291.84375 23.190624Q292.5625 23.190624 293.10938 23.409374Q293.67188 23.6125 293.9375 23.971874Q294.20312 24.33125 294.29688 24.925L293.26562 25.065624Q293.20312 24.596874 292.85938 24.33125Q292.53125 24.05 291.90625 24.05Q291.1875 24.05 290.875 24.3Q290.5625 24.534374 290.5625 24.8625Q290.5625 25.065624 290.6875 25.221874Q290.82812 25.39375 291.09375 25.503124Q291.25 25.565624 292.03125 25.76875Q293.15625 26.08125 293.59375 26.26875Q294.03125 26.45625 294.28125 26.815624Q294.53125 27.175 294.53125 27.721874Q294.53125 28.253124 294.21875 28.721874Q293.92188 29.175 293.34375 29.440624Q292.76562 29.690624 292.03125 29.690624Q290.8125 29.690624 290.17188 29.190624Q289.54688 28.675 289.375 27.690624ZM300.875 29.55L300.875 28.628124Q300.14062 29.690624 298.89062 29.690624Q298.34375 29.690624 297.85938 29.4875Q297.39062 29.26875 297.15625 28.95625Q296.92188 28.628124 296.82812 28.159374Q296.76562 27.8625 296.76562 27.175L296.76562 23.33125L297.82812 23.33125L297.82812 26.784374Q297.82812 27.596874 297.89062 27.89375Q297.98438 28.3 298.29688 28.55Q298.625 28.784374 299.10938 28.784374Q299.57812 28.784374 299.98438 28.55Q300.40625 28.3 300.57812 27.878124Q300.76562 27.45625 300.76562 26.659374L300.76562 23.33125L301.8125 23.33125L301.8125 29.55L300.875 29.55ZM303.78125 29.55L303.78125 23.33125L304.73438 23.33125L304.73438 24.26875Q305.09375 23.6125 305.39062 23.409374Q305.70312 23.190624 306.07812 23.190624Q306.60938 23.190624 307.15625 23.51875L306.79688 24.503124Q306.40625 24.26875 306.03125 24.26875Q305.67188 24.26875 305.39062 24.4875Q305.125 24.690624 305.01562 25.065624Q304.82812 25.628124 304.82812 26.284374L304.82812 29.55L303.78125 29.55ZM312.04688 27.55L313.14062 27.675Q312.89062 28.628124 312.1875 29.159374Q311.48438 29.690624 310.40625 29.690624Q309.04688 29.690624 308.23438 28.846874Q307.4375 28.003124 307.4375 26.4875Q307.4375 24.925 308.25 24.065624Q309.0625 23.190624 310.34375 23.190624Q311.59375 23.190624 312.375 24.034374Q313.17188 24.878124 313.17188 26.425Q313.17188 26.51875 313.17188 26.70625L308.53125 26.70625Q308.59375 27.7375 309.10938 28.284374Q309.625 28.815624 310.40625 28.815624Q310.98438 28.815624 311.39062 28.51875Q311.8125 28.20625 312.04688 27.55ZM308.59375 25.846874L312.0625 25.846874Q312.0 25.05 311.67188 24.659374Q311.15625 24.05 310.35938 24.05Q309.625 24.05 309.125 24.534374Q308.64062 25.01875 308.59375 25.846874Z" fill-rule="nonzero"/><path stroke="#ea4335" stroke-width="4.0" stroke-linecap="butt" d="M330.0 25.55L342.0 25.55" fill-rule="nonzero"/><path fill="#1a1a1a" d="M353.10938 29.55L353.10938 21.971874L350.28125 21.971874L350.28125 20.95625L357.09375 20.95625L357.09375 21.971874L354.25 21.971874L354.25 29.55L353.10938 29.55Z" fill-rule="nonzero"/></svg>