<svg version="1.1" viewBox="0.0 0.0 600.0 371.0" fill="none" stroke="none" stroke-linecap="square" stroke-miterlimit="10" width="600" height="371" xmlns:xlink="http://www.w3.org/1999/xlink" xmlns="http://www.w3.org/2000/svg"><path fill="#ffffff" d="M0 0L600.0 0L600.0 371.0L0 371.0L0 0Z" fill-rule="nonzero"/><path stroke="#333333" stroke-width="1.0" stroke-linecap="butt" d="M84.5 300.5L581.5 300.5" fill-rule="nonzero"/><path stroke="#cccccc" stroke-width="1.0" stroke-linecap="butt" d="M84.5 240.5L581.5 240.5" fill-rule="nonzero"/><path stroke="#cccccc" stroke-width="1.0" stroke-linecap="butt" d="M84.5 181.5L581.5 181.5" fill-rule="nonzero"/><path stroke="#cccccc" stroke-width="1.0" stroke-linecap="butt" d="M84.5 121.5L581.5 121.5" fill-rule="nonzero"/><path stroke="#cccccc" stroke-width="1.0" stroke-linecap="butt" d="M84.5 61.5L581.5 61.5" fill-rule="nonzero"/><clipPath id="id_0"><path d="M84.55 61.916668L581.45 61.916668L581.45 300.45L84.55 300.45L84.55 61.916668Z" clip-rule="nonzero"/></clipPath><path stroke="#000000" stroke-width="2.0" stroke-linecap="butt" stroke-opacity="0.0" clip-path="url(#id_0)" d="M152.0 300.0L108.0 300.0L108.0 107.0C108.0 105.89543 108.89543 105.0 110.0 105.0L150.0 105.0C151.10457 105.0 152.0 105.89543 152.0 107.0Z" fill-rule="nonzero"/><path fill="#4285f4" clip-path="url(#id_0)" d="M152.0 300.0L108.0 300.0L108.0 107.0C108.0 105.89543 108.89543 105.0 110.0 105.0L150.0 105.0C151.10457 105.0 152.0 105.89543 152.0 107.0Z" fill-rule="nonzero"/><path stroke="#000000" stroke-width="2.0" stroke-linecap="butt" stroke-opacity="0.0" clip-path="url(#id_0)" d="M220.0 300.0L176.0 300.0L176.0 252.0C176.0 250.89543 176.89543 250.0 178.0 250.0L218.0 250.0C219.10457 250.0 220.0 250.89543 220.0 252.0Z" fill-rule="nonzero"/><path fill="#4285f4" clip-path="url(#id_0)" d="M220.0 300.0L176.0 300.0L176.0 252.0C176.0 250.89543 176.89543 250.0 178.0 250.0L218.0 250.0C219.10457 250.0 220.0 250.89543 220.0 252.0Z" fill-rule="nonzero"/><path stroke="#000000" stroke-width="2.0" stroke-linecap="butt" stroke-opacity="0.0" clip-path="url(#id_0)" d="M287.0 300.0L243.0 300.0L243.0 289.0C243.0 287.89542 243.89543 287.0 245.0 287.0L285.0 287.0C286.10458 287.0 287.0 287.89542 287.0 289.0Z" fill-rule="nonzero"/><path fill="#4285f4" clip-path="url(#id_0)" d="M287.0 300.0L243.0 300.0L243.0 289.0C243.0 287.89542 243.89543 287.0 245.0 287.0L285.0 287.0C286.10458 287.0 287.0 287.89542 287.0 289.0Z" fill-rule="nonzero"/><path stroke="#000000" stroke-width="2.0" stroke-linecap="butt" stroke-opacity="0.0" clip-path="url(#id_0)" d="M355.0 300.0L311.0 300.0L311.0 298.5C311.0 297.67157 311.67157 297.0 312.5 297.0L353.5 297.0C354.32843 297.0 355.0 297.67157 355.0 298.5Z" fill-rule="nonzero"/><path fill="#4285f4" clip-path="url(#id_0)" d="M355.0 300.0L311.0 300.0L311.0 298.5C311.0 297.67157 311.67157 297.0 312.5 297.0L353.5 297.0C354.32843 297.0 355.0 297.67157 355.0 298.5Z" fill-rule="nonzero"/><path stroke="#000000" stroke-width="2.0" stroke-linecap="butt" stroke-opacity="0.0" clip-path="url(#id_0)" d="M423.0 300.0L379.0 300.0L379.0 299.5C379.0 299.22385 379.22385 299.0 379.5 299.0L422.5 299.0C422.77615 299.0 423.0 299.22385 423.0 299.5Z" fill-rule="nonzero"/><path fill="#4285f4" clip-path="url(#id_0)" d="M423.0 300.0L379.0 300.0L379.0 299.5C379.0 299.22385 379.22385 299.0 379.5 299.0L422.5 299.0C422.77615 299.0 423.0 299.22385 423.0 299.5Z" fill-rule="nonzero"/><path stroke="#000000" stroke-width="2.0" stroke-linecap="butt" stroke-opacity="0.0" clip-path="url(#id_0)" d="M490.0 300.0L446.0 300.0L446.0 300.0C446.0 300.0 446.0 300.0 446.0 300.0L490.0 300.0C490.0 300.0 490.0 300.0 490.0 300.0Z" fill-rule="nonzero"/><path fill="#4285f4" clip-path="url(#id_0)" d="M490.0 300.0L446.0 300.0L446.0 300.0C446.0 300.0 446.0 300.0 446.0 300.0L490.0 300.0C490.0 300.0 490.0 300.0 490.0 300.0Z" fill-rule="nonzero"/><path stroke="#000000" stroke-width="2.0" stroke-linecap="butt" stroke-opacity="0.0" clip-path="url(#id_0)" d="M558.0 300.0L514.0 300.0L514.0 300.0C514.0 300.0 514.0 300.0 514.0 300.0L558.0 300.0C558.0 300.0 558.0 300.0 558.0 300.0Z" fill-rule="nonzero"/><path fill="#4285f4" clip-path="url(#id_0)" d="M558.0 300.0L514.0 300.0L514.0 300.0C514.0 300.0 514.0 300.0 514.0 300.0L558.0 300.0C558.0 300.0 558.0 300.0 558.0 300.0Z" fill-rule="nonzero"/><path fill="#000000" d="M303.92188 349.45L303.92188 340.85626L307.17188 340.85626Q308.01562 340.85626 308.46875 340.9344Q309.10938 341.04376 309.53125 341.34064Q309.96875 341.6375 310.21875 342.16876Q310.48438 342.7 310.48438 343.34064Q310.48438 344.4344 309.78125 345.2Q309.09375 345.95 307.26562 345.95L305.0625 345.95L305.0625 349.45L303.92188 349.45ZM305.0625 344.95L307.28125 344.95Q308.39062 344.95 308.84375 344.54376Q309.3125 344.1219 309.3125 343.3719Q309.3125 342.84064 309.03125 342.46564Q308.76562 342.075 308.32812 341.95Q308.03125 341.8719 307.26562 341.8719L305.0625 341.8719L305.0625 344.95ZM311.78125 349.45L311.78125 343.23126L312.73438 343.23126L312.73438 344.16876Q313.09375 343.5125 313.39062 343.3094Q313.70312 343.09064 314.07812 343.09064Q314.60938 343.09064 315.15625 343.41876L314.79688 344.40314Q314.40625 344.16876 314.03125 344.16876Q313.67188 344.16876 313.39062 344.3875Q313.125 344.59064 313.01562 344.96564Q312.82812 345.52814 312.82812 346.1844L312.82812 349.45L311.78125 349.45ZM315.40625 346.34064Q315.40625 344.60626 316.35938 343.77814Q317.15625 343.09064 318.3125 343.09064Q319.59375 343.09064 320.40625 343.9344Q321.23438 344.7625 321.23438 346.2469Q321.23438 347.45 320.875 348.1375Q320.51562 348.825 319.8125 349.21564Q319.125 349.59064 318.3125 349.59064Q317.01562 349.59064 316.20312 348.7625Q315.40625 347.91876 315.40625 346.34064ZM316.48438 346.34064Q316.48438 347.52814 317.0 348.1219Q317.53125 348.71564 318.3125 348.71564Q319.10938 348.71564 319.625 348.1219Q320.14062 347.52814 320.14062 346.3094Q320.14062 345.15314 319.60938 344.5594Q319.09375 343.96564 318.3125 343.96564Q317.53125 343.96564 317.0 344.5594Q316.48438 345.1375 316.48438 346.34064ZM326.85938 347.16876L327.89062 347.3094Q327.71875 348.3719 327.01562 348.98126Q326.3125 349.59064 325.29688 349.59064Q324.01562 349.59064 323.23438 348.7625Q322.46875 347.91876 322.46875 346.35626Q322.46875 345.35626 322.79688 344.60626Q323.14062 343.84064 323.8125 343.46564Q324.5 343.09064 325.3125 343.09064Q326.3125 343.09064 326.95312 343.60626Q327.60938 344.10626 327.79688 345.0594L326.76562 345.21564Q326.625 344.59064 326.25 344.27814Q325.875 343.95 325.34375 343.95Q324.54688 343.95 324.04688 344.52814Q323.54688 345.09064 323.54688 346.325Q323.54688 347.59064 324.03125 348.15314Q324.51562 348.71564 325.28125 348.71564Q325.90625 348.71564 326.3125 348.34064Q326.73438 347.96564 326.85938 347.16876ZM333.04688 347.45L334.14062 347.575Q333.89062 348.52814 333.1875 349.0594Q332.48438 349.59064 331.40625 349.59064Q330.04688 349.59064 329.23438 348.7469Q328.4375 347.90314 328.4375 346.3875Q328.4375 344.825 329.25 343.96564Q330.0625 343.09064 331.34375 343.09064Q332.59375 343.09064 333.375 343.9344Q334.17188 344.77814 334.17188 346.325Q334.17188 346.41876 334.17188 346.60626L329.53125 346.60626Q329.59375 347.6375 330.10938 348.1844Q330.625 348.71564 331.40625 348.71564Q331.98438 348.71564 332.39062 348.41876Q332.8125 348.10626 333.04688 347.45ZM329.59375 345.7469L333.0625 345.7469Q333.0 344.95 332.67188 344.5594Q332.15625 343.95 331.35938 343.95Q330.625 343.95 330.125 344.4344Q329.64062 344.91876 329.59375 345.7469ZM335.375 347.59064L336.40625 347.4344Q336.5 348.0594 336.89062 348.3875Q337.29688 348.71564 338.03125 348.71564Q338.75 348.71564 339.09375 348.4344Q339.45312 348.1375 339.45312 347.73126Q339.45312 347.3719 339.14062 347.16876Q338.92188 347.02814 338.0625 346.8094Q336.90625 346.5125 336.45312 346.3094Q336.01562 346.09064 335.78125 345.71564Q335.54688 345.34064 335.54688 344.8719Q335.54688 344.46564 335.73438 344.10626Q335.92188 343.7469 336.25 343.5125Q336.5 343.34064 336.92188 343.21564Q337.34375 343.09064 337.84375 343.09064Q338.5625 343.09064 339.10938 343.3094Q339.67188 343.5125 339.9375 343.8719Q340.20312 344.23126 340.29688 344.825L339.26562 344.96564Q339.20312 344.4969 338.85938 344.23126Q338.53125 343.95 337.90625 343.95Q337.1875 343.95 336.875 344.2Q336.5625 344.4344 336.5625 344.7625Q336.5625 344.96564 336.6875 345.1219Q336.82812 345.29376 337.09375 345.40314Q337.25 345.46564 338.03125 345.66876Q339.15625 345.98126 339.59375 346.16876Q340.03125 346.35626 340.28125 346.71564Q340.53125 347.075 340.53125 347.6219Q340.53125 348.15314 340.21875 348.6219Q339.92188 349.075 339.34375 349.34064Q338.76562 349.59064 338.03125 349.59064Q336.8125 349.59064 336.17188 349.09064Q335.54688 348.575 335.375 347.59064ZM342.375 347.59064L343.40625 347.4344Q343.5 348.0594 343.89062 348.3875Q344.29688 348.71564 345.03125 348.71564Q345.75 348.71564 346.09375 348.4344Q346.45312 348.1375 346.45312 347.73126Q346.45312 347.3719 346.14062 347.16876Q345.92188 347.02814 345.0625 346.8094Q343.90625 346.5125 343.45312 346.3094Q343.01562 346.09064 342.78125 345.71564Q342.54688 345.34064 342.54688 344.8719Q342.54688 344.46564 342.73438 344.10626Q342.92188 343.7469 343.25 343.5125Q343.5 343.34064 343.92188 343.21564Q344.34375 343.09064 344.84375 343.09064Q345.5625 343.09064 346.10938 343.3094Q346.67188 343.5125 346.9375 343.8719Q347.20312 344.23126 347.29688 344.825L346.26562 344.96564Q346.20312 344.4969 345.85938 344.23126Q345.53125 343.95 344.90625 343.95Q344.1875 343.95 343.875 344.2Q343.5625 344.4344 343.5625 344.7625Q343.5625 344.96564 343.6875 345.1219Q343.82812 345.29376 344.09375 345.40314Q344.25 345.46564 345.03125 345.66876Q346.15625 345.98126 346.59375 346.16876Q347.03125 346.35626 347.28125 346.71564Q347.53125 347.075 347.53125 347.6219Q347.53125 348.15314 347.21875 348.6219Q346.92188 349.075 346.34375 349.34064Q345.76562 349.59064 345.03125 349.59064Q343.8125 349.59064 343.17188 349.09064Q342.54688 348.575 342.375 347.59064ZM354.04688 347.45L355.14062 347.575Q354.89062 348.52814 354.1875 349.0594Q353.48438 349.59064 352.40625 349.59064Q351.04688 349.59064 350.23438 348.7469Q349.4375 347.90314 349.4375 346.3875Q349.4375 344.825 350.25 343.96564Q351.0625 343.09064 352.34375 343.09064Q353.59375 343.09064 354.375 343.9344Q355.17188 344.77814 355.17188 346.325Q355.17188 346.41876 355.17188 346.60626L350.53125 346.60626Q350.59375 347.6375 351.10938 348.1844Q351.625 348.71564 352.40625 348.71564Q352.98438 348.71564 353.39062 348.41876Q353.8125 348.10626 354.04688 347.45ZM350.59375 345.7469L354.0625 345.7469Q354.0 344.95 353.67188 344.5594Q353.15625 343.95 352.35938 343.95Q351.625 343.95 351.125 344.4344Q350.64062 344.91876 350.59375 345.7469ZM356.375 347.59064L357.40625 347.4344Q357.5 348.0594 357.89062 348.3875Q358.29688 348.71564 359.03125 348.71564Q359.75 348.71564 360.09375 348.4344Q360.45312 348.1375 360.45312 347.73126Q360.45312 347.3719 360.14062 347.16876Q359.92188 347.02814 359.0625 346.8094Q357.90625 346.5125 357.45312 346.3094Q357.01562 346.09064 356.78125 345.71564Q356.54688 345.34064 356.54688 344.8719Q356.54688 344.46564 356.73438 344.10626Q356.92188 343.7469 357.25 343.5125Q357.5 343.34064 357.92188 343.21564Q358.34375 343.09064 358.84375 343.09064Q359.5625 343.09064 360.10938 343.3094Q360.67188 343.5125 360.9375 343.8719Q361.20312 344.23126 361.29688 344.825L360.26562 344.96564Q360.20312 344.4969 359.85938 344.23126Q359.53125 343.95 358.90625 343.95Q358.1875 343.95 357.875 344.2Q357.5625 344.4344 357.5625 344.7625Q357.5625 344.96564 357.6875 345.1219Q357.82812 345.29376 358.09375 345.40314Q358.25 345.46564 359.03125 345.66876Q360.15625 345.98126 360.59375 346.16876Q361.03125 346.35626 361.28125 346.71564Q361.53125 347.075 361.53125 347.6219Q361.53125 348.15314 361.21875 348.6219Q360.92188 349.075 360.34375 349.34064Q359.76562 349.59064 359.03125 349.59064Q357.8125 349.59064 357.17188 349.09064Q356.54688 348.575 356.375 347.59064Z" fill-rule="nonzero"/><path fill="#000000" d="M29.550013 207.57396L21.971888 207.57396L21.971888 210.40208L20.956263 210.40208L20.956263 203.58958L21.971888 203.58958L21.971888 206.43333L29.550013 206.43333L29.550013 207.57396ZM22.175013 202.88646L20.956263 202.88646L20.956263 201.82396L22.175013 201.82396L22.175013 202.88646ZM29.550013 202.88646L23.331263 202.88646L23.331263 201.82396L29.550013 201.82396L29.550013 202.88646ZM29.550013 199.88646L23.331263 199.88646L23.331263 198.94896L24.206263 198.94896Q23.737513 198.65208 23.471888 198.16771Q23.190638 197.68333 23.190638 197.05833Q23.190638 196.37083 23.471888 195.93333Q23.753138 195.48021 24.268763 195.30833Q23.190638 194.55833 23.190638 193.38646Q23.190638 192.44896 23.706263 191.96458Q24.206263 191.46458 25.284388 191.46458L29.550013 191.46458L29.550013 192.51146L25.628138 192.51146Q25.003138 192.51146 24.721888 192.62083Q24.440638 192.71458 24.268763 192.98021Q24.096888 193.24583 24.096888 193.62083Q24.096888 194.27708 24.534388 194.71458Q24.971888 195.13646 25.940638 195.13646L29.550013 195.13646L29.550013 196.19896L25.503138 196.19896Q24.800013 196.19896 24.456263 196.46458Q24.096888 196.71458 24.096888 197.29271Q24.096888 197.74583 24.331263 198.12083Q24.565638 198.49583 25.018763 198.66771Q25.471888 198.83958 26.315638 198.83958L29.550013 198.83958L29.550013 199.88646ZM27.550013 184.63646L27.675013 183.54271Q28.628138 183.79271 29.159388 184.49583Q29.690638 185.19896 29.690638 186.27708Q29.690638 187.63646 28.846888 188.44896Q28.003138 189.24583 26.487513 189.24583Q24.925013 189.24583 24.065638 188.43333Q23.190638 187.62083 23.190638 186.33958Q23.190638 185.08958 24.034388 184.30833Q24.878138 183.51146 26.425013 183.51146Q26.518763 183.51146 26.706263 183.51146L26.706263 188.15208Q27.737513 188.08958 28.284388 187.57396Q28.815638 187.05833 28.815638 186.27708Q28.815638 185.69896 28.518763 185.29271Q28.206263 184.87083 27.550013 184.63646ZM25.846888 188.08958L25.846888 184.62083Q25.050013 184.68333 24.659388 185.01146Q24.050013 185.52708 24.050013 186.32396Q24.050013 187.05833 24.534388 187.55833Q25.018763 188.04271 25.846888 188.08958ZM32.08126 176.87083Q30.971888 177.74583 29.503138 178.35521Q28.018763 178.94896 26.440638 178.94896Q25.050013 178.94896 23.768763 178.51146Q22.284388 177.98021 20.815638 176.87083L20.815638 176.12083Q22.034388 176.82396 22.550013 177.05833Q23.362513 177.41771 24.237513 177.62083Q25.331263 177.87083 26.440638 177.87083Q29.268763 177.87083 32.08126 176.12083L32.08126 176.87083ZM27.690638 175.30833L27.534388 174.27708Q28.159388 174.18333 28.487513 173.79271Q28.815638 173.38646 28.815638 172.65208Q28.815638 171.93333 28.534388 171.58958Q28.237513 171.23021 27.831263 171.23021Q27.471888 171.23021 27.268763 171.54271Q27.128138 171.76146 26.909388 172.62083Q26.612513 173.77708 26.409388 174.23021Q26.190638 174.66771 25.815638 174.90208Q25.440638 175.13646 24.971888 175.13646Q24.565638 175.13646 24.206263 174.94896Q23.846888 174.76146 23.612513 174.43333Q23.440638 174.18333 23.315638 173.76146Q23.190638 173.33958 23.190638 172.83958Q23.190638 172.12083 23.409388 171.57396Q23.612513 171.01146 23.971888 170.74583Q24.331263 170.48021 24.925013 170.38646L25.065638 171.41771Q24.596888 171.48021 24.331263 171.82396Q24.050013 172.15208 24.050013 172.77708Q24.050013 173.49583 24.300013 173.80833Q24.534388 174.12083 24.862513 174.12083Q25.065638 174.12083 25.221888 173.99583Q25.393763 173.85521 25.503138 173.58958Q25.565638 173.43333 25.768763 172.65208Q26.081263 171.52708 26.268763 171.08958Q26.456263 170.65208 26.815638 170.40208Q27.175013 170.15208 27.721888 170.15208Q28.253138 170.15208 28.721888 170.46458Q29.175013 170.76146 29.440638 171.33958Q29.690638 171.91771 29.690638 172.65208Q29.690638 173.87083 29.190638 174.51146Q28.675013 175.13646 27.690638 175.30833ZM32.08126 167.19896L32.08126 167.94896Q29.268763 166.19896 26.440638 166.19896Q25.346888 166.19896 24.253138 166.44896Q23.378138 166.65208 22.565638 167.01146Q22.050013 167.24583 20.815638 167.94896L20.815638 167.19896Q22.284388 166.10521 23.768763 165.57396Q25.050013 165.12083 26.440638 165.12083Q28.018763 165.12083 29.503138 165.73021Q30.971888 166.33958 32.08126 167.19896Z" fill-rule="nonzero"/><path fill="#000000" d="M72.05 300.21564Q72.05 298.6844 72.3625 297.7625Q72.675 296.825 73.28438 296.325Q73.90938 295.825 74.84688 295.825Q75.53438 295.825 76.05 296.10626Q76.58125 296.3875 76.925 296.91876Q77.26875 297.4344 77.45625 298.1844Q77.64375 298.9344 77.64375 300.21564Q77.64375 301.73126 77.33125 302.65314Q77.03438 303.575 76.40938 304.09064Q75.8 304.59064 74.84688 304.59064Q73.6125 304.59064 72.89375 303.7Q72.05 302.6375 72.05 300.21564ZM73.12813 300.21564Q73.12813 302.325 73.62813 303.02814Q74.12813 303.73126 74.84688 303.73126Q75.58125 303.73126 76.06563 303.02814Q76.56563 302.325 76.56563 300.21564Q76.56563 298.09064 76.06563 297.40314Q75.58125 296.7 74.83125 296.7Q74.1125 296.7 73.675 297.3094Q73.12813 298.09064 73.12813 300.21564Z" fill-rule="nonzero"/><path fill="#000000" d="M58.05 242.56667L59.159374 242.47292Q59.284374 243.28542 59.721874 243.69167Q60.175 244.09792 60.815624 244.09792Q61.565624 244.09792 62.096874 243.51979Q62.628124 242.94167 62.628124 242.00417Q62.628124 241.09792 62.1125 240.58229Q61.6125 240.05104 60.784374 240.05104Q60.284374 240.05104 59.8625 240.28542Q59.45625 240.51979 59.221874 240.87917L58.2375 240.75417L59.065624 236.34792L63.346874 236.34792L63.346874 237.34792L59.909374 237.34792L59.45625 239.66042Q60.221874 239.11354 61.065624 239.11354Q62.190624 239.11354 62.95625 239.89479Q63.7375 240.67604 63.7375 241.91042Q63.7375 243.06667 63.065624 243.92604Q62.2375 244.95729 60.815624 244.95729Q59.64375 244.95729 58.89375 244.30104Q58.159374 243.64479 58.05 242.56667ZM65.05 240.58229Q65.05 239.05104 65.3625 238.12917Q65.675 237.19167 66.28438 236.69167Q66.90938 236.19167 67.84688 236.19167Q68.53438 236.19167 69.05 236.47292Q69.58125 236.75417 69.925 237.28542Q70.26875 237.80104 70.45625 238.55104Q70.64375 239.30104 70.64375 240.58229Q70.64375 242.09792 70.33125 243.01979Q70.03438 243.94167 69.40938 244.45729Q68.8 244.95729 67.84688 244.95729Q66.6125 244.95729 65.89375 244.06667Q65.05 243.00417 65.05 240.58229ZM66.12813 240.58229Q66.12813 242.69167 66.62813 243.39479Q67.12813 244.09792 67.84688 244.09792Q68.58125 244.09792 69.06563 243.39479Q69.56563 242.69167 69.56563 240.58229Q69.56563 238.45729 69.06563 237.76979Q68.58125 237.06667 67.83125 237.06667Q67.1125 237.06667 66.675 237.67604Q66.12813 238.45729 66.12813 240.58229ZM72.05 240.58229Q72.05 239.05104 72.3625 238.12917Q72.675 237.19167 73.28438 236.69167Q73.90938 236.19167 74.84688 236.19167Q75.53438 236.19167 76.05 236.47292Q76.58125 236.75417 76.925 237.28542Q77.26875 237.80104 77.45625 238.55104Q77.64375 239.30104 77.64375 240.58229Q77.64375 242.09792 77.33125 243.01979Q77.03438 243.94167 76.40938 244.45729Q75.8 244.95729 74.84688 244.95729Q73.6125 244.95729 72.89375 244.06667Q72.05 243.00417 72.05 240.58229ZM73.12813 240.58229Q73.12813 242.69167 73.62813 243.39479Q74.12813 244.09792 74.84688 244.09792Q75.58125 244.09792 76.06563 243.39479Q76.56563 242.69167 76.56563 240.58229Q76.56563 238.45729 76.06563 237.76979Q75.58125 237.06667 74.83125 237.06667Q74.1125 237.06667 73.675 237.67604Q73.12813 238.45729 73.12813 240.58229Z" fill-rule="nonzero"/><path fill="#000000" d="M55.01875 185.18333L53.971874 185.18333L53.971874 178.46458Q53.58125 178.82396 52.95625 179.19896Q52.346874 179.55833 51.8625 179.73021L51.8625 178.71458Q52.7375 178.29271 53.39375 177.71458Q54.065624 177.12083 54.346874 176.55833L55.01875 176.55833L55.01875 185.18333ZM58.05 180.94896Q58.05 179.41771 58.3625 178.49583Q58.675 177.55833 59.284374 177.05833Q59.909374 176.55833 60.846874 176.55833Q61.534374 176.55833 62.05 176.83958Q62.58125 177.12083 62.925 177.65208Q63.26875 178.16771 63.45625 178.91771Q63.64375 179.66771 63.64375 180.94896Q63.64375 182.46458 63.33125 183.38646Q63.034374 184.30833 62.409374 184.82396Q61.8 185.32396 60.846874 185.32396Q59.6125 185.32396 58.89375 184.43333Q58.05 183.37083 58.05 180.94896ZM59.128124 180.94896Q59.128124 183.05833 59.628124 183.76146Q60.128124 184.46458 60.846874 184.46458Q61.58125 184.46458 62.065624 183.76146Q62.565624 183.05833 62.565624 180.94896Q62.565624 178.82396 62.065624 178.13646Q61.58125 177.43333 60.83125 177.43333Q60.1125 177.43333 59.675 178.04271Q59.128124 178.82396 59.128124 180.94896ZM65.05 180.94896Q65.05 179.41771 65.3625 178.49583Q65.675 177.55833 66.28438 177.05833Q66.90938 176.55833 67.84688 176.55833Q68.53438 176.55833 69.05 176.83958Q69.58125 177.12083 69.925 177.65208Q70.26875 178.16771 70.45625 178.91771Q70.64375 179.66771 70.64375 180.94896Q70.64375 182.46458 70.33125 183.38646Q70.03438 184.30833 69.40938 184.82396Q68.8 185.32396 67.84688 185.32396Q66.6125 185.32396 65.89375 184.43333Q65.05 183.37083 65.05 180.94896ZM66.12813 180.94896Q66.12813 183.05833 66.62813 183.76146Q67.12813 184.46458 67.84688 184.46458Q68.58125 184.46458 69.06563 183.76146Q69.56563 183.05833 69.56563 180.94896Q69.56563 178.82396 69.06563 178.13646Q68.58125 177.43333 67.83125 177.43333Q67.1125 177.43333 66.675 178.04271Q66.12813 178.82396 66.12813 180.94896ZM72.05 180.94896Q72.05 179.41771 72.3625 178.49583Q72.675 177.55833 73.28438 177.05833Q73.90938 176.55833 74.84688 176.55833Q75.53438 176.55833 76.05 176.83958Q76.58125 177.12083 76.925 177.65208Q77.26875 178.16771 77.45625 178.91771Q77.64375 179.66771 77.64375 180.94896Q77.64375 182.46458 77.33125 183.38646Q77.03438 184.30833 76.40938 184.82396Q75.8 185.32396 74.84688 185.32396Q73.6125 185.32396 72.89375 184.43333Q72.05 183.37083 72.05 180.94896ZM73.12813 180.94896Q73.12813 183.05833 73.62813 183.76146Q74.12813 184.46458 74.84688 184.46458Q75.58125 184.46458 76.06563 183.76146Q76.56563 183.05833 76.56563 180.94896Q76.56563 178.82396 76.06563 178.13646Q75.58125 177.43333 74.83125 177.43333Q74.1125 177.43333 73.675 178.04271Q73.12813 178.82396 73.12813 180.94896Z" fill-rule="nonzero"/><path fill="#000000" d="M55.01875 125.55L53.971874 125.55L53.971874 118.83125Q53.58125 119.19063 52.95625 119.56563Q52.346874 119.925 51.8625 120.09688L51.8625 119.08125Q52.7375 118.65938 53.39375 118.08125Q54.065624 117.4875 54.346874 116.925L55.01875 116.925L55.01875 125.55ZM58.05 123.3L59.159374 123.20625Q59.284374 124.01875 59.721874 124.425Q60.175 124.83125 60.815624 124.83125Q61.565624 124.83125 62.096874 124.25313Q62.628124 123.675 62.628124 122.7375Q62.628124 121.83125 62.1125 121.31563Q61.6125 120.78438 60.784374 120.78438Q60.284374 120.78438 59.8625 121.01875Q59.45625 121.25313 59.221874 121.6125L58.2375 121.4875L59.065624 117.08125L63.346874 117.08125L63.346874 118.08125L59.909374 118.08125L59.45625 120.39375Q60.221874 119.84688 61.065624 119.84688Q62.190624 119.84688 62.95625 120.62813Q63.7375 121.40938 63.7375 122.64375Q63.7375 123.8 63.065624 124.65938Q62.2375 125.69063 60.815624 125.69063Q59.64375 125.69063 58.89375 125.03438Q58.159374 124.37813 58.05 123.3ZM65.05 121.31563Q65.05 119.78438 65.3625 118.8625Q65.675 117.925 66.28438 117.425Q66.90938 116.925 67.84688 116.925Q68.53438 116.925 69.05 117.20625Q69.58125 117.4875 69.925 118.01875Q70.26875 118.53438 70.45625 119.28438Q70.64375 120.03438 70.64375 121.31563Q70.64375 122.83125 70.33125 123.75313Q70.03438 124.675 69.40938 125.19063Q68.8 125.69063 67.84688 125.69063Q66.6125 125.69063 65.89375 124.8Q65.05 123.7375 65.05 121.31563ZM66.12813 121.31563Q66.12813 123.425 66.62813 124.12813Q67.12813 124.83125 67.84688 124.83125Q68.58125 124.83125 69.06563 124.12813Q69.56563 123.425 69.56563 121.31563Q69.56563 119.19063 69.06563 118.50313Q68.58125 117.8 67.83125 117.8Q67.1125 117.8 66.675 118.40938Q66.12813 119.19063 66.12813 121.31563ZM72.05 121.31563Q72.05 119.78438 72.3625 118.8625Q72.675 117.925 73.28438 117.425Q73.90938 116.925 74.84688 116.925Q75.53438 116.925 76.05 117.20625Q76.58125 117.4875 76.925 118.01875Q77.26875 118.53438 77.45625 119.28438Q77.64375 120.03438 77.64375 121.31563Q77.64375 122.83125 77.33125 123.75313Q77.03438 124.675 76.40938 125.19063Q75.8 125.69063 74.84688 125.69063Q73.6125 125.69063 72.89375 124.8Q72.05 123.7375 72.05 121.31563ZM73.12813 121.31563Q73.12813 123.425 73.62813 124.12813Q74.12813 124.83125 74.84688 124.83125Q75.58125 124.83125 76.06563 124.12813Q76.56563 123.425 76.56563 121.31563Q76.56563 119.19063 76.06563 118.50313Q75.58125 117.8 74.83125 117.8Q74.1125 117.8 73.675 118.40938Q73.12813 119.19063 73.12813 121.31563Z" fill-rule="nonzero"/><path fill="#000000" d="M56.596874 64.90104L56.596874 65.916664L50.909374 65.916664Q50.909374 65.541664 51.034374 65.18229Q51.253124 64.604164 51.721874 64.041664Q52.20625 63.479164 53.1125 62.74479Q54.51875 61.58854 55.003124 60.916664Q55.503124 60.24479 55.503124 59.65104Q55.503124 59.02604 55.05 58.604164Q54.596874 58.166664 53.878124 58.166664Q53.1125 58.166664 52.659374 58.61979Q52.20625 59.072914 52.190624 59.885414L51.1125 59.77604Q51.221874 58.55729 51.940624 57.93229Q52.675 57.291664 53.909374 57.291664Q55.14375 57.291664 55.8625 57.979164Q56.58125 58.666664 56.58125 59.68229Q56.58125 60.197914 56.3625 60.697914Q56.159374 61.18229 55.659374 61.74479Q55.175 62.291664 54.05 63.24479Q53.096874 64.041664 52.815624 64.33854Q52.55 64.61979 52.378124 64.90104L56.596874 64.90104ZM58.05 61.68229Q58.05 60.15104 58.3625 59.229164Q58.675 58.291664 59.284374 57.791664Q59.909374 57.291664 60.846874 57.291664Q61.534374 57.291664 62.05 57.572914Q62.58125 57.854164 62.925 58.385414Q63.26875 58.90104 63.45625 59.65104Q63.64375 60.40104 63.64375 61.68229Q63.64375 63.197914 63.33125 64.11979Q63.034374 65.041664 62.409374 65.55729Q61.8 66.05729 60.846874 66.05729Q59.6125 66.05729 58.89375 65.166664Q58.05 64.104164 58.05 61.68229ZM59.128124 61.68229Q59.128124 63.791664 59.628124 64.49479Q60.128124 65.197914 60.846874 65.197914Q61.58125 65.197914 62.065624 64.49479Q62.565624 63.791664 62.565624 61.68229Q62.565624 59.55729 62.065624 58.86979Q61.58125 58.166664 60.83125 58.166664Q60.1125 58.166664 59.675 58.77604Q59.128124 59.55729 59.128124 61.68229ZM65.05 61.68229Q65.05 60.15104 65.3625 59.229164Q65.675 58.291664 66.28438 57.791664Q66.90938 57.291664 67.84688 57.291664Q68.53438 57.291664 69.05 57.572914Q69.58125 57.854164 69.925 58.385414Q70.26875 58.90104 70.45625 59.65104Q70.64375 60.40104 70.64375 61.68229Q70.64375 63.197914 70.33125 64.11979Q70.03438 65.041664 69.40938 65.55729Q68.8 66.05729 67.84688 66.05729Q66.6125 66.05729 65.89375 65.166664Q65.05 64.104164 65.05 61.68229ZM66.12813 61.68229Q66.12813 63.791664 66.62813 64.49479Q67.12813 65.197914 67.84688 65.197914Q68.58125 65.197914 69.06563 64.49479Q69.56563 63.791664 69.56563 61.68229Q69.56563 59.55729 69.06563 58.86979Q68.58125 58.166664 67.83125 58.166664Q67.1125 58.166664 66.675 58.77604Q66.12813 59.55729 66.12813 61.68229ZM72.05 61.68229Q72.05 60.15104 72.3625 59.229164Q72.675 58.291664 73.28438 57.791664Q73.90938 57.291664 74.84688 57.291664Q75.53438 57.291664 76.05 57.572914Q76.58125 57.854164 76.925 58.385414Q77.26875 58.90104 77.45625 59.65104Q77.64375 60.40104 77.64375 61.68229Q77.64375 63.197914 77.33125 64.11979Q77.03438 65.041664 76.40938 65.55729Q75.8 66.05729 74.84688 66.05729Q73.6125 66.05729 72.89375 65.166664Q72.05 64.104164 72.05 61.68229ZM73.12813 61.68229Q73.12813 63.791664 73.62813 64.49479Q74.12813 65.197914 74.84688 65.197914Q75.58125 65.197914 76.06563 64.49479Q76.56563 63.791664 76.56563 61.68229Q76.56563 59.55729 76.06563 58.86979Q75.58125 58.166664 74.83125 58.166664Q74.1125 58.166664 73.675 58.77604Q73.12813 59.55729 73.12813 61.68229Z" fill-rule="nonzero"/><path fill="#000000" d="M131.15242 317.45L130.10555 317.45L130.10555 310.73126Q129.71492 311.09064 129.08992 311.46564Q128.48055 311.825 127.99617 311.9969L127.99617 310.98126Q128.87117 310.5594 129.52742 309.98126Q130.1993 309.3875 130.48055 308.825L131.15242 308.825L131.15242 317.45Z" fill-rule="nonzero"/><path fill="#000000" d="M200.33598 316.4344L200.33598 317.45L194.64848 317.45Q194.64848 317.075 194.77348 316.71564Q194.99223 316.1375 195.46098 315.575Q195.94536 315.0125 196.85161 314.27814Q198.25786 313.1219 198.74223 312.45Q199.24223 311.77814 199.24223 311.1844Q199.24223 310.5594 198.78911 310.1375Q198.33598 309.7 197.61723 309.7Q196.85161 309.7 196.39848 310.15314Q195.94536 310.60626 195.92973 311.41876L194.85161 311.3094Q194.96098 310.09064 195.67973 309.46564Q196.41411 308.825 197.64848 308.825Q198.88286 308.825 199.60161 309.5125Q200.32036 310.2 200.32036 311.21564Q200.32036 311.73126 200.10161 312.23126Q199.89848 312.71564 199.39848 313.27814Q198.91411 313.825 197.78911 314.77814Q196.83598 315.575 196.55473 315.8719Q196.28911 316.15314 196.11723 316.4344L200.33598 316.4344Z" fill-rule="nonzero"/><path fill="#000000" d="M265.76956 317.45L265.76956 315.3875L262.0508 315.3875L262.0508 314.41876L265.9727 308.85626L266.83206 308.85626L266.83206 314.41876L267.9883 314.41876L267.9883 315.3875L266.83206 315.3875L266.83206 317.45L265.76956 317.45ZM265.76956 314.41876L265.76956 310.5594L263.08206 314.41876L265.76956 314.41876Z" fill-rule="nonzero"/><path fill="#000000" d="M331.625 312.79376Q330.96875 312.54376 330.64062 312.10626Q330.32812 311.65314 330.32812 311.04376Q330.32812 310.10626 331.0 309.46564Q331.6875 308.825 332.79688 308.825Q333.92188 308.825 334.60938 309.48126Q335.29688 310.1375 335.29688 311.075Q335.29688 311.66876 334.98438 312.10626Q334.67188 312.54376 334.03125 312.79376Q334.82812 313.04376 335.23438 313.6219Q335.64062 314.2 335.64062 314.9969Q335.64062 316.09064 334.85938 316.84064Q334.09375 317.59064 332.8125 317.59064Q331.54688 317.59064 330.76562 316.84064Q329.98438 316.09064 329.98438 314.96564Q329.98438 314.1219 330.40625 313.5594Q330.84375 312.9969 331.625 312.79376ZM331.40625 310.9969Q331.40625 311.60626 331.79688 311.9969Q332.20312 312.3875 332.82812 312.3875Q333.4375 312.3875 333.82812 312.0125Q334.21875 311.6219 334.21875 311.0594Q334.21875 310.48126 333.8125 310.09064Q333.40625 309.6844 332.8125 309.6844Q332.20312 309.6844 331.79688 310.075Q331.40625 310.46564 331.40625 310.9969ZM331.07812 314.96564Q331.07812 315.41876 331.28125 315.84064Q331.5 316.2625 331.92188 316.4969Q332.34375 316.73126 332.82812 316.73126Q333.57812 316.73126 334.0625 316.2469Q334.5625 315.7625 334.5625 315.0125Q334.5625 314.2469 334.0625 313.7469Q333.5625 313.2469 332.79688 313.2469Q332.04688 313.2469 331.5625 313.7469Q331.07812 314.23126 331.07812 314.96564Z" fill-rule="nonzero"/><path fill="#000000" d="M398.0742 317.45L397.0273 317.45L397.0273 310.73126Q396.6367 311.09064 396.0117 311.46564Q395.4023 311.825 394.91794 311.9969L394.91794 310.98126Q395.79294 310.5594 396.4492 309.98126Q397.12106 309.3875 397.4023 308.825L398.0742 308.825L398.0742 317.45ZM406.5742 310.96564L405.5273 311.04376Q405.3867 310.41876 405.1367 310.1375Q404.6992 309.6844 404.0742 309.6844Q403.5742 309.6844 403.18356 309.96564Q402.6992 310.34064 402.4023 311.04376Q402.12106 311.73126 402.10544 313.0125Q402.48044 312.4344 403.0273 312.15314Q403.5898 311.8719 404.1992 311.8719Q405.24606 311.8719 405.98044 312.65314Q406.73044 313.4344 406.73044 314.65314Q406.73044 315.46564 406.37106 316.16876Q406.0273 316.85626 405.41794 317.23126Q404.80856 317.59064 404.04294 317.59064Q402.7148 317.59064 401.8867 316.6219Q401.05856 315.65314 401.05856 313.4344Q401.05856 310.9344 401.98044 309.8094Q402.7773 308.825 404.1367 308.825Q405.1523 308.825 405.79294 309.40314Q406.4492 309.96564 406.5742 310.96564ZM402.2773 314.66876Q402.2773 315.21564 402.49606 315.71564Q402.73044 316.2 403.1367 316.46564Q403.55856 316.73126 404.0273 316.73126Q404.68356 316.73126 405.16794 316.2Q405.6523 315.65314 405.6523 314.73126Q405.6523 313.84064 405.16794 313.325Q404.6992 312.8094 403.98044 312.8094Q403.2617 312.8094 402.7617 313.325Q402.2773 313.84064 402.2773 314.66876Z" fill-rule="nonzero"/><path fill="#000000" d="M461.71088 315.1844L462.77338 315.04376Q462.94525 315.9344 463.38275 316.34064Q463.82025 316.73126 464.44525 316.73126Q465.19525 316.73126 465.71088 316.21564Q466.2265 315.7 466.2265 314.9344Q466.2265 314.21564 465.74213 313.7469Q465.27338 313.2625 464.539 313.2625Q464.24213 313.2625 463.789 313.3875L463.914 312.45Q464.02338 312.46564 464.08588 312.46564Q464.75775 312.46564 465.289 312.1219Q465.83588 311.7625 465.83588 311.02814Q465.83588 310.45 465.44525 310.075Q465.05463 309.6844 464.42963 309.6844Q463.82025 309.6844 463.39838 310.075Q462.99213 310.46564 462.88275 311.23126L461.82025 311.04376Q462.00775 309.9969 462.69525 309.41876Q463.38275 308.825 464.39838 308.825Q465.1015 308.825 465.69525 309.1375Q466.289 309.4344 466.6015 309.95Q466.914 310.46564 466.914 311.0594Q466.914 311.60626 466.61713 312.075Q466.32025 312.52814 465.74213 312.79376Q466.49213 312.96564 466.914 313.52814Q467.33588 314.075 467.33588 314.91876Q467.33588 316.04376 466.50775 316.825Q465.69525 317.60626 464.44525 317.60626Q463.32025 317.60626 462.57025 316.9344Q461.82025 316.2469 461.71088 315.1844ZM474.25775 316.4344L474.25775 317.45L468.57025 317.45Q468.57025 317.075 468.69525 316.71564Q468.914 316.1375 469.38275 315.575Q469.86713 315.0125 470.77338 314.27814Q472.17963 313.1219 472.664 312.45Q473.164 311.77814 473.164 311.1844Q473.164 310.5594 472.71088 310.1375Q472.25775 309.7 471.539 309.7Q470.77338 309.7 470.32025 310.15314Q469.86713 310.60626 469.8515 311.41876L468.77338 311.3094Q468.88275 310.09064 469.6015 309.46564Q470.33588 308.825 471.57025 308.825Q472.80463 308.825 473.52338 309.5125Q474.24213 310.2 474.24213 311.21564Q474.24213 311.73126 474.02338 312.23126Q473.82025 312.71564 473.32025 313.27814Q472.83588 313.825 471.71088 314.77814Q470.75775 315.575 470.4765 315.8719Q470.21088 316.15314 470.039 316.4344L474.25775 316.4344Z" fill-rule="nonzero"/><path fill="#000000" d="M534.7851 310.96564L533.7382 311.04376Q533.5976 310.41876 533.3476 310.1375Q532.9101 309.6844 532.2851 309.6844Q531.7851 309.6844 531.3945 309.96564Q530.9101 310.34064 530.6132 311.04376Q530.332 311.73126 530.31635 313.0125Q530.69135 312.4344 531.2382 312.15314Q531.8007 311.8719 532.4101 311.8719Q533.457 311.8719 534.19135 312.65314Q534.94135 313.4344 534.94135 314.65314Q534.94135 315.46564 534.582 316.16876Q534.2382 316.85626 533.62885 317.23126Q533.0195 317.59064 532.25385 317.59064Q530.9257 317.59064 530.0976 316.6219Q529.2695 315.65314 529.2695 313.4344Q529.2695 310.9344 530.19135 309.8094Q530.9882 308.825 532.3476 308.825Q533.3632 308.825 534.00385 309.40314Q534.6601 309.96564 534.7851 310.96564ZM530.4882 314.66876Q530.4882 315.21564 530.707 315.71564Q530.94135 316.2 531.3476 316.46564Q531.7695 316.73126 532.2382 316.73126Q532.8945 316.73126 533.37885 316.2Q533.8632 315.65314 533.8632 314.73126Q533.8632 313.84064 533.37885 313.325Q532.9101 312.8094 532.19135 312.8094Q531.4726 312.8094 530.9726 313.325Q530.4882 313.84064 530.4882 314.66876ZM539.69135 317.45L539.69135 315.3875L535.9726 315.3875L535.9726 314.41876L539.8945 308.85626L540.75385 308.85626L540.75385 314.41876L541.9101 314.41876L541.9101 315.3875L540.75385 315.3875L540.75385 317.45L539.69135 317.45ZM539.69135 314.41876L539.69135 310.5594L537.00385 314.41876L539.69135 314.41876Z" fill-rule="nonzero"/><path fill="#757575" d="M23.7375 37.55L23.7375 24.925L19.01875 24.925L19.01875 23.2375L30.3625 23.2375L30.3625 24.925L25.628124 24.925L25.628124 37.55L23.7375 37.55ZM31.878124 25.253124L31.878124 23.2375L33.64375 23.2375L33.64375 25.253124L31.878124 25.253124ZM31.878124 37.55L31.878124 27.175L33.64375 27.175L33.64375 37.55L31.878124 37.55ZM35.8625 37.55L35.8625 27.175L37.440624 27.175L37.440624 28.628124Q37.925 27.878124 38.7375 27.409374Q39.55 26.940624 40.58125 26.940624Q41.7375 26.940624 42.471874 27.425Q43.20625 27.89375 43.51875 28.753124Q44.753124 26.940624 46.721874 26.940624Q48.26875 26.940624 49.096874 27.8Q49.925 28.659374 49.925 30.425L49.925 37.55L48.175 37.55L48.175 31.01875Q48.175 29.95625 48.003124 29.503124Q47.83125 29.034374 47.378124 28.753124Q46.940624 28.471874 46.33125 28.471874Q45.2375 28.471874 44.503124 29.20625Q43.784374 29.925 43.784374 31.51875L43.784374 37.55L42.034374 37.55L42.034374 30.815624Q42.034374 29.64375 41.596874 29.065624Q41.175 28.471874 40.190624 28.471874Q39.45625 28.471874 38.815624 28.8625Q38.190624 29.253124 37.909374 30.003124Q37.628124 30.753124 37.628124 32.175L37.628124 37.55L35.8625 37.55ZM58.971874 34.20625L60.784374 34.440624Q60.3625 36.01875 59.190624 36.909374Q58.034374 37.784374 56.221874 37.784374Q53.95625 37.784374 52.6125 36.39375Q51.284374 34.9875 51.284374 32.45625Q51.284374 29.83125 52.628124 28.39375Q53.971874 26.940624 56.128124 26.940624Q58.20625 26.940624 59.51875 28.3625Q60.846874 29.76875 60.846874 32.346874Q60.846874 32.503124 60.83125 32.815624L53.096874 32.815624Q53.190624 34.51875 54.065624 35.425Q54.940624 36.33125 56.2375 36.33125Q57.20625 36.33125 57.878124 35.83125Q58.565624 35.315624 58.971874 34.20625ZM53.190624 31.3625L58.9875 31.3625Q58.878124 30.065624 58.33125 29.409374Q57.4875 28.39375 56.14375 28.39375Q54.940624 28.39375 54.1125 29.20625Q53.284374 30.003124 53.190624 31.3625ZM72.22188 41.753124Q70.76875 39.925 69.76875 37.471874Q68.76875 35.003124 68.76875 32.3625Q68.76875 30.034374 69.51875 27.909374Q70.39375 25.440624 72.22188 22.9875L73.4875 22.9875Q72.3 25.01875 71.925 25.89375Q71.33125 27.2375 70.9875 28.70625Q70.56563 30.534374 70.56563 32.378124Q70.56563 37.065624 73.4875 41.753124L72.22188 41.753124ZM75.15938 34.45625L76.90938 34.175Q77.05 35.221874 77.72188 35.784374Q78.39375 36.33125 79.59688 36.33125Q80.8 36.33125 81.37813 35.846874Q81.97188 35.346874 81.97188 34.690624Q81.97188 34.096874 81.45625 33.753124Q81.09688 33.51875 79.65938 33.159374Q77.72188 32.659374 76.97188 32.315624Q76.2375 31.95625 75.84688 31.33125Q75.45625 30.690624 75.45625 29.925Q75.45625 29.2375 75.76875 28.64375Q76.09688 28.05 76.64375 27.659374Q77.05 27.3625 77.75313 27.159374Q78.47188 26.940624 79.28438 26.940624Q80.50313 26.940624 81.425 27.3Q82.34688 27.64375 82.78438 28.253124Q83.22188 28.846874 83.39375 29.846874L81.675 30.08125Q81.55 29.284374 80.9875 28.846874Q80.425 28.39375 79.40938 28.39375Q78.19063 28.39375 77.675 28.8Q77.15938 29.190624 77.15938 29.721874Q77.15938 30.065624 77.37813 30.346874Q77.58125 30.628124 78.05 30.815624Q78.31563 30.909374 79.59688 31.253124Q81.47188 31.753124 82.20625 32.08125Q82.94063 32.39375 83.3625 33.003124Q83.78438 33.596874 83.78438 34.503124Q83.78438 35.378124 83.26875 36.159374Q82.75313 36.940624 81.78438 37.3625Q80.81563 37.784374 79.59688 37.784374Q77.58125 37.784374 76.51875 36.940624Q75.45625 36.096874 75.15938 34.45625ZM87.01875 41.753124L85.76875 41.753124Q88.675 37.065624 88.675 32.378124Q88.675 30.534374 88.26875 28.7375Q87.925 27.26875 87.33125 25.925Q86.95625 25.034374 85.76875 22.9875L87.01875 22.9875Q88.8625 25.440624 89.7375 27.909374Q90.4875 30.034374 90.4875 32.3625Q90.4875 35.003124 89.47188 37.471874Q88.47188 39.925 87.01875 41.753124ZM101.75313 37.55L97.8 27.175L99.65938 27.175L101.89375 33.39375Q102.25313 34.39375 102.55 35.471874Q102.78438 34.659374 103.20625 33.503124L105.50313 27.175L107.31563 27.175L103.39375 37.55L101.75313 37.55ZM107.15938 34.45625L108.90938 34.175Q109.05 35.221874 109.72188 35.784374Q110.39375 36.33125 111.59688 36.33125Q112.8 36.33125 113.37813 35.846874Q113.97188 35.346874 113.97188 34.690624Q113.97188 34.096874 113.45625 33.753124Q113.09688 33.51875 111.65938 33.159374Q109.72188 32.659374 108.97188 32.315624Q108.2375 31.95625 107.84688 31.33125Q107.45625 30.690624 107.45625 29.925Q107.45625 29.2375 107.76875 28.64375Q108.09688 28.05 108.64375 27.659374Q109.05 27.3625 109.75313 27.159374Q110.47188 26.940624 111.28438 26.940624Q112.50313 26.940624 113.425 27.3Q114.34688 27.64375 114.78438 28.253124Q115.22188 28.846874 115.39375 29.846874L113.675 30.08125Q113.55 29.284374 112.9875 28.846874Q112.425 28.39375 111.40938 28.39375Q110.19063 28.39375 109.675 28.8Q109.15938 29.190624 109.15938 29.721874Q109.15938 30.065624 109.37813 30.346874Q109.58125 30.628124 110.05 30.815624Q110.31563 30.909374 111.59688 31.253124Q113.47188 31.753124 114.20625 32.08125Q114.94063 32.39375 115.3625 33.003124Q115.78438 33.596874 115.78438 34.503124Q115.78438 35.378124 115.26875 36.159374Q114.75313 36.940624 113.78438 37.3625Q112.81563 37.784374 111.59688 37.784374Q109.58125 37.784374 108.51875 36.940624Q107.45625 36.096874 107.15938 34.45625ZM118.3625 37.55L118.3625 35.55L120.3625 35.55L120.3625 37.55L118.3625 37.55ZM130.09688 37.55L130.09688 23.2375L135.4875 23.2375Q136.925 23.2375 137.675 23.3625Q138.72188 23.55 139.44063 24.05Q140.15938 24.534374 140.58125 25.425Q141.01875 26.315624 141.01875 27.378124Q141.01875 29.20625 139.84688 30.471874Q138.69063 31.721874 135.65938 31.721874L131.9875 31.721874L131.9875 37.55L130.09688 37.55ZM131.9875 30.034374L135.69063 30.034374Q137.51875 30.034374 138.28438 29.3625Q139.06563 28.675 139.06563 27.425Q139.06563 26.534374 138.6125 25.89375Q138.15938 25.253124 137.425 25.05Q136.94063 24.925 135.64375 24.925L131.9875 24.925L131.9875 30.034374ZM142.84688 37.55L142.84688 27.175L144.425 27.175L144.425 28.753124Q145.03438 27.64375 145.55 27.3Q146.06563 26.940624 146.675 26.940624Q147.56563 26.940624 148.4875 27.503124L147.87813 29.14375Q147.2375 28.753124 146.59688 28.753124Q146.01875 28.753124 145.55 29.1125Q145.09688 29.45625 144.89375 30.065624Q144.6125 31.003124 144.6125 32.1125L144.6125 37.55L142.84688 37.55ZM149.22188 32.3625Q149.22188 29.4875 150.81563 28.096874Q152.15938 26.940624 154.08125 26.940624Q156.22188 26.940624 157.56563 28.346874Q158.925 29.753124 158.925 32.221874Q158.925 34.221874 158.33125 35.378124Q157.7375 36.51875 156.58125 37.159374Q155.44063 37.784374 154.08125 37.784374Q151.89375 37.784374 150.55 36.39375Q149.22188 34.9875 149.22188 32.3625ZM151.01875 32.3625Q151.01875 34.3625 151.87813 35.346874Q152.75313 36.33125 154.08125 36.33125Q155.39375 36.33125 156.25313 35.346874Q157.12813 34.346874 157.12813 32.3Q157.12813 30.378124 156.25313 29.39375Q155.37813 28.39375 154.08125 28.39375Q152.75313 28.39375 151.87813 29.39375Q151.01875 30.378124 151.01875 32.3625ZM167.64375 33.753124L169.3625 33.971874Q169.08125 35.76875 167.90938 36.784374Q166.75313 37.784374 165.05 37.784374Q162.925 37.784374 161.62813 36.39375Q160.33125 35.003124 160.33125 32.409374Q160.33125 30.721874 160.87813 29.471874Q161.44063 28.20625 162.58125 27.58125Q163.72188 26.940624 165.06563 26.940624Q166.75313 26.940624 167.81563 27.8Q168.89375 28.659374 169.20625 30.221874L167.4875 30.4875Q167.25313 29.440624 166.62813 28.925Q166.00313 28.39375 165.12813 28.39375Q163.8 28.39375 162.97188 29.346874Q162.14375 30.3 162.14375 32.346874Q162.14375 34.440624 162.94063 35.39375Q163.7375 36.33125 165.03438 36.33125Q166.06563 36.33125 166.75313 35.70625Q167.45625 35.065624 167.64375 33.753124ZM177.97188 34.20625L179.78438 34.440624Q179.3625 36.01875 178.19063 36.909374Q177.03438 37.784374 175.22188 37.784374Q172.95625 37.784374 171.6125 36.39375Q170.28438 34.9875 170.28438 32.45625Q170.28438 29.83125 171.62813 28.39375Q172.97188 26.940624 175.12813 26.940624Q177.20625 26.940624 178.51875 28.3625Q179.84688 29.76875 179.84688 32.346874Q179.84688 32.503124 179.83125 32.815624L172.09688 32.815624Q172.19063 34.51875 173.06563 35.425Q173.94063 36.33125 175.2375 36.33125Q176.20625 36.33125 176.87813 35.83125Q177.56563 35.315624 177.97188 34.20625ZM172.19063 31.3625L177.9875 31.3625Q177.87813 30.065624 177.33125 29.409374Q176.4875 28.39375 175.14375 28.39375Q173.94063 28.39375 173.1125 29.20625Q172.28438 30.003124 172.19063 31.3625ZM181.15938 34.45625L182.90938 34.175Q183.05 35.221874 183.72188 35.784374Q184.39375 36.33125 185.59688 36.33125Q186.8 36.33125 187.37813 35.846874Q187.97188 35.346874 187.97188 34.690624Q187.97188 34.096874 187.45625 33.753124Q187.09688 33.51875 185.65938 33.159374Q183.72188 32.659374 182.97188 32.315624Q182.2375 31.95625 181.84688 31.33125Q181.45625 30.690624 181.45625 29.925Q181.45625 29.2375 181.76875 28.64375Q182.09688 28.05 182.64375 27.659374Q183.05 27.3625 183.75313 27.159374Q184.47188 26.940624 185.28438 26.940624Q186.50313 26.940624 187.425 27.3Q188.34688 27.64375 188.78438 28.253124Q189.22188 28.846874 189.39375 29.846874L187.675 30.08125Q187.55 29.284374 186.9875 28.846874Q186.425 28.39375 185.40938 28.39375Q184.19063 28.39375 183.675 28.8Q183.15938 29.190624 183.15938 29.721874Q183.15938 30.065624 183.37813 30.346874Q183.58125 30.628124 184.05 30.815624Q184.31563 30.909374 185.59688 31.253124Q187.47188 31.753124 188.20625 32.08125Q188.94063 32.39375 189.3625 33.003124Q189.78438 33.596874 189.78438 34.503124Q189.78438 35.378124 189.26875 36.159374Q188.75313 36.940624 187.78438 37.3625Q186.81563 37.784374 185.59688 37.784374Q183.58125 37.784374 182.51875 36.940624Q181.45625 36.096874 181.15938 34.45625ZM191.15938 34.45625L192.90938 34.175Q193.05 35.221874 193.72188 35.784374Q194.39375 36.33125 195.59688 36.33125Q196.8 36.33125 197.37813 35.846874Q197.97188 35.346874 197.97188 34.690624Q197.97188 34.096874 197.45625 33.753124Q197.09688 33.51875 195.65938 33.159374Q193.72188 32.659374 192.97188 32.315624Q192.2375 31.95625 191.84688 31.33125Q191.45625 30.690624 191.45625 29.925Q191.45625 29.2375 191.76875 28.64375Q192.09688 28.05 192.64375 27.659374Q193.05 27.3625 193.75313 27.159374Q194.47188 26.940624 195.28438 26.940624Q196.50313 26.940624 197.425 27.3Q198.34688 27.64375 198.78438 28.253124Q199.22188 28.846874 199.39375 29.846874L197.675 30.08125Q197.55 29.284374 196.9875 28.846874Q196.425 28.39375 195.40938 28.39375Q194.19063 28.39375 193.675 28.8Q193.15938 29.190624 193.15938 29.721874Q193.15938 30.065624 193.37813 30.346874Q193.58125 30.628124 194.05 30.815624Q194.31563 30.909374 195.59688 31.253124Q197.47188 31.753124 198.20625 32.08125Q198.94063 32.39375 199.3625 33.003124Q199.78438 33.596874 199.78438 34.503124Q199.78438 35.378124 199.26875 36.159374Q198.75313 36.940624 197.78438 37.3625Q196.81563 37.784374 195.59688 37.784374Q193.58125 37.784374 192.51875 36.940624Q191.45625 36.096874 191.15938 34.45625ZM208.97188 34.20625L210.78438 34.440624Q210.3625 36.01875 209.19063 36.909374Q208.03438 37.784374 206.22188 37.784374Q203.95625 37.784374 202.6125 36.39375Q201.28438 34.9875 201.28438 32.45625Q201.28438 29.83125 202.62813 28.39375Q203.97188 26.940624 206.12813 26.940624Q208.20625 26.940624 209.51875 28.3625Q210.84688 29.76875 210.84688 32.346874Q210.84688 32.503124 210.83125 32.815624L203.09688 32.815624Q203.19063 34.51875 204.06563 35.425Q204.94063 36.33125 206.2375 36.33125Q207.20625 36.33125 207.87813 35.83125Q208.56563 35.315624 208.97188 34.20625ZM203.19063 31.3625L208.9875 31.3625Q208.87813 30.065624 208.33125 29.409374Q207.4875 28.39375 206.14375 28.39375Q204.94063 28.39375 204.1125 29.20625Q203.28438 30.003124 203.19063 31.3625ZM212.15938 34.45625L213.90938 34.175Q214.05 35.221874 214.72188 35.784374Q215.39375 36.33125 216.59688 36.33125Q217.8 36.33125 218.37813 35.846874Q218.97188 35.346874 218.97188 34.690624Q218.97188 34.096874 218.45625 33.753124Q218.09688 33.51875 216.65938 33.159374Q214.72188 32.659374 213.97188 32.315624Q213.2375 31.95625 212.84688 31.33125Q212.45625 30.690624 212.45625 29.925Q212.45625 29.2375 212.76875 28.64375Q213.09688 28.05 213.64375 27.659374Q214.05 27.3625 214.75313 27.159374Q215.47188 26.940624 216.28438 26.940624Q217.50313 26.940624 218.425 27.3Q219.34688 27.64375 219.78438 28.253124Q220.22188 28.846874 220.39375 29.846874L218.675 30.08125Q218.55 29.284374 217.9875 28.846874Q217.425 28.39375 216.40938 28.39375Q215.19063 28.39375 214.675 28.8Q214.15938 29.190624 214.15938 29.721874Q214.15938 30.065624 214.37813 30.346874Q214.58125 30.628124 215.05 30.815624Q215.31563 30.909374 216.59688 31.253124Q218.47188 31.753124 219.20625 32.08125Q219.94063 32.39375 220.3625 33.003124Q220.78438 33.596874 220.78438 34.503124Q220.78438 35.378124 220.26875 36.159374Q219.75313 36.940624 218.78438 37.3625Q217.81563 37.784374 216.59688 37.784374Q214.58125 37.784374 213.51875 36.940624Q212.45625 36.096874 212.15938 34.45625Z" fill-rule="nonzero"/></svg>