<svg version="1.1" viewBox="0.0 0.0 600.0 371.0" fill="none" stroke="none" stroke-linecap="square" stroke-miterlimit="10" width="600" height="371" xmlns:xlink="http://www.w3.org/1999/xlink" xmlns="http://www.w3.org/2000/svg"><path fill="#ffffff" d="M0 0L600.0 0L600.0 371.0L0 371.0L0 0Z" fill-rule="nonzero"/><path stroke="#333333" stroke-width="1.0" stroke-linecap="butt" d="M45.5 300.5L581.5 300.5" fill-rule="nonzero"/><path stroke="#cccccc" stroke-width="1.0" stroke-linecap="butt" d="M45.5 247.5L581.5 247.5" fill-rule="nonzero"/><path stroke="#cccccc" stroke-width="1.0" stroke-linecap="butt" d="M45.5 194.5L581.5 194.5" fill-rule="nonzero"/><path stroke="#cccccc" stroke-width="1.0" stroke-linecap="butt" d="M45.5 141.5L581.5 141.5" fill-rule="nonzero"/><path stroke="#cccccc" stroke-width="1.0" stroke-linecap="butt" d="M45.5 88.5L581.5 88.5" fill-rule="nonzero"/><clipPath id="id_0"><path d="M45.55 88.28333L581.45 88.28333L581.45 300.45L45.55 300.45L45.55 88.28333Z" clip-rule="nonzero"/></clipPath><path stroke="#000000" stroke-width="2.0" stroke-linecap="butt" stroke-opacity="0.0" clip-path="url(#id_0)" d="M169.0 300.0L89.0 300.0L89.0 226.0L169.0 226.0Z" fill-rule="nonzero"/><path fill="#4285f4" clip-path="url(#id_0)" d="M169.0 300.0L89.0 300.0L89.0 226.0L169.0 226.0Z" fill-rule="nonzero"/><path stroke="#000000" stroke-width="2.0" stroke-linecap="butt" stroke-opacity="0.0" clip-path="url(#id_0)" d="M292.0 300.0L212.0 300.0L212.0 278.0L292.0 278.0Z" fill-rule="nonzero"/><path fill="#4285f4" clip-path="url(#id_0)" d="M292.0 300.0L212.0 300.0L212.0 278.0L292.0 278.0Z" fill-rule="nonzero"/><path stroke="#000000" stroke-width="2.0" stroke-linecap="butt" stroke-opacity="0.0" clip-path="url(#id_0)" d="M415.0 300.0L335.0 300.0L335.0 295.0L415.0 295.0Z" fill-rule="nonzero"/><path fill="#4285f4" clip-path="url(#id_0)" d="M415.0 300.0L335.0 300.0L335.0 295.0L415.0 295.0Z" fill-rule="nonzero"/><path stroke="#000000" stroke-width="2.0" stroke-linecap="butt" stroke-opacity="0.0" clip-path="url(#id_0)" d="M538.0 300.0L458.0 300.0L458.0 299.0L538.0 299.0Z" fill-rule="nonzero"/><path fill="#4285f4" clip-path="url(#id_0)" d="M538.0 300.0L458.0 300.0L458.0 299.0L538.0 299.0Z" fill-rule="nonzero"/><path stroke="#000000" stroke-width="2.0" stroke-linecap="butt" stroke-opacity="0.0" clip-path="url(#id_0)" d="M169.0 226.0L89.0 226.0L89.0 101.0C89.0 99.89543 89.89543 99.0 91.0 99.0L167.0 99.0C168.10457 99.0 169.0 99.89543 169.0 101.0Z" fill-rule="nonzero"/><path fill="#ea4335" clip-path="url(#id_0)" d="M169.0 226.0L89.0 226.0L89.0 101.0C89.0 99.89543 89.89543 99.0 91.0 99.0L167.0 99.0C168.10457 99.0 169.0 99.89543 169.0 101.0Z" fill-rule="nonzero"/><path stroke="#000000" stroke-width="2.0" stroke-linecap="butt" stroke-opacity="0.0" clip-path="url(#id_0)" d="M292.0 278.0L212.0 278.0L212.0 247.0C212.0 245.89543 212.89543 245.0 214.0 245.0L290.0 245.0C291.10458 245.0 292.0 245.89543 292.0 247.0Z" fill-rule="nonzero"/><path fill="#ea4335" clip-path="url(#id_0)" d="M292.0 278.0L212.0 278.0L212.0 247.0C212.0 245.89543 212.89543 245.0 214.0 245.0L290.0 245.0C291.10458 245.0 292.0 245.89543 292.0 247.0Z" fill-rule="nonzero"/><path stroke="#000000" stroke-width="2.0" stroke-linecap="butt" stroke-opacity="0.0" clip-path="url(#id_0)" d="M415.0 295.0L335.0 295.0L335.0 286.0C335.0 284.89542 335.89542 284.0 337.0 284.0L413.0 284.0C414.10458 284.0 415.0 284.89542 415.0 286.0Z" fill-rule="nonzero"/><path fill="#ea4335" clip-path="url(#id_0)" d="M415.0 295.0L335.0 295.0L335.0 286.0C335.0 284.89542 335.89542 284.0 337.0 284.0L413.0 284.0C414.10458 284.0 415.0 284.89542 415.0 286.0Z" fill-rule="nonzero"/><path stroke="#000000" stroke-width="2.0" stroke-linecap="butt" stroke-opacity="0.0" clip-path="url(#id_0)" d="M538.0 299.0L458.0 299.0L458.0 297.5C458.0 296.67157 458.67157 296.0 459.5 296.0L536.5 296.0C537.3284 296.0 538.0 296.67157 538.0 297.5Z" fill-rule="nonzero"/><path fill="#ea4335" clip-path="url(#id_0)" d="M538.0 299.0L458.0 299.0L458.0 297.5C458.0 296.67157 458.67157 296.0 459.5 296.0L536.5 296.0C537.3284 296.0 538.0 296.67157 538.0 297.5Z" fill-rule="nonzero"/><path fill="#000000" d="M284.42188 349.45L284.42188 340.85626L287.67188 340.85626Q288.51562 340.85626 288.96875 340.9344Q289.60938 341.04376 290.03125 341.34064Q290.46875 341.6375 290.71875 342.16876Q290.98438 342.7 290.98438 343.34064Q290.98438 344.4344 290.28125 345.2Q289.59375 345.95 287.76562 345.95L285.5625 345.95L285.5625 349.45L284.42188 349.45ZM285.5625 344.95L287.78125 344.95Q288.89062 344.95 289.34375 344.54376Q289.8125 344.1219 289.8125 343.3719Q289.8125 342.84064 289.53125 342.46564Q289.26562 342.075 288.82812 341.95Q288.53125 341.8719 287.76562 341.8719L285.5625 341.8719L285.5625 344.95ZM292.28125 349.45L292.28125 343.23126L293.23438 343.23126L293.23438 344.16876Q293.59375 343.5125 293.89062 343.3094Q294.20312 343.09064 294.57812 343.09064Q295.10938 343.09064 295.65625 343.41876L295.29688 344.40314Q294.90625 344.16876 294.53125 344.16876Q294.17188 344.16876 293.89062 344.3875Q293.625 344.59064 293.51562 344.96564Q293.32812 345.52814 293.32812 346.1844L293.32812 349.45L292.28125 349.45ZM295.90625 346.34064Q295.90625 344.60626 296.85938 343.77814Q297.65625 343.09064 298.8125 343.09064Q300.09375 343.09064 300.90625 343.9344Q301.73438 344.7625 301.73438 346.2469Q301.73438 347.45 301.375 348.1375Q301.01562 348.825 300.3125 349.21564Q299.625 349.59064 298.8125 349.59064Q297.51562 349.59064 296.70312 348.7625Q295.90625 347.91876 295.90625 346.34064ZM296.98438 346.34064Q296.98438 347.52814 297.5 348.1219Q298.03125 348.71564 298.8125 348.71564Q299.60938 348.71564 300.125 348.1219Q300.64062 347.52814 300.64062 346.3094Q300.64062 345.15314 300.10938 344.5594Q299.59375 343.96564 298.8125 343.96564Q298.03125 343.96564 297.5 344.5594Q296.98438 345.1375 296.98438 346.34064ZM307.35938 347.16876L308.39062 347.3094Q308.21875 348.3719 307.51562 348.98126Q306.8125 349.59064 305.79688 349.59064Q304.51562 349.59064 303.73438 348.7625Q302.96875 347.91876 302.96875 346.35626Q302.96875 345.35626 303.29688 344.60626Q303.64062 343.84064 304.3125 343.46564Q305.0 343.09064 305.8125 343.09064Q306.8125 343.09064 307.45312 343.60626Q308.10938 344.10626 308.29688 345.0594L307.26562 345.21564Q307.125 344.59064 306.75 344.27814Q306.375 343.95 305.84375 343.95Q305.04688 343.95 304.54688 344.52814Q304.04688 345.09064 304.04688 346.325Q304.04688 347.59064 304.53125 348.15314Q305.01562 348.71564 305.78125 348.71564Q306.40625 348.71564 306.8125 348.34064Q307.23438 347.96564 307.35938 347.16876ZM313.54688 347.45L314.64062 347.575Q314.39062 348.52814 313.6875 349.0594Q312.98438 349.59064 311.90625 349.59064Q310.54688 349.59064 309.73438 348.7469Q308.9375 347.90314 308.9375 346.3875Q308.9375 344.825 309.75 343.96564Q310.5625 343.09064 311.84375 343.09064Q313.09375 343.09064 313.875 343.9344Q314.67188 344.77814 314.67188 346.325Q314.67188 346.41876 314.67188 346.60626L310.03125 346.60626Q310.09375 347.6375 310.60938 348.1844Q311.125 348.71564 311.90625 348.71564Q312.48438 348.71564 312.89062 348.41876Q313.3125 348.10626 313.54688 347.45ZM310.09375 345.7469L313.5625 345.7469Q313.5 344.95 313.17188 344.5594Q312.65625 343.95 311.85938 343.95Q311.125 343.95 310.625 344.4344Q310.14062 344.91876 310.09375 345.7469ZM315.875 347.59064L316.90625 347.4344Q317.0 348.0594 317.39062 348.3875Q317.79688 348.71564 318.53125 348.71564Q319.25 348.71564 319.59375 348.4344Q319.95312 348.1375 319.95312 347.73126Q319.95312 347.3719 319.64062 347.16876Q319.42188 347.02814 318.5625 346.8094Q317.40625 346.5125 316.95312 346.3094Q316.51562 346.09064 316.28125 345.71564Q316.04688 345.34064 316.04688 344.8719Q316.04688 344.46564 316.23438 344.10626Q316.42188 343.7469 316.75 343.5125Q317.0 343.34064 317.42188 343.21564Q317.84375 343.09064 318.34375 343.09064Q319.0625 343.09064 319.60938 343.3094Q320.17188 343.5125 320.4375 343.8719Q320.70312 344.23126 320.79688 344.825L319.76562 344.96564Q319.70312 344.4969 319.35938 344.23126Q319.03125 343.95 318.40625 343.95Q317.6875 343.95 317.375 344.2Q317.0625 344.4344 317.0625 344.7625Q317.0625 344.96564 317.1875 345.1219Q317.32812 345.29376 317.59375 345.40314Q317.75 345.46564 318.53125 345.66876Q319.65625 345.98126 320.09375 346.16876Q320.53125 346.35626 320.78125 346.71564Q321.03125 347.075 321.03125 347.6219Q321.03125 348.15314 320.71875 348.6219Q320.42188 349.075 319.84375 349.34064Q319.26562 349.59064 318.53125 349.59064Q317.3125 349.59064 316.67188 349.09064Q316.04688 348.575 315.875 347.59064ZM322.875 347.59064L323.90625 347.4344Q324.0 348.0594 324.39062 348.3875Q324.79688 348.71564 325.53125 348.71564Q326.25 348.71564 326.59375 348.4344Q326.95312 348.1375 326.95312 347.73126Q326.95312 347.3719 326.64062 347.16876Q326.42188 347.02814 325.5625 346.8094Q324.40625 346.5125 323.95312 346.3094Q323.51562 346.09064 323.28125 345.71564Q323.04688 345.34064 323.04688 344.8719Q323.04688 344.46564 323.23438 344.10626Q323.42188 343.7469 323.75 343.5125Q324.0 343.34064 324.42188 343.21564Q324.84375 343.09064 325.34375 343.09064Q326.0625 343.09064 326.60938 343.3094Q327.17188 343.5125 327.4375 343.8719Q327.70312 344.23126 327.79688 344.825L326.76562 344.96564Q326.70312 344.4969 326.35938 344.23126Q326.03125 343.95 325.40625 343.95Q324.6875 343.95 324.375 344.2Q324.0625 344.4344 324.0625 344.7625Q324.0625 344.96564 324.1875 345.1219Q324.32812 345.29376 324.59375 345.40314Q324.75 345.46564 325.53125 345.66876Q326.65625 345.98126 327.09375 346.16876Q327.53125 346.35626 327.78125 346.71564Q328.03125 347.075 328.03125 347.6219Q328.03125 348.15314 327.71875 348.6219Q327.42188 349.075 326.84375 349.34064Q326.26562 349.59064 325.53125 349.59064Q324.3125 349.59064 323.67188 349.09064Q323.04688 348.575 322.875 347.59064ZM334.54688 347.45L335.64062 347.575Q335.39062 348.52814 334.6875 349.0594Q333.98438 349.59064 332.90625 349.59064Q331.54688 349.59064 330.73438 348.7469Q329.9375 347.90314 329.9375 346.3875Q329.9375 344.825 330.75 343.96564Q331.5625 343.09064 332.84375 343.09064Q334.09375 343.09064 334.875 343.9344Q335.67188 344.77814 335.67188 346.325Q335.67188 346.41876 335.67188 346.60626L331.03125 346.60626Q331.09375 347.6375 331.60938 348.1844Q332.125 348.71564 332.90625 348.71564Q333.48438 348.71564 333.89062 348.41876Q334.3125 348.10626 334.54688 347.45ZM331.09375 345.7469L334.5625 345.7469Q334.5 344.95 334.17188 344.5594Q333.65625 343.95 332.85938 343.95Q332.125 343.95 331.625 344.4344Q331.14062 344.91876 331.09375 345.7469ZM336.875 347.59064L337.90625 347.4344Q338.0 348.0594 338.39062 348.3875Q338.79688 348.71564 339.53125 348.71564Q340.25 348.71564 340.59375 348.4344Q340.95312 348.1375 340.95312 347.73126Q340.95312 347.3719 340.64062 347.16876Q340.42188 347.02814 339.5625 346.8094Q338.40625 346.5125 337.95312 346.3094Q337.51562 346.09064 337.28125 345.71564Q337.04688 345.34064 337.04688 344.8719Q337.04688 344.46564 337.23438 344.10626Q337.42188 343.7469 337.75 343.5125Q338.0 343.34064 338.42188 343.21564Q338.84375 343.09064 339.34375 343.09064Q340.0625 343.09064 340.60938 343.3094Q341.17188 343.5125 341.4375 343.8719Q341.70312 344.23126 341.79688 344.825L340.76562 344.96564Q340.70312 344.4969 340.35938 344.23126Q340.03125 343.95 339.40625 343.95Q338.6875 343.95 338.375 344.2Q338.0625 344.4344 338.0625 344.7625Q338.0625 344.96564 338.1875 345.1219Q338.32812 345.29376 338.59375 345.40314Q338.75 345.46564 339.53125 345.66876Q340.65625 345.98126 341.09375 346.16876Q341.53125 346.35626 341.78125 346.71564Q342.03125 347.075 342.03125 347.6219Q342.03125 348.15314 341.71875 348.6219Q341.42188 349.075 340.84375 349.34064Q340.26562 349.59064 339.53125 349.59064Q338.3125 349.59064 337.67188 349.09064Q337.04688 348.575 336.875 347.59064Z" fill-rule="nonzero"/><path fill="#000000" d="M33.05 300.21564Q33.05 298.6844 33.3625 297.7625Q33.675 296.825 34.284374 296.325Q34.909374 295.825 35.846874 295.825Q36.534374 295.825 37.05 296.10626Q37.58125 296.3875 37.925 296.91876Q38.26875 297.4344 38.45625 298.1844Q38.64375 298.9344 38.64375 300.21564Q38.64375 301.73126 38.33125 302.65314Q38.034374 303.575 37.409374 304.09064Q36.8 304.59064 35.846874 304.59064Q34.6125 304.59064 33.89375 303.7Q33.05 302.6375 33.05 300.21564ZM34.128124 300.21564Q34.128124 302.325 34.628124 303.02814Q35.128124 303.73126 35.846874 303.73126Q36.58125 303.73126 37.065624 303.02814Q37.565624 302.325 37.565624 300.21564Q37.565624 298.09064 37.065624 297.40314Q36.58125 296.7 35.83125 296.7Q35.1125 296.7 34.675 297.3094Q34.128124 298.09064 34.128124 300.21564Z" fill-rule="nonzero"/><path fill="#000000" d="M31.596874 250.39272L31.596874 251.40834L25.909374 251.40834Q25.909374 251.03334 26.034374 250.67397Q26.253124 250.09584 26.721874 249.53334Q27.20625 248.97084 28.1125 248.23647Q29.51875 247.08022 30.003124 246.40834Q30.503124 245.73647 30.503124 245.14272Q30.503124 244.51772 30.05 244.09584Q29.596874 243.65834 28.878124 243.65834Q28.1125 243.65834 27.659374 244.11147Q27.20625 244.56459 27.190624 245.37709L26.1125 245.26772Q26.221874 244.04897 26.940624 243.42397Q27.675 242.78334 28.909374 242.78334Q30.14375 242.78334 30.8625 243.47084Q31.58125 244.15834 31.58125 245.17397Q31.58125 245.68959 31.3625 246.18959Q31.159374 246.67397 30.659374 247.23647Q30.175 247.78334 29.05 248.73647Q28.096874 249.53334 27.815624 249.83022Q27.55 250.11147 27.378124 250.39272L31.596874 250.39272ZM33.05 247.17397Q33.05 245.64272 33.3625 244.72084Q33.675 243.78334 34.284374 243.28334Q34.909374 242.78334 35.846874 242.78334Q36.534374 242.78334 37.05 243.06459Q37.58125 243.34584 37.925 243.87709Q38.26875 244.39272 38.45625 245.14272Q38.64375 245.89272 38.64375 247.17397Q38.64375 248.68959 38.33125 249.61147Q38.034374 250.53334 37.409374 251.04897Q36.8 251.54897 35.846874 251.54897Q34.6125 251.54897 33.89375 250.65834Q33.05 249.59584 33.05 247.17397ZM34.128124 247.17397Q34.128124 249.28334 34.628124 249.98647Q35.128124 250.68959 35.846874 250.68959Q36.58125 250.68959 37.065624 249.98647Q37.565624 249.28334 37.565624 247.17397Q37.565624 245.04897 37.065624 244.36147Q36.58125 243.65834 35.83125 243.65834Q35.1125 243.65834 34.675 244.26772Q34.128124 245.04897 34.128124 247.17397Z" fill-rule="nonzero"/><path fill="#000000" d="M29.425 198.36667L29.425 196.30417L25.70625 196.30417L25.70625 195.33542L29.628124 189.77292L30.4875 189.77292L30.4875 195.33542L31.64375 195.33542L31.64375 196.30417L30.4875 196.30417L30.4875 198.36667L29.425 198.36667ZM29.425 195.33542L29.425 191.47604L26.7375 195.33542L29.425 195.33542ZM33.05 194.1323Q33.05 192.60104 33.3625 191.67917Q33.675 190.74167 34.284374 190.24167Q34.909374 189.74167 35.846874 189.74167Q36.534374 189.74167 37.05 190.02292Q37.58125 190.30417 37.925 190.83542Q38.26875 191.35104 38.45625 192.10104Q38.64375 192.85104 38.64375 194.1323Q38.64375 195.64792 38.33125 196.5698Q38.034374 197.49167 37.409374 198.0073Q36.8 198.5073 35.846874 198.5073Q34.6125 198.5073 33.89375 197.61667Q33.05 196.55417 33.05 194.1323ZM34.128124 194.1323Q34.128124 196.24167 34.628124 196.9448Q35.128124 197.64792 35.846874 197.64792Q36.58125 197.64792 37.065624 196.9448Q37.565624 196.24167 37.565624 194.1323Q37.565624 192.0073 37.065624 191.3198Q36.58125 190.61667 35.83125 190.61667Q35.1125 190.61667 34.675 191.22604Q34.128124 192.0073 34.128124 194.1323Z" fill-rule="nonzero"/><path fill="#000000" d="M31.51875 138.84062L30.471874 138.91875Q30.33125 138.29375 30.08125 138.0125Q29.64375 137.55937 29.01875 137.55937Q28.51875 137.55937 28.128124 137.84062Q27.64375 138.21562 27.346874 138.91875Q27.065624 139.60625 27.05 140.8875Q27.425 140.30937 27.971874 140.02812Q28.534374 139.74687 29.14375 139.74687Q30.190624 139.74687 30.925 140.52812Q31.675 141.30937 31.675 142.52812Q31.675 143.34062 31.315624 144.04375Q30.971874 144.73125 30.3625 145.10625Q29.753124 145.46562 28.9875 145.46562Q27.659374 145.46562 26.83125 144.49687Q26.003124 143.52812 26.003124 141.30937Q26.003124 138.80937 26.925 137.68437Q27.721874 136.7 29.08125 136.7Q30.096874 136.7 30.7375 137.27812Q31.39375 137.84062 31.51875 138.84062ZM27.221874 142.54375Q27.221874 143.09062 27.440624 143.59062Q27.675 144.075 28.08125 144.34062Q28.503124 144.60625 28.971874 144.60625Q29.628124 144.60625 30.1125 144.075Q30.596874 143.52812 30.596874 142.60625Q30.596874 141.71562 30.1125 141.2Q29.64375 140.68437 28.925 140.68437Q28.20625 140.68437 27.70625 141.2Q27.221874 141.71562 27.221874 142.54375ZM33.05 141.09062Q33.05 139.55937 33.3625 138.6375Q33.675 137.7 34.284374 137.2Q34.909374 136.7 35.846874 136.7Q36.534374 136.7 37.05 136.98125Q37.58125 137.2625 37.925 137.79375Q38.26875 138.30937 38.45625 139.05937Q38.64375 139.80937 38.64375 141.09062Q38.64375 142.60625 38.33125 143.52812Q38.034374 144.45 37.409374 144.96562Q36.8 145.46562 35.846874 145.46562Q34.6125 145.46562 33.89375 144.575Q33.05 143.5125 33.05 141.09062ZM34.128124 141.09062Q34.128124 143.2 34.628124 143.90312Q35.128124 144.60625 35.846874 144.60625Q36.58125 144.60625 37.065624 143.90312Q37.565624 143.2 37.565624 141.09062Q37.565624 138.96562 37.065624 138.27812Q36.58125 137.575 35.83125 137.575Q35.1125 137.575 34.675 138.18437Q34.128124 138.96562 34.128124 141.09062Z" fill-rule="nonzero"/><path fill="#000000" d="M27.675 87.62708Q27.01875 87.37708 26.690624 86.93958Q26.378124 86.48646 26.378124 85.87708Q26.378124 84.93958 27.05 84.29896Q27.7375 83.65833 28.846874 83.65833Q29.971874 83.65833 30.659374 84.31458Q31.346874 84.97083 31.346874 85.90833Q31.346874 86.50208 31.034374 86.93958Q30.721874 87.37708 30.08125 87.62708Q30.878124 87.87708 31.284374 88.45521Q31.690624 89.03333 31.690624 89.83021Q31.690624 90.92396 30.909374 91.67396Q30.14375 92.42396 28.8625 92.42396Q27.596874 92.42396 26.815624 91.67396Q26.034374 90.92396 26.034374 89.79896Q26.034374 88.95521 26.45625 88.39271Q26.89375 87.83021 27.675 87.62708ZM27.45625 85.83021Q27.45625 86.43958 27.846874 86.83021Q28.253124 87.22083 28.878124 87.22083Q29.4875 87.22083 29.878124 86.84583Q30.26875 86.45521 30.26875 85.89271Q30.26875 85.31458 29.8625 84.92396Q29.45625 84.51771 28.8625 84.51771Q28.253124 84.51771 27.846874 84.90833Q27.45625 85.29896 27.45625 85.83021ZM27.128124 89.79896Q27.128124 90.25208 27.33125 90.67396Q27.55 91.09583 27.971874 91.33021Q28.39375 91.56458 28.878124 91.56458Q29.628124 91.56458 30.1125 91.08021Q30.6125 90.59583 30.6125 89.84583Q30.6125 89.08021 30.1125 88.58021Q29.6125 88.08021 28.846874 88.08021Q28.096874 88.08021 27.6125 88.58021Q27.128124 89.06458 27.128124 89.79896ZM33.05 88.04896Q33.05 86.51771 33.3625 85.59583Q33.675 84.65833 34.284374 84.15833Q34.909374 83.65833 35.846874 83.65833Q36.534374 83.65833 37.05 83.93958Q37.58125 84.22083 37.925 84.75208Q38.26875 85.26771 38.45625 86.01771Q38.64375 86.76771 38.64375 88.04896Q38.64375 89.56458 38.33125 90.48646Q38.034374 91.40833 37.409374 91.92396Q36.8 92.42396 35.846874 92.42396Q34.6125 92.42396 33.89375 91.53333Q33.05 90.47083 33.05 88.04896ZM34.128124 88.04896Q34.128124 90.15833 34.628124 90.86146Q35.128124 91.56458 35.846874 91.56458Q36.58125 91.56458 37.065624 90.86146Q37.565624 90.15833 37.565624 88.04896Q37.565624 85.92396 37.065624 85.23646Q36.58125 84.53333 35.83125 84.53333Q35.1125 84.53333 34.675 85.14271Q34.128124 85.92396 34.128124 88.04896Z" fill-rule="nonzero"/><path fill="#000000" d="M127.331894 312.79376Q126.675644 312.54376 126.34752 312.10626Q126.03502 311.65314 126.03502 311.04376Q126.03502 310.10626 126.706894 309.46564Q127.394394 308.825 128.50377 308.825Q129.62877 308.825 130.31627 309.48126Q131.00377 310.1375 131.00377 311.075Q131.00377 311.66876 130.69127 312.10626Q130.37877 312.54376 129.73814 312.79376Q130.53502 313.04376 130.94127 313.6219Q131.34752 314.2 131.34752 314.9969Q131.34752 316.09064 130.56627 316.84064Q129.80064 317.59064 128.5194 317.59064Q127.25377 317.59064 126.47252 316.84064Q125.69127 316.09064 125.69127 314.96564Q125.69127 314.1219 126.113144 313.5594Q126.550644 312.9969 127.331894 312.79376ZM127.113144 310.9969Q127.113144 311.60626 127.50377 311.9969Q127.91002 312.3875 128.53502 312.3875Q129.1444 312.3875 129.53502 312.0125Q129.92564 311.6219 129.92564 311.0594Q129.92564 310.48126 129.5194 310.09064Q129.11314 309.6844 128.5194 309.6844Q127.91002 309.6844 127.50377 310.075Q127.113144 310.46564 127.113144 310.9969ZM126.78502 314.96564Q126.78502 315.41876 126.988144 315.84064Q127.206894 316.2625 127.62877 316.4969Q128.05064 316.73126 128.53502 316.73126Q129.28502 316.73126 129.7694 316.2469Q130.2694 315.7625 130.2694 315.0125Q130.2694 314.2469 129.7694 313.7469Q129.2694 313.2469 128.50377 313.2469Q127.75377 313.2469 127.269394 313.7469Q126.78502 314.23126 126.78502 314.96564Z" fill-rule="nonzero"/><path fill="#000000" d="M249.37105 317.45L248.32417 317.45L248.32417 310.73126Q247.93355 311.09064 247.30855 311.46564Q246.69917 311.825 246.2148 311.9969L246.2148 310.98126Q247.0898 310.5594 247.74605 309.98126Q248.41792 309.3875 248.69917 308.825L249.37105 308.825L249.37105 317.45ZM257.87103 310.96564L256.82416 311.04376Q256.68353 310.41876 256.43353 310.1375Q255.99605 309.6844 255.37105 309.6844Q254.87105 309.6844 254.48042 309.96564Q253.99605 310.34064 253.69917 311.04376Q253.41792 311.73126 253.4023 313.0125Q253.7773 312.4344 254.32417 312.15314Q254.88667 311.8719 255.49605 311.8719Q256.5429 311.8719 257.27728 312.65314Q258.02728 313.4344 258.02728 314.65314Q258.02728 315.46564 257.6679 316.16876Q257.32416 316.85626 256.71478 317.23126Q256.1054 317.59064 255.3398 317.59064Q254.01167 317.59064 253.18355 316.6219Q252.35542 315.65314 252.35542 313.4344Q252.35542 310.9344 253.2773 309.8094Q254.07417 308.825 255.43355 308.825Q256.44916 308.825 257.08978 309.40314Q257.74603 309.96564 257.87103 310.96564ZM253.57417 314.66876Q253.57417 315.21564 253.79292 315.71564Q254.0273 316.2 254.43355 316.46564Q254.85542 316.73126 255.32417 316.73126Q255.98042 316.73126 256.46478 316.2Q256.94916 315.65314 256.94916 314.73126Q256.94916 313.84064 256.46478 313.325Q255.99605 312.8094 255.2773 312.8094Q254.55855 312.8094 254.05855 313.325Q253.57417 313.84064 253.57417 314.66876Z" fill-rule="nonzero"/><path fill="#000000" d="M368.5977 315.1844L369.6602 315.04376Q369.83206 315.9344 370.26956 316.34064Q370.70706 316.73126 371.33206 316.73126Q372.08206 316.73126 372.5977 316.21564Q373.1133 315.7 373.1133 314.9344Q373.1133 314.21564 372.62894 313.7469Q372.1602 313.2625 371.4258 313.2625Q371.12894 313.2625 370.6758 313.3875L370.8008 312.45Q370.9102 312.46564 370.9727 312.46564Q371.64456 312.46564 372.1758 312.1219Q372.7227 311.7625 372.7227 311.02814Q372.7227 310.45 372.33206 310.075Q371.94144 309.6844 371.31644 309.6844Q370.70706 309.6844 370.2852 310.075Q369.87894 310.46564 369.76956 311.23126L368.70706 311.04376Q368.89456 309.9969 369.58206 309.41876Q370.26956 308.825 371.2852 308.825Q371.9883 308.825 372.58206 309.1375Q373.1758 309.4344 373.4883 309.95Q373.8008 310.46564 373.8008 311.0594Q373.8008 311.60626 373.50394 312.075Q373.20706 312.52814 372.62894 312.79376Q373.37894 312.96564 373.8008 313.52814Q374.2227 314.075 374.2227 314.91876Q374.2227 316.04376 373.39456 316.825Q372.58206 317.60626 371.33206 317.60626Q370.20706 317.60626 369.45706 316.9344Q368.70706 316.2469 368.5977 315.1844ZM381.14456 316.4344L381.14456 317.45L375.45706 317.45Q375.45706 317.075 375.58206 316.71564Q375.8008 316.1375 376.26956 315.575Q376.75394 315.0125 377.6602 314.27814Q379.06644 313.1219 379.5508 312.45Q380.0508 311.77814 380.0508 311.1844Q380.0508 310.5594 379.5977 310.1375Q379.14456 309.7 378.4258 309.7Q377.6602 309.7 377.20706 310.15314Q376.75394 310.60626 376.7383 311.41876L375.6602 311.3094Q375.76956 310.09064 376.4883 309.46564Q377.2227 308.825 378.45706 308.825Q379.69144 308.825 380.4102 309.5125Q381.12894 310.2 381.12894 311.21564Q381.12894 311.73126 380.9102 312.23126Q380.70706 312.71564 380.20706 313.27814Q379.7227 313.825 378.5977 314.77814Q377.64456 315.575 377.3633 315.8719Q377.0977 316.15314 376.9258 316.4344L381.14456 316.4344Z" fill-rule="nonzero"/><path fill="#000000" d="M497.26184 310.96564L496.21497 311.04376Q496.07434 310.41876 495.82434 310.1375Q495.38684 309.6844 494.76184 309.6844Q494.26184 309.6844 493.87122 309.96564Q493.38684 310.34064 493.08997 311.04376Q492.80872 311.73126 492.7931 313.0125Q493.1681 312.4344 493.71497 312.15314Q494.27747 311.8719 494.88684 311.8719Q495.93372 311.8719 496.6681 312.65314Q497.4181 313.4344 497.4181 314.65314Q497.4181 315.46564 497.05872 316.16876Q496.71497 316.85626 496.1056 317.23126Q495.49622 317.59064 494.7306 317.59064Q493.40247 317.59064 492.57434 316.6219Q491.74622 315.65314 491.74622 313.4344Q491.74622 310.9344 492.6681 309.8094Q493.46497 308.825 494.82434 308.825Q495.83997 308.825 496.4806 309.40314Q497.13684 309.96564 497.26184 310.96564ZM492.96497 314.66876Q492.96497 315.21564 493.18372 315.71564Q493.4181 316.2 493.82434 316.46564Q494.24622 316.73126 494.71497 316.73126Q495.37122 316.73126 495.8556 316.2Q496.33997 315.65314 496.33997 314.73126Q496.33997 313.84064 495.8556 313.325Q495.38684 312.8094 494.6681 312.8094Q493.94934 312.8094 493.44934 313.325Q492.96497 313.84064 492.96497 314.66876ZM502.1681 317.45L502.1681 315.3875L498.44934 315.3875L498.44934 314.41876L502.37122 308.85626L503.2306 308.85626L503.2306 314.41876L504.38684 314.41876L504.38684 315.3875L503.2306 315.3875L503.2306 317.45L502.1681 317.45ZM502.1681 314.41876L502.1681 310.5594L499.4806 314.41876L502.1681 314.41876Z" fill-rule="nonzero"/><path fill="#ea4335" d="M201.0 56.916668C201.0 56.364384 201.44771 55.916668 202.0 55.916668L212.0 55.916668C212.55229 55.916668 213.0 56.364384 213.0 56.916668L213.0 66.916664C213.0 67.46895 212.55229 67.916664 212.0 67.916664L202.0 67.916664C201.44771 67.916664 201.0 67.46895 201.0 66.916664Z" fill-rule="nonzero"/><path fill="#1a1a1a" d="M221.375 64.05729L222.40625 63.90104Q222.5 64.52604 222.89062 64.854164Q223.29688 65.18229 224.03125 65.18229Q224.75 65.18229 225.09375 64.90104Q225.45312 64.604164 225.45312 64.197914Q225.45312 63.83854 225.14062 63.635414Q224.92188 63.49479 224.0625 63.27604Q222.90625 62.979164 222.45312 62.77604Q222.01562 62.55729 221.78125 62.18229Q221.54688 61.80729 221.54688 61.33854Q221.54688 60.93229 221.73438 60.572914Q221.92188 60.21354 222.25 59.979164Q222.5 59.80729 222.92188 59.68229Q223.34375 59.55729 223.84375 59.55729Q224.5625 59.55729 225.10938 59.77604Q225.67188 59.979164 225.9375 60.33854Q226.20312 60.697914 226.29688 61.291664L225.26562 61.43229Q225.20312 60.96354 224.85938 60.697914Q224.53125 60.416664 223.90625 60.416664Q223.1875 60.416664 222.875 60.666664Q222.5625 60.90104 222.5625 61.229164Q222.5625 61.43229 222.6875 61.58854Q222.82812 61.760414 223.09375 61.86979Q223.25 61.93229 224.03125 62.135414Q225.15625 62.447914 225.59375 62.635414Q226.03125 62.822914 226.28125 63.18229Q226.53125 63.541664 226.53125 64.08854Q226.53125 64.61979 226.21875 65.08854Q225.92188 65.541664 225.34375 65.80729Q224.76562 66.05729 224.03125 66.05729Q222.8125 66.05729 222.17188 65.55729Q221.54688 65.041664 221.375 64.05729ZM231.09375 64.979164L231.25 65.90104Q230.79688 65.99479 230.45312 65.99479Q229.875 65.99479 229.5625 65.822914Q229.25 65.635414 229.10938 65.33854Q228.98438 65.041664 228.98438 64.08854L228.98438 60.510414L228.21875 60.510414L228.21875 59.697914L228.98438 59.697914L228.98438 58.15104L230.03125 57.52604L230.03125 59.697914L231.09375 59.697914L231.09375 60.510414L230.03125 60.510414L230.03125 64.15104Q230.03125 64.604164 230.07812 64.729164Q230.14062 64.854164 230.26562 64.93229Q230.39062 65.010414 230.625 65.010414Q230.8125 65.010414 231.09375 64.979164ZM235.82812 65.916664L235.82812 65.135414Q235.23438 66.05729 234.09375 66.05729Q233.34375 66.05729 232.71875 65.65104Q232.09375 65.229164 231.75 64.49479Q231.40625 63.760414 231.40625 62.80729Q231.40625 61.885414 231.71875 61.11979Q232.03125 60.354164 232.65625 59.96354Q233.28125 59.55729 234.04688 59.55729Q234.60938 59.55729 235.04688 59.791664Q235.48438 60.02604 235.76562 60.40104L235.76562 57.322914L236.8125 57.322914L236.8125 65.916664L235.82812 65.916664ZM232.5 62.80729Q232.5 64.010414 233.0 64.604164Q233.5 65.18229 234.1875 65.18229Q234.875 65.18229 235.35938 64.61979Q235.84375 64.05729 235.84375 62.90104Q235.84375 61.61979 235.34375 61.02604Q234.85938 60.43229 234.14062 60.43229Q233.4375 60.43229 232.96875 61.010414Q232.5 61.572914 232.5 62.80729ZM239.07812 60.90104L239.07812 59.697914L240.28125 59.697914L240.28125 60.90104L239.07812 60.90104ZM239.07812 65.916664L239.07812 64.71354L240.28125 64.71354L240.28125 65.916664L239.07812 65.916664ZM242.07812 60.90104L242.07812 59.697914L243.28125 59.697914L243.28125 60.90104L242.07812 60.90104ZM242.07812 65.916664L242.07812 64.71354L243.28125 64.71354L243.28125 65.916664L242.07812 65.916664ZM245.04688 65.916664L245.04688 60.510414L244.10938 60.510414L244.10938 59.697914L245.04688 59.697914L245.04688 59.02604Q245.04688 58.40104 245.15625 58.104164Q245.3125 57.68229 245.6875 57.43229Q246.07812 57.18229 246.76562 57.18229Q247.21875 57.18229 247.75 57.291664L247.59375 58.197914Q247.26562 58.15104 246.96875 58.15104Q246.48438 58.15104 246.28125 58.354164Q246.09375 58.55729 246.09375 59.11979L246.09375 59.697914L247.3125 59.697914L247.3125 60.510414L246.09375 60.510414L246.09375 65.916664L245.04688 65.916664ZM247.40625 62.80729Q247.40625 61.072914 248.35938 60.24479Q249.15625 59.55729 250.3125 59.55729Q251.59375 59.55729 252.40625 60.40104Q253.23438 61.229164 253.23438 62.71354Q253.23438 63.916664 252.875 64.604164Q252.51562 65.291664 251.8125 65.68229Q251.125 66.05729 250.3125 66.05729Q249.01562 66.05729 248.20312 65.229164Q247.40625 64.385414 247.40625 62.80729ZM248.48438 62.80729Q248.48438 63.99479 249.0 64.58854Q249.53125 65.18229 250.3125 65.18229Q251.10938 65.18229 251.625 64.58854Q252.14062 63.99479 252.14062 62.77604Q252.14062 61.61979 251.60938 61.02604Q251.09375 60.43229 250.3125 60.43229Q249.53125 60.43229 249.0 61.02604Q248.48438 61.604164 248.48438 62.80729ZM254.78125 65.916664L254.78125 59.697914L255.73438 59.697914L255.73438 60.635414Q256.09375 59.979164 256.39062 59.77604Q256.70312 59.55729 257.07812 59.55729Q257.60938 59.55729 258.15625 59.885414L257.79688 60.86979Q257.40625 60.635414 257.03125 60.635414Q256.67188 60.635414 256.39062 60.854164Q256.125 61.05729 256.01562 61.43229Q255.82812 61.99479 255.82812 62.65104L255.82812 65.916664L254.78125 65.916664ZM259.9375 65.916664L258.03125 59.697914L259.125 59.697914L260.10938 63.291664L260.48438 64.61979Q260.51562 64.52604 260.8125 63.33854L261.79688 59.697914L262.875 59.697914L263.8125 63.30729L264.125 64.49479L264.48438 63.291664L265.54688 59.697914L266.57812 59.697914L264.625 65.916664L263.53125 65.916664L262.54688 62.18229L262.29688 61.135414L261.04688 65.916664L259.9375 65.916664ZM271.85938 65.15104Q271.26562 65.65104 270.71875 65.854164Q270.1875 66.05729 269.5625 66.05729Q268.53125 66.05729 267.98438 65.55729Q267.4375 65.05729 267.4375 64.27604Q267.4375 63.822914 267.64062 63.447914Q267.84375 63.05729 268.1875 62.83854Q268.53125 62.604164 268.95312 62.49479Q269.25 62.40104 269.89062 62.322914Q271.15625 62.18229 271.76562 61.96354Q271.76562 61.74479 271.76562 61.697914Q271.76562 61.041664 271.46875 60.77604Q271.0625 60.43229 270.26562 60.43229Q269.53125 60.43229 269.17188 60.697914Q268.8125 60.947914 268.64062 61.604164L267.60938 61.46354Q267.75 60.80729 268.07812 60.40104Q268.40625 59.99479 269.01562 59.77604Q269.625 59.55729 270.42188 59.55729Q271.21875 59.55729 271.71875 59.74479Q272.21875 59.93229 272.45312 60.21354Q272.6875 60.49479 272.78125 60.93229Q272.82812 61.197914 272.82812 61.90104L272.82812 63.30729Q272.82812 64.77604 272.89062 65.166664Q272.96875 65.55729 273.17188 65.916664L272.0625 65.916664Q271.90625 65.58854 271.85938 65.15104ZM271.76562 62.791664Q271.1875 63.02604 270.04688 63.197914Q269.39062 63.291664 269.125 63.416664Q268.85938 63.52604 268.70312 63.74479Q268.5625 63.96354 268.5625 64.24479Q268.5625 64.666664 268.875 64.947914Q269.20312 65.229164 269.8125 65.229164Q270.42188 65.229164 270.89062 64.96354Q271.375 64.697914 271.59375 64.229164Q271.76562 63.86979 271.76562 63.18229L271.76562 62.791664ZM274.78125 65.916664L274.78125 59.697914L275.73438 59.697914L275.73438 60.635414Q276.09375 59.979164 276.39062 59.77604Q276.70312 59.55729 277.07812 59.55729Q277.60938 59.55729 278.15625 59.885414L277.79688 60.86979Q277.40625 60.635414 277.03125 60.635414Q276.67188 60.635414 276.39062 60.854164Q276.125 61.05729 276.01562 61.43229Q275.82812 61.99479 275.82812 62.65104L275.82812 65.916664L274.78125 65.916664ZM282.82812 65.916664L282.82812 65.135414Q282.23438 66.05729 281.09375 66.05729Q280.34375 66.05729 279.71875 65.65104Q279.09375 65.229164 278.75 64.49479Q278.40625 63.760414 278.40625 62.80729Q278.40625 61.885414 278.71875 61.11979Q279.03125 60.354164 279.65625 59.96354Q280.28125 59.55729 281.04688 59.55729Q281.60938 59.55729 282.04688 59.791664Q282.48438 60.02604 282.76562 60.40104L282.76562 57.322914L283.8125 57.322914L283.8125 65.916664L282.82812 65.916664ZM279.5 62.80729Q279.5 64.010414 280.0 64.604164Q280.5 65.18229 281.1875 65.18229Q281.875 65.18229 282.35938 64.61979Q282.84375 64.05729 282.84375 62.90104Q282.84375 61.61979 282.34375 61.02604Q281.85938 60.43229 281.14062 60.43229Q280.4375 60.43229 279.96875 61.010414Q279.5 61.572914 279.5 62.80729ZM284.8125 68.30729L284.8125 67.541664L291.8125 67.541664L291.8125 68.30729L284.8125 68.30729ZM292.76562 65.916664L292.76562 57.322914L293.82812 57.322914L293.82812 65.916664L292.76562 65.916664ZM295.79688 58.541664L295.79688 57.322914L296.85938 57.322914L296.85938 58.541664L295.79688 58.541664ZM295.79688 65.916664L295.79688 59.697914L296.85938 59.697914L296.85938 65.916664L295.79688 65.916664ZM298.375 64.05729L299.40625 63.90104Q299.5 64.52604 299.89062 64.854164Q300.29688 65.18229 301.03125 65.18229Q301.75 65.18229 302.09375 64.90104Q302.45312 64.604164 302.45312 64.197914Q302.45312 63.83854 302.14062 63.635414Q301.92188 63.49479 301.0625 63.27604Q299.90625 62.979164 299.45312 62.77604Q299.01562 62.55729 298.78125 62.18229Q298.54688 61.80729 298.54688 61.33854Q298.54688 60.93229 298.73438 60.572914Q298.92188 60.21354 299.25 59.979164Q299.5 59.80729 299.92188 59.68229Q300.34375 59.55729 300.84375 59.55729Q301.5625 59.55729 302.10938 59.77604Q302.67188 59.979164 302.9375 60.33854Q303.20312 60.697914 303.29688 61.291664L302.26562 61.43229Q302.20312 60.96354 301.85938 60.697914Q301.53125 60.416664 300.90625 60.416664Q300.1875 60.416664 299.875 60.666664Q299.5625 60.90104 299.5625 61.229164Q299.5625 61.43229 299.6875 61.58854Q299.82812 61.760414 300.09375 61.86979Q300.25 61.93229 301.03125 62.135414Q302.15625 62.447914 302.59375 62.635414Q303.03125 62.822914 303.28125 63.18229Q303.53125 63.541664 303.53125 64.08854Q303.53125 64.61979 303.21875 65.08854Q302.92188 65.541664 302.34375 65.80729Q301.76562 66.05729 301.03125 66.05729Q299.8125 66.05729 299.17188 65.55729Q298.54688 65.041664 298.375 64.05729ZM308.09375 64.979164L308.25 65.90104Q307.79688 65.99479 307.45312 65.99479Q306.875 65.99479 306.5625 65.822914Q306.25 65.635414 306.10938 65.33854Q305.98438 65.041664 305.98438 64.08854L305.98438 60.510414L305.21875 60.510414L305.21875 59.697914L305.98438 59.697914L305.98438 58.15104L307.03125 57.52604L307.03125 59.697914L308.09375 59.697914L308.09375 60.510414L307.03125 60.510414L307.03125 64.15104Q307.03125 64.604164 307.07812 64.729164Q307.14062 64.854164 307.26562 64.93229Q307.39062 65.010414 307.625 65.010414Q307.8125 65.010414 308.09375 64.979164Z" fill-rule="nonzero"/><path fill="#4285f4" d="M324.0 56.916668C324.0 56.364384 324.44772 55.916668 325.0 55.916668L335.0 55.916668C335.55228 55.916668 336.0 56.364384 336.0 56.916668L336.0 66.916664C336.0 67.46895 335.55228 67.916664 335.0 67.916664L325.0 67.916664C324.44772 67.916664 324.0 67.46895 324.0 66.916664Z" fill-rule="nonzero"/><path fill="#1a1a1a" d="M344.375 64.05729L345.40625 63.90104Q345.5 64.52604 345.89062 64.854164Q346.29688 65.18229 347.03125 65.18229Q347.75 65.18229 348.09375 64.90104Q348.45312 64.604164 348.45312 64.197914Q348.45312 63.83854 348.14062 63.635414Q347.92188 63.49479 347.0625 63.27604Q345.90625 62.979164 345.45312 62.77604Q345.01562 62.55729 344.78125 62.18229Q344.54688 61.80729 344.54688 61.33854Q344.54688 60.93229 344.73438 60.572914Q344.92188 60.21354 345.25 59.979164Q345.5 59.80729 345.92188 59.68229Q346.34375 59.55729 346.84375 59.55729Q347.5625 59.55729 348.10938 59.77604Q348.67188 59.979164 348.9375 60.33854Q349.20312 60.697914 349.29688 61.291664L348.26562 61.43229Q348.20312 60.96354 347.85938 60.697914Q347.53125 60.416664 346.90625 60.416664Q346.1875 60.416664 345.875 60.666664Q345.5625 60.90104 345.5625 61.229164Q345.5625 61.43229 345.6875 61.58854Q345.82812 61.760414 346.09375 61.86979Q346.25 61.93229 347.03125 62.135414Q348.15625 62.447914 348.59375 62.635414Q349.03125 62.822914 349.28125 63.18229Q349.53125 63.541664 349.53125 64.08854Q349.53125 64.61979 349.21875 65.08854Q348.92188 65.541664 348.34375 65.80729Q347.76562 66.05729 347.03125 66.05729Q345.8125 66.05729 345.17188 65.55729Q344.54688 65.041664 344.375 64.05729ZM354.09375 64.979164L354.25 65.90104Q353.79688 65.99479 353.45312 65.99479Q352.875 65.99479 352.5625 65.822914Q352.25 65.635414 352.10938 65.33854Q351.98438 65.041664 351.98438 64.08854L351.98438 60.510414L351.21875 60.510414L351.21875 59.697914L351.98438 59.697914L351.98438 58.15104L353.03125 57.52604L353.03125 59.697914L354.09375 59.697914L354.09375 60.510414L353.03125 60.510414L353.03125 64.15104Q353.03125 64.604164 353.07812 64.729164Q353.14062 64.854164 353.26562 64.93229Q353.39062 65.010414 353.625 65.010414Q353.8125 65.010414 354.09375 64.979164ZM358.82812 65.916664L358.82812 65.135414Q358.23438 66.05729 357.09375 66.05729Q356.34375 66.05729 355.71875 65.65104Q355.09375 65.229164 354.75 64.49479Q354.40625 63.760414 354.40625 62.80729Q354.40625 61.885414 354.71875 61.11979Q355.03125 60.354164 355.65625 59.96354Q356.28125 59.55729 357.04688 59.55729Q357.60938 59.55729 358.04688 59.791664Q358.48438 60.02604 358.76562 60.40104L358.76562 57.322914L359.8125 57.322914L359.8125 65.916664L358.82812 65.916664ZM355.5 62.80729Q355.5 64.010414 356.0 64.604164Q356.5 65.18229 357.1875 65.18229Q357.875 65.18229 358.35938 64.61979Q358.84375 64.05729 358.84375 62.90104Q358.84375 61.61979 358.34375 61.02604Q357.85938 60.43229 357.14062 60.43229Q356.4375 60.43229 355.96875 61.010414Q355.5 61.572914 355.5 62.80729ZM362.07812 60.90104L362.07812 59.697914L363.28125 59.697914L363.28125 60.90104L362.07812 60.90104ZM362.07812 65.916664L362.07812 64.71354L363.28125 64.71354L363.28125 65.916664L362.07812 65.916664ZM365.07812 60.90104L365.07812 59.697914L366.28125 59.697914L366.28125 60.90104L365.07812 60.90104ZM365.07812 65.916664L365.07812 64.71354L366.28125 64.71354L366.28125 65.916664L365.07812 65.916664ZM369.51562 65.916664L367.15625 59.697914L368.26562 59.697914L369.60938 63.416664Q369.8125 64.02604 370.0 64.666664Q370.14062 64.18229 370.39062 63.49479L371.78125 59.697914L372.85938 59.697914L370.5 65.916664L369.51562 65.916664ZM377.04688 63.916664L378.14062 64.041664Q377.89062 64.99479 377.1875 65.52604Q376.48438 66.05729 375.40625 66.05729Q374.04688 66.05729 373.23438 65.21354Q372.4375 64.36979 372.4375 62.854164Q372.4375 61.291664 373.25 60.43229Q374.0625 59.55729 375.34375 59.55729Q376.59375 59.55729 377.375 60.40104Q378.17188 61.24479 378.17188 62.791664Q378.17188 62.885414 378.17188 63.072914L373.53125 63.072914Q373.59375 64.104164 374.10938 64.65104Q374.625 65.18229 375.40625 65.18229Q375.98438 65.18229 376.39062 64.885414Q376.8125 64.572914 377.04688 63.916664ZM373.59375 62.21354L377.0625 62.21354Q377.0 61.416664 376.67188 61.02604Q376.15625 60.416664 375.35938 60.416664Q374.625 60.416664 374.125 60.90104Q373.64062 61.385414 373.59375 62.21354ZM383.85938 63.635414L384.89062 63.77604Q384.71875 64.83854 384.01562 65.447914Q383.3125 66.05729 382.29688 66.05729Q381.01562 66.05729 380.23438 65.229164Q379.46875 64.385414 379.46875 62.822914Q379.46875 61.822914 379.79688 61.072914Q380.14062 60.30729 380.8125 59.93229Q381.5 59.55729 382.3125 59.55729Q383.3125 59.55729 383.95312 60.072914Q384.60938 60.572914 384.79688 61.52604L383.76562 61.68229Q383.625 61.05729 383.25 60.74479Q382.875 60.416664 382.34375 60.416664Q381.54688 60.416664 381.04688 60.99479Q380.54688 61.55729 380.54688 62.791664Q380.54688 64.05729 381.03125 64.61979Q381.51562 65.18229 382.28125 65.18229Q382.90625 65.18229 383.3125 64.80729Q383.73438 64.43229 383.85938 63.635414ZM388.09375 64.979164L388.25 65.90104Q387.79688 65.99479 387.45312 65.99479Q386.875 65.99479 386.5625 65.822914Q386.25 65.635414 386.10938 65.33854Q385.98438 65.041664 385.98438 64.08854L385.98438 60.510414L385.21875 60.510414L385.21875 59.697914L385.98438 59.697914L385.98438 58.15104L387.03125 57.52604L387.03125 59.697914L388.09375 59.697914L388.09375 60.510414L387.03125 60.510414L387.03125 64.15104Q387.03125 64.604164 387.07812 64.729164Q387.14062 64.854164 387.26562 64.93229Q387.39062 65.010414 387.625 65.010414Q387.8125 65.010414 388.09375 64.979164ZM388.40625 62.80729Q388.40625 61.072914 389.35938 60.24479Q390.15625 59.55729 391.3125 59.55729Q392.59375 59.55729 393.40625 60.40104Q394.23438 61.229164 394.23438 62.71354Q394.23438 63.916664 393.875 64.604164Q393.51562 65.291664 392.8125 65.68229Q392.125 66.05729 391.3125 66.05729Q390.01562 66.05729 389.20312 65.229164Q388.40625 64.385414 388.40625 62.80729ZM389.48438 62.80729Q389.48438 63.99479 390.0 64.58854Q390.53125 65.18229 391.3125 65.18229Q392.10938 65.18229 392.625 64.58854Q393.14062 63.99479 393.14062 62.77604Q393.14062 61.61979 392.60938 61.02604Q392.09375 60.43229 391.3125 60.43229Q390.53125 60.43229 390.0 61.02604Q389.48438 61.604164 389.48438 62.80729ZM395.78125 65.916664L395.78125 59.697914L396.73438 59.697914L396.73438 60.635414Q397.09375 59.979164 397.39062 59.77604Q397.70312 59.55729 398.07812 59.55729Q398.60938 59.55729 399.15625 59.885414L398.79688 60.86979Q398.40625 60.635414 398.03125 60.635414Q397.67188 60.635414 397.39062 60.854164Q397.125 61.05729 397.01562 61.43229Q396.82812 61.99479 396.82812 62.65104L396.82812 65.916664L395.78125 65.916664Z" fill-rule="nonzero"/><path fill="#757575" d="M19.159374 34.45625L20.909374 34.175Q21.05 35.221874 21.721874 35.784374Q22.39375 36.33125 23.596874 36.33125Q24.8 36.33125 25.378124 35.846874Q25.971874 35.346874 25.971874 34.690624Q25.971874 34.096874 25.45625 33.753124Q25.096874 33.51875 23.659374 33.159374Q21.721874 32.659374 20.971874 32.315624Q20.2375 31.95625 19.846874 31.33125Q19.45625 30.690624 19.45625 29.925Q19.45625 29.2375 19.76875 28.64375Q20.096874 28.05 20.64375 27.659374Q21.05 27.3625 21.753124 27.159374Q22.471874 26.940624 23.284374 26.940624Q24.503124 26.940624 25.425 27.3Q26.346874 27.64375 26.784374 28.253124Q27.221874 28.846874 27.39375 29.846874L25.675 30.08125Q25.55 29.284374 24.9875 28.846874Q24.425 28.39375 23.409374 28.39375Q22.190624 28.39375 21.675 28.8Q21.159374 29.190624 21.159374 29.721874Q21.159374 30.065624 21.378124 30.346874Q21.58125 30.628124 22.05 30.815624Q22.315624 30.909374 23.596874 31.253124Q25.471874 31.753124 26.20625 32.08125Q26.940624 32.39375 27.3625 33.003124Q27.784374 33.596874 27.784374 34.503124Q27.784374 35.378124 27.26875 36.159374Q26.753124 36.940624 25.784374 37.3625Q24.815624 37.784374 23.596874 37.784374Q21.58125 37.784374 20.51875 36.940624Q19.45625 36.096874 19.159374 34.45625ZM33.70625 35.971874L33.95625 37.534374Q33.221874 37.690624 32.628124 37.690624Q31.675 37.690624 31.14375 37.39375Q30.628124 37.08125 30.409374 36.596874Q30.190624 36.096874 30.190624 34.51875L30.190624 28.55L28.909374 28.55L28.909374 27.175L30.190624 27.175L30.190624 24.6125L31.940624 23.55L31.940624 27.175L33.70625 27.175L33.70625 28.55L31.940624 28.55L31.940624 34.6125Q31.940624 35.3625 32.034374 35.58125Q32.128124 35.784374 32.33125 35.925Q32.55 36.05 32.940624 36.05Q33.221874 36.05 33.70625 35.971874ZM42.596874 37.55L42.596874 36.2375Q41.6125 37.784374 39.690624 37.784374Q38.45625 37.784374 37.409374 37.096874Q36.378124 36.409374 35.8 35.190624Q35.2375 33.971874 35.2375 32.378124Q35.2375 30.815624 35.753124 29.55Q36.26875 28.284374 37.3 27.6125Q38.346874 26.940624 39.6125 26.940624Q40.55 26.940624 41.284374 27.346874Q42.01875 27.7375 42.4875 28.3625L42.4875 23.2375L44.221874 23.2375L44.221874 37.55L42.596874 37.55ZM37.034374 32.378124Q37.034374 34.3625 37.878124 35.346874Q38.721874 36.33125 39.8625 36.33125Q41.01875 36.33125 41.815624 35.39375Q42.628124 34.45625 42.628124 32.51875Q42.628124 30.39375 41.8 29.39375Q40.9875 28.39375 39.784374 28.39375Q38.6125 28.39375 37.815624 29.3625Q37.034374 30.315624 37.034374 32.378124ZM47.3625 29.175L47.3625 27.175L49.3625 27.175L49.3625 29.175L47.3625 29.175ZM47.3625 37.55L47.3625 35.55L49.3625 35.55L49.3625 37.55L47.3625 37.55ZM53.3625 29.175L53.3625 27.175L55.3625 27.175L55.3625 29.175L53.3625 29.175ZM53.3625 37.55L53.3625 35.55L55.3625 35.55L55.3625 37.55L53.3625 37.55ZM59.284374 37.55L59.284374 28.55L57.7375 28.55L57.7375 27.175L59.284374 27.175L59.284374 26.08125Q59.284374 25.034374 59.471874 24.51875Q59.721874 23.83125 60.3625 23.409374Q61.003124 22.9875 62.159374 22.9875Q62.909374 22.9875 63.8 23.159374L63.534374 24.690624Q62.9875 24.596874 62.503124 24.596874Q61.70625 24.596874 61.3625 24.940624Q61.034374 25.284374 61.034374 26.221874L61.034374 27.175L63.065624 27.175L63.065624 28.55L61.034374 28.55L61.034374 37.55L59.284374 37.55ZM64.22188 32.3625Q64.22188 29.4875 65.81563 28.096874Q67.15938 26.940624 69.08125 26.940624Q71.22188 26.940624 72.56563 28.346874Q73.925 29.753124 73.925 32.221874Q73.925 34.221874 73.33125 35.378124Q72.7375 36.51875 71.58125 37.159374Q70.44063 37.784374 69.08125 37.784374Q66.89375 37.784374 65.55 36.39375Q64.22188 34.9875 64.22188 32.3625ZM66.01875 32.3625Q66.01875 34.3625 66.87813 35.346874Q67.75313 36.33125 69.08125 36.33125Q70.39375 36.33125 71.25313 35.346874Q72.12813 34.346874 72.12813 32.3Q72.12813 30.378124 71.25313 29.39375Q70.37813 28.39375 69.08125 28.39375Q67.75313 28.39375 66.87813 29.39375Q66.01875 30.378124 66.01875 32.3625ZM75.84688 37.55L75.84688 27.175L77.425 27.175L77.425 28.753124Q78.03438 27.64375 78.55 27.3Q79.06563 26.940624 79.675 26.940624Q80.56563 26.940624 81.4875 27.503124L80.87813 29.14375Q80.2375 28.753124 79.59688 28.753124Q79.01875 28.753124 78.55 29.1125Q78.09688 29.45625 77.89375 30.065624Q77.6125 31.003124 77.6125 32.1125L77.6125 37.55L75.84688 37.55ZM84.78438 37.55L81.6125 27.175L83.425 27.175L85.08125 33.159374L85.69063 35.39375Q85.7375 35.221874 86.22188 33.253124L87.87813 27.175L89.69063 27.175L91.2375 33.190624L91.75313 35.175L92.34688 33.175L94.12813 27.175L95.83125 27.175L92.59688 37.55L90.76875 37.55L89.1125 31.33125L88.72188 29.565624L86.6125 37.55L84.78438 37.55ZM104.64375 36.26875Q103.65938 37.096874 102.75313 37.440624Q101.84688 37.784374 100.81563 37.784374Q99.1125 37.784374 98.19063 36.95625Q97.26875 36.1125 97.26875 34.815624Q97.26875 34.05 97.6125 33.425Q97.97188 32.8 98.53438 32.425Q99.09688 32.034374 99.8 31.83125Q100.31563 31.70625 101.3625 31.565624Q103.4875 31.315624 104.4875 30.971874Q104.50313 30.6125 104.50313 30.503124Q104.50313 29.440624 104.00313 28.9875Q103.33125 28.39375 102.00313 28.39375Q100.75313 28.39375 100.15938 28.83125Q99.58125 29.26875 99.3 30.378124L97.58125 30.14375Q97.81563 29.034374 98.34688 28.3625Q98.87813 27.675 99.89375 27.315624Q100.90938 26.940624 102.25313 26.940624Q103.58125 26.940624 104.40938 27.253124Q105.2375 27.565624 105.62813 28.05Q106.01875 28.51875 106.175 29.2375Q106.26875 29.690624 106.26875 30.8625L106.26875 33.20625Q106.26875 35.659374 106.37813 36.315624Q106.4875 36.95625 106.83125 37.55L104.9875 37.55Q104.72188 37.003124 104.64375 36.26875ZM104.4875 32.346874Q103.53438 32.7375 101.6125 33.003124Q100.53438 33.159374 100.08125 33.3625Q99.64375 33.55 99.39375 33.925Q99.14375 34.3 99.14375 34.76875Q99.14375 35.471874 99.675 35.940624Q100.20625 36.409374 101.2375 36.409374Q102.25313 36.409374 103.03438 35.971874Q103.83125 35.51875 104.20625 34.753124Q104.4875 34.14375 104.4875 32.9875L104.4875 32.346874ZM108.84688 37.55L108.84688 27.175L110.425 27.175L110.425 28.753124Q111.03438 27.64375 111.55 27.3Q112.06563 26.940624 112.675 26.940624Q113.56563 26.940624 114.4875 27.503124L113.87813 29.14375Q113.2375 28.753124 112.59688 28.753124Q112.01875 28.753124 111.55 29.1125Q111.09688 29.45625 110.89375 30.065624Q110.6125 31.003124 110.6125 32.1125L110.6125 37.55L108.84688 37.55ZM122.59688 37.55L122.59688 36.2375Q121.6125 37.784374 119.69063 37.784374Q118.45625 37.784374 117.40938 37.096874Q116.37813 36.409374 115.8 35.190624Q115.2375 33.971874 115.2375 32.378124Q115.2375 30.815624 115.75313 29.55Q116.26875 28.284374 117.3 27.6125Q118.34688 26.940624 119.6125 26.940624Q120.55 26.940624 121.28438 27.346874Q122.01875 27.7375 122.4875 28.3625L122.4875 23.2375L124.22188 23.2375L124.22188 37.55L122.59688 37.55ZM117.03438 32.378124Q117.03438 34.3625 117.87813 35.346874Q118.72188 36.33125 119.8625 36.33125Q121.01875 36.33125 121.81563 35.39375Q122.62813 34.45625 122.62813 32.51875Q122.62813 30.39375 121.8 29.39375Q120.9875 28.39375 119.78438 28.39375Q118.6125 28.39375 117.81563 29.3625Q117.03438 30.315624 117.03438 32.378124ZM125.25313 41.51875L125.25313 40.253124L136.89375 40.253124L136.89375 41.51875L125.25313 41.51875ZM137.83125 37.55L137.83125 23.2375L139.58125 23.2375L139.58125 37.55L137.83125 37.55ZM141.87813 25.253124L141.87813 23.2375L143.64375 23.2375L143.64375 25.253124L141.87813 25.253124ZM141.87813 37.55L141.87813 27.175L143.64375 27.175L143.64375 37.55L141.87813 37.55ZM145.15938 34.45625L146.90938 34.175Q147.05 35.221874 147.72188 35.784374Q148.39375 36.33125 149.59688 36.33125Q150.8 36.33125 151.37813 35.846874Q151.97188 35.346874 151.97188 34.690624Q151.97188 34.096874 151.45625 33.753124Q151.09688 33.51875 149.65938 33.159374Q147.72188 32.659374 146.97188 32.315624Q146.2375 31.95625 145.84688 31.33125Q145.45625 30.690624 145.45625 29.925Q145.45625 29.2375 145.76875 28.64375Q146.09688 28.05 146.64375 27.659374Q147.05 27.3625 147.75313 27.159374Q148.47188 26.940624 149.28438 26.940624Q150.50313 26.940624 151.425 27.3Q152.34688 27.64375 152.78438 28.253124Q153.22188 28.846874 153.39375 29.846874L151.675 30.08125Q151.55 29.284374 150.9875 28.846874Q150.425 28.39375 149.40938 28.39375Q148.19063 28.39375 147.675 28.8Q147.15938 29.190624 147.15938 29.721874Q147.15938 30.065624 147.37813 30.346874Q147.58125 30.628124 148.05 30.815624Q148.31563 30.909374 149.59688 31.253124Q151.47188 31.753124 152.20625 32.08125Q152.94063 32.39375 153.3625 33.003124Q153.78438 33.596874 153.78438 34.503124Q153.78438 35.378124 153.26875 36.159374Q152.75313 36.940624 151.78438 37.3625Q150.81563 37.784374 149.59688 37.784374Q147.58125 37.784374 146.51875 36.940624Q145.45625 36.096874 145.15938 34.45625ZM159.70625 35.971874L159.95625 37.534374Q159.22188 37.690624 158.62813 37.690624Q157.675 37.690624 157.14375 37.39375Q156.62813 37.08125 156.40938 36.596874Q156.19063 36.096874 156.19063 34.51875L156.19063 28.55L154.90938 28.55L154.90938 27.175L156.19063 27.175L156.19063 24.6125L157.94063 23.55L157.94063 27.175L159.70625 27.175L159.70625 28.55L157.94063 28.55L157.94063 34.6125Q157.94063 35.3625 158.03438 35.58125Q158.12813 35.784374 158.33125 35.925Q158.55 36.05 158.94063 36.05Q159.22188 36.05 159.70625 35.971874ZM170.75313 37.55L166.8 27.175L168.65938 27.175L170.89375 33.39375Q171.25313 34.39375 171.55 35.471874Q171.78438 34.659374 172.20625 33.503124L174.50313 27.175L176.31563 27.175L172.39375 37.55L170.75313 37.55ZM176.15938 34.45625L177.90938 34.175Q178.05 35.221874 178.72188 35.784374Q179.39375 36.33125 180.59688 36.33125Q181.8 36.33125 182.37813 35.846874Q182.97188 35.346874 182.97188 34.690624Q182.97188 34.096874 182.45625 33.753124Q182.09688 33.51875 180.65938 33.159374Q178.72188 32.659374 177.97188 32.315624Q177.2375 31.95625 176.84688 31.33125Q176.45625 30.690624 176.45625 29.925Q176.45625 29.2375 176.76875 28.64375Q177.09688 28.05 177.64375 27.659374Q178.05 27.3625 178.75313 27.159374Q179.47188 26.940624 180.28438 26.940624Q181.50313 26.940624 182.425 27.3Q183.34688 27.64375 183.78438 28.253124Q184.22188 28.846874 184.39375 29.846874L182.675 30.08125Q182.55 29.284374 181.9875 28.846874Q181.425 28.39375 180.40938 28.39375Q179.19063 28.39375 178.675 28.8Q178.15938 29.190624 178.15938 29.721874Q178.15938 30.065624 178.37813 30.346874Q178.58125 30.628124 179.05 30.815624Q179.31563 30.909374 180.59688 31.253124Q182.47188 31.753124 183.20625 32.08125Q183.94063 32.39375 184.3625 33.003124Q184.78438 33.596874 184.78438 34.503124Q184.78438 35.378124 184.26875 36.159374Q183.75313 36.940624 182.78438 37.3625Q181.81563 37.784374 180.59688 37.784374Q178.58125 37.784374 177.51875 36.940624Q176.45625 36.096874 176.15938 34.45625ZM192.15938 34.45625L193.90938 34.175Q194.05 35.221874 194.72188 35.784374Q195.39375 36.33125 196.59688 36.33125Q197.8 36.33125 198.37813 35.846874Q198.97188 35.346874 198.97188 34.690624Q198.97188 34.096874 198.45625 33.753124Q198.09688 33.51875 196.65938 33.159374Q194.72188 32.659374 193.97188 32.315624Q193.2375 31.95625 192.84688 31.33125Q192.45625 30.690624 192.45625 29.925Q192.45625 29.2375 192.76875 28.64375Q193.09688 28.05 193.64375 27.659374Q194.05 27.3625 194.75313 27.159374Q195.47188 26.940624 196.28438 26.940624Q197.50313 26.940624 198.425 27.3Q199.34688 27.64375 199.78438 28.253124Q200.22188 28.846874 200.39375 29.846874L198.675 30.08125Q198.55 29.284374 197.9875 28.846874Q197.425 28.39375 196.40938 28.39375Q195.19063 28.39375 194.675 28.8Q194.15938 29.190624 194.15938 29.721874Q194.15938 30.065624 194.37813 30.346874Q194.58125 30.628124 195.05 30.815624Q195.31563 30.909374 196.59688 31.253124Q198.47188 31.753124 199.20625 32.08125Q199.94063 32.39375 200.3625 33.003124Q200.78438 33.596874 200.78438 34.503124Q200.78438 35.378124 200.26875 36.159374Q199.75313 36.940624 198.78438 37.3625Q197.81563 37.784374 196.59688 37.784374Q194.58125 37.784374 193.51875 36.940624Q192.45625 36.096874 192.15938 34.45625ZM206.70625 35.971874L206.95625 37.534374Q206.22188 37.690624 205.62813 37.690624Q204.675 37.690624 204.14375 37.39375Q203.62813 37.08125 203.40938 36.596874Q203.19063 36.096874 203.19063 34.51875L203.19063 28.55L201.90938 28.55L201.90938 27.175L203.19063 27.175L203.19063 24.6125L204.94063 23.55L204.94063 27.175L206.70625 27.175L206.70625 28.55L204.94063 28.55L204.94063 34.6125Q204.94063 35.3625 205.03438 35.58125Q205.12813 35.784374 205.33125 35.925Q205.55 36.05 205.94063 36.05Q206.22188 36.05 206.70625 35.971874ZM215.59688 37.55L215.59688 36.2375Q214.6125 37.784374 212.69063 37.784374Q211.45625 37.784374 210.40938 37.096874Q209.37813 36.409374 208.8 35.190624Q208.2375 33.971874 208.2375 32.378124Q208.2375 30.815624 208.75313 29.55Q209.26875 28.284374 210.3 27.6125Q211.34688 26.940624 212.6125 26.940624Q213.55 26.940624 214.28438 27.346874Q215.01875 27.7375 215.4875 28.3625L215.4875 23.2375L217.22188 23.2375L217.22188 37.55L215.59688 37.55ZM210.03438 32.378124Q210.03438 34.3625 210.87813 35.346874Q211.72188 36.33125 212.8625 36.33125Q214.01875 36.33125 214.81563 35.39375Q215.62813 34.45625 215.62813 32.51875Q215.62813 30.39375 214.8 29.39375Q213.9875 28.39375 212.78438 28.39375Q211.6125 28.39375 210.81563 29.3625Q210.03438 30.315624 210.03438 32.378124ZM220.3625 29.175L220.3625 27.175L222.3625 27.175L222.3625 29.175L220.3625 29.175ZM220.3625 37.55L220.3625 35.55L222.3625 35.55L222.3625 37.55L220.3625 37.55ZM226.3625 29.175L226.3625 27.175L228.3625 27.175L228.3625 29.175L226.3625 29.175ZM226.3625 37.55L226.3625 35.55L228.3625 35.55L228.3625 37.55L226.3625 37.55ZM234.75313 37.55L230.8 27.175L232.65938 27.175L234.89375 33.39375Q235.25313 34.39375 235.55 35.471874Q235.78438 34.659374 236.20625 33.503124L238.50313 27.175L240.31563 27.175L236.39375 37.55L234.75313 37.55ZM247.97188 34.20625L249.78438 34.440624Q249.3625 36.01875 248.19063 36.909374Q247.03438 37.784374 245.22188 37.784374Q242.95625 37.784374 241.6125 36.39375Q240.28438 34.9875 240.28438 32.45625Q240.28438 29.83125 241.62813 28.39375Q242.97188 26.940624 245.12813 26.940624Q247.20625 26.940624 248.51875 28.3625Q249.84688 29.76875 249.84688 32.346874Q249.84688 32.503124 249.83125 32.815624L242.09688 32.815624Q242.19063 34.51875 243.06563 35.425Q243.94063 36.33125 245.2375 36.33125Q246.20625 36.33125 246.87813 35.83125Q247.56563 35.315624 247.97188 34.20625ZM242.19063 31.3625L247.9875 31.3625Q247.87813 30.065624 247.33125 29.409374Q246.4875 28.39375 245.14375 28.39375Q243.94063 28.39375 243.1125 29.20625Q242.28438 30.003124 242.19063 31.3625ZM258.64374 33.753124L260.3625 33.971874Q260.08124 35.76875 258.90936 36.784374Q257.7531 37.784374 256.05 37.784374Q253.925 37.784374 252.62813 36.39375Q251.33125 35.003124 251.33125 32.409374Q251.33125 30.721874 251.87813 29.471874Q252.44063 28.20625 253.58125 27.58125Q254.72188 26.940624 256.0656 26.940624Q257.7531 26.940624 258.8156 27.8Q259.89374 28.659374 260.20624 30.221874L258.4875 30.4875Q258.2531 29.440624 257.6281 28.925Q257.0031 28.39375 256.1281 28.39375Q254.8 28.39375 253.97188 29.346874Q253.14375 30.3 253.14375 32.346874Q253.14375 34.440624 253.94063 35.39375Q254.7375 36.33125 256.03436 36.33125Q257.0656 36.33125 257.7531 35.70625Q258.45624 35.065624 258.64374 33.753124ZM265.70624 35.971874L265.95624 37.534374Q265.22186 37.690624 264.6281 37.690624Q263.675 37.690624 263.14374 37.39375Q262.6281 37.08125 262.40936 36.596874Q262.1906 36.096874 262.1906 34.51875L262.1906 28.55L260.90936 28.55L260.90936 27.175L262.1906 27.175L262.1906 24.6125L263.9406 23.55L263.9406 27.175L265.70624 27.175L265.70624 28.55L263.9406 28.55L263.9406 34.6125Q263.9406 35.3625 264.03436 35.58125Q264.1281 35.784374 264.33124 35.925Q264.55 36.05 264.9406 36.05Q265.22186 36.05 265.70624 35.971874ZM267.22186 32.3625Q267.22186 29.4875 268.8156 28.096874Q270.15936 26.940624 272.08124 26.940624Q274.22186 26.940624 275.5656 28.346874Q276.925 29.753124 276.925 32.221874Q276.925 34.221874 276.33124 35.378124Q275.7375 36.51875 274.58124 37.159374Q273.4406 37.784374 272.08124 37.784374Q269.89374 37.784374 268.55 36.39375Q267.22186 34.9875 267.22186 32.3625ZM269.01874 32.3625Q269.01874 34.3625 269.8781 35.346874Q270.7531 36.33125 272.08124 36.33125Q273.39374 36.33125 274.2531 35.346874Q275.1281 34.346874 275.1281 32.3Q275.1281 30.378124 274.2531 29.39375Q273.3781 28.39375 272.08124 28.39375Q270.7531 28.39375 269.8781 29.39375Q269.01874 30.378124 269.01874 32.3625ZM278.84686 37.55L278.84686 27.175L280.425 27.175L280.425 28.753124Q281.03436 27.64375 281.55 27.3Q282.0656 26.940624 282.675 26.940624Q283.5656 26.940624 284.4875 27.503124L283.8781 29.14375Q283.2375 28.753124 282.59686 28.753124Q282.01874 28.753124 281.55 29.1125Q281.09686 29.45625 280.89374 30.065624Q280.6125 31.003124 280.6125 32.1125L280.6125 37.55L278.84686 37.55Z" fill-rule="nonzero"/></svg>